<?xml version="1.0" encoding="UTF-8"?>
<svg xmlns="http://www.w3.org/2000/svg" xmlns:xlink="http://www.w3.org/1999/xlink" width="180px" height="180px" viewBox="0 0 180 180" version="1.1">
<g id="surface1">
<path style=" stroke:none;fill-rule:evenodd;fill:rgb(52.941176%,53.333333%,55.686275%);fill-opacity:1;" d="M 34.234375 12.140625 C 60.101562 9.550781 44.917969 15.25 60.664062 9.550781 L 76.410156 3.851562 C 76.410156 3.851562 101.289062 1.613281 120.273438 2.296875 C 124.507812 2.449219 135.804688 7.128906 139.953125 10.066406 L 147.261719 15.25 L 143.328125 25.613281 C 143.328125 25.613281 133.765625 23.828125 133.765625 26.128906 C 133.765625 42.839844 128.066406 24.632812 136.015625 42.710938 C 146.976562 67.628906 148.949219 58.769531 155.699219 74.832031 L 162.445312 90.894531 C 162.445312 90.894531 157.386719 106.957031 155.699219 112.65625 L 154.011719 118.355469 C 154.011719 118.355469 177.066406 139.597656 177.066406 138.5625 L 177.066406 137.527344 L 161.882812 150.480469 L 138.828125 155.140625 L 97.777344 176.902344 L 66.289062 175.867188 C 66.289062 175.867188 50.542969 176.902344 47.167969 172.238281 C 43.796875 167.578125 36.484375 184.675781 43.234375 167.578125 C 49.980469 150.480469 58.976562 146.851562 49.980469 150.480469 L 40.984375 154.105469 L 24.675781 141.671875 C 24.675781 141.671875 4.433594 102.8125 4.433594 95.558594 C 4.433594 88.304688 -6.253906 119.390625 5.558594 88.304688 L 17.367188 57.21875 L 35.921875 29.757812 Z M 34.234375 12.140625 "/>
<path style=" stroke:none;fill-rule:evenodd;fill:rgb(85.490196%,46.666667%,25.882353%);fill-opacity:1;" d="M 12.554688 83.679688 C 21.976562 51.980469 20.5625 50.679688 21.976562 51.980469 C 23.390625 53.285156 21.976562 54.585938 21.976562 54.585938 C 21.976562 54.585938 49.78125 33.746094 70.519531 40.691406 C 91.253906 47.640625 67.910156 38.410156 87.011719 49.375 C 122.0625 69.496094 124.242188 80.203125 124.242188 80.203125 L 131.308594 109.730469 C 132.699219 115.523438 91.253906 164.007812 91.253906 164.007812 L 79 162.703125 L 52.609375 152.71875 C 52.609375 152.71875 25.277344 140.996094 12.554688 83.679688 Z M 12.554688 83.679688 "/>
<path style=" stroke:none;fill-rule:evenodd;fill:rgb(94.901961%,78.039216%,29.019608%);fill-opacity:1;" d="M 39.492188 88.414062 C 40.691406 91.265625 38.402344 94.742188 34.371094 96.191406 C 30.34375 97.640625 26.09375 96.515625 24.871094 93.675781 C 23.644531 90.835938 25.910156 87.351562 29.929688 85.882812 C 33.953125 84.417969 38.21875 85.519531 39.464844 88.351562 L 32.175781 91.03125 Z M 39.492188 88.414062 "/>
<path style=" stroke:none;fill-rule:evenodd;fill:rgb(94.901961%,78.039216%,29.019608%);fill-opacity:1;" d="M 57.589844 85.058594 C 71.277344 88.808594 71.277344 88.808594 71.277344 88.808594 L 88.300781 84.035156 L 87.191406 75.511719 L 77.570312 75.851562 L 65.730469 76.195312 Z M 57.589844 85.058594 "/>
<path style=" stroke:none;fill-rule:evenodd;fill:rgb(63.921569%,54.509804%,36.078431%);fill-opacity:1;" d="M 47.96875 125.972656 C 47.96875 125.972656 53.886719 134.152344 57.589844 134.492188 C 61.289062 134.835938 49.449219 137.5625 60.917969 134.835938 C 72.390625 132.109375 72.390625 132.109375 72.390625 132.109375 C 72.390625 132.109375 78.308594 135.859375 86.820312 123.925781 C 95.332031 111.992188 111.980469 107.902344 95.699219 111.992188 C 79.417969 116.082031 79.417969 116.082031 79.417969 116.082031 C 79.417969 116.082031 78.308594 121.539062 47.96875 125.972656 Z M 47.96875 125.972656 "/>
<path style=" stroke:none;fill-rule:nonzero;fill:rgb(0%,0%,0%);fill-opacity:1;" d="M 116.816406 0.00390625 C 115.015625 -0.0273438 112.773438 0.242188 109.710938 0.777344 C 107.285156 1.203125 102.199219 1.480469 98.039062 1.414062 C 90.855469 1.300781 83.050781 1.910156 77.460938 3.023438 C 74.476562 3.617188 73.148438 3.871094 68.828125 4.664062 C 65.757812 5.226562 59.765625 7.277344 58.605469 8.167969 C 58.1875 8.488281 54.882812 8.660156 50.925781 8.574219 C 43.921875 8.417969 39.765625 9.058594 37.253906 10.679688 C 36.578125 11.117188 35.425781 11.472656 34.695312 11.472656 C 33.667969 11.472656 33.289062 11.894531 33.046875 13.3125 C 32.871094 14.324219 32.433594 16.171875 32.070312 17.417969 C 31.710938 18.660156 31.40625 21.648438 31.398438 24.054688 C 31.382812 28.949219 30.347656 31.226562 25.011719 38.125 C 18.101562 47.0625 16.566406 49.351562 15.335938 52.523438 C 14.613281 54.382812 13.933594 56.90625 13.820312 58.125 C 13.710938 59.347656 13.480469 60.683594 13.304688 61.097656 C 13.132812 61.511719 13.296875 61.851562 13.664062 61.851562 C 14.089844 61.851562 14.042969 62.171875 13.53125 62.742188 C 12.875 63.472656 12.875 63.71875 13.519531 64.085938 C 14.082031 64.40625 14.113281 64.652344 13.636719 64.925781 C 13.261719 65.140625 12.953125 65.933594 12.953125 66.6875 C 12.953125 67.445312 12.089844 69.914062 11.035156 72.175781 C 4.148438 86.90625 4.3125 86.429688 4.054688 92.324219 C 3.820312 97.5625 4.960938 106.921875 6.015625 108.417969 C 6.285156 108.800781 6.507812 112.808594 6.511719 117.320312 C 6.519531 123.351562 6.761719 126.019531 7.429688 127.371094 C 7.929688 128.382812 8.515625 129.207031 8.730469 129.207031 C 9.234375 129.207031 11.726562 134.542969 11.726562 135.621094 C 11.726562 136.074219 12.140625 136.59375 12.648438 136.773438 C 13.152344 136.949219 13.570312 137.484375 13.570312 137.960938 C 13.570312 138.433594 14.457031 139.601562 15.542969 140.558594 C 17.066406 141.898438 17.324219 142.402344 16.683594 142.769531 C 14.660156 143.921875 23.578125 147.320312 28.625 147.320312 C 31.386719 147.320312 32.753906 147.984375 35.941406 150.855469 C 38.996094 153.605469 42.019531 154.902344 44.972656 154.734375 C 47.929688 154.5625 48.476562 155.859375 46.011719 157.203125 C 44.09375 158.246094 42.441406 161.0625 42.441406 163.292969 C 42.441406 164.738281 40.207031 170.515625 39.324219 171.351562 C 38.648438 171.992188 38.554688 175.628906 39.21875 175.617188 C 40.886719 175.589844 42.441406 174.777344 42.441406 173.9375 C 42.441406 173.214844 42.863281 172.992188 44.011719 173.109375 C 45.28125 173.234375 45.449219 173.117188 44.878906 172.488281 C 44.054688 171.570312 44.589844 170.53125 45.894531 170.53125 C 46.398438 170.53125 46.652344 170.769531 46.453125 171.066406 C 46.257812 171.363281 46.65625 171.882812 47.339844 172.21875 C 48.027344 172.558594 48.585938 173.1875 48.585938 173.621094 C 48.585938 174.054688 49.414062 174.808594 50.429688 175.300781 C 51.441406 175.789062 53.167969 176.621094 54.265625 177.148438 C 57.558594 178.734375 70.105469 180.390625 72.042969 179.496094 C 73.519531 178.816406 81.5625 178.992188 84.832031 179.773438 C 88.121094 180.5625 93.371094 180.324219 94.660156 179.332031 C 95.167969 178.941406 97.101562 178.191406 98.960938 177.664062 C 104.214844 176.167969 115.132812 172.136719 116.210938 171.289062 C 116.746094 170.871094 117.449219 170.53125 117.777344 170.53125 C 118.105469 170.53125 118.679688 170.246094 119.054688 169.902344 C 120.171875 168.875 127.964844 166.617188 130.492188 166.589844 C 132.390625 166.570312 132.800781 166.378906 132.636719 165.578125 C 132.511719 164.964844 131.757812 164.515625 130.671875 164.402344 L 128.910156 164.214844 L 130.59375 163.410156 C 132.449219 162.523438 134.203125 162.3125 132.769531 163.148438 C 132.269531 163.4375 132.03125 163.832031 132.234375 164.019531 C 132.441406 164.207031 133.179688 163.699219 133.871094 162.886719 C 134.566406 162.070312 135.703125 161.367188 136.398438 161.320312 C 137.09375 161.269531 137.664062 161.0625 137.664062 160.855469 C 137.664062 160.644531 138.886719 160.191406 140.382812 159.84375 C 141.875 159.496094 143.542969 158.804688 144.082031 158.308594 C 144.625 157.808594 145.449219 157.535156 145.914062 157.699219 C 146.390625 157.867188 147.363281 157.277344 148.140625 156.339844 C 149.46875 154.742188 151.46875 154.128906 151.894531 155.191406 C 152.007812 155.472656 152.476562 155.328125 152.933594 154.871094 C 153.640625 154.160156 153.601562 154.066406 152.6875 154.21875 C 152.097656 154.316406 151.480469 154.015625 151.3125 153.546875 C 151.148438 153.082031 151.230469 152.886719 151.5 153.121094 C 151.769531 153.351562 152.378906 153.03125 152.847656 152.410156 C 153.738281 151.242188 157.324219 150.792969 157.324219 151.851562 C 157.324219 152.160156 157.027344 152.417969 156.667969 152.417969 C 156.289062 152.417969 156.179688 152.898438 156.402344 153.550781 C 156.664062 154.304688 156.46875 154.800781 155.828125 155.027344 C 155.300781 155.214844 154.867188 155.976562 154.867188 156.722656 C 154.867188 158.472656 156.472656 158.507812 158.453125 156.804688 C 164.140625 151.914062 166.546875 149.273438 166.902344 147.527344 C 167.113281 146.480469 167.546875 145.625 167.863281 145.625 C 168.175781 145.625 169.183594 144.984375 170.097656 144.203125 C 171.011719 143.421875 172.3125 142.640625 172.988281 142.464844 C 176.257812 141.625 180.054688 139.625 180.054688 138.742188 C 180.054688 137.621094 176.496094 134.164062 175.765625 134.578125 C 175.492188 134.734375 175.109375 134.480469 174.914062 134.015625 C 174.4375 132.867188 172.882812 132.949219 172.117188 134.160156 C 171.570312 135.027344 171.484375 134.972656 171.453125 133.738281 C 171.371094 130.886719 167.152344 128.351562 167.152344 131.15625 C 167.152344 132.152344 165.019531 135.785156 163.738281 136.964844 C 162.242188 138.34375 161.550781 139.855469 162.242188 140.246094 C 162.582031 140.441406 163.027344 140.203125 163.230469 139.714844 C 163.433594 139.230469 163.929688 138.832031 164.335938 138.832031 C 164.746094 138.832031 165.691406 138.304688 166.441406 137.660156 C 167.191406 137.015625 168.214844 136.570312 168.71875 136.671875 C 169.425781 136.808594 169.285156 137.195312 168.085938 138.382812 C 167.234375 139.222656 166.539062 140.140625 166.539062 140.417969 C 166.539062 140.695312 165.867188 141.640625 165.046875 142.519531 C 164.222656 143.398438 163.097656 145.222656 162.539062 146.570312 C 161.980469 147.917969 161.269531 149.019531 160.957031 149.019531 C 160.648438 149.019531 160.394531 149.53125 160.394531 150.152344 C 160.394531 150.984375 159.984375 151.285156 158.859375 151.285156 C 158.015625 151.285156 157.324219 151.015625 157.324219 150.683594 C 157.324219 150.355469 157.046875 150.242188 156.707031 150.433594 C 156.371094 150.628906 156.09375 150.488281 156.09375 150.125 C 156.09375 149.761719 156.464844 149.597656 156.917969 149.757812 C 158.03125 150.148438 161.226562 146.960938 160.785156 145.898438 C 160.589844 145.433594 159.800781 145.070312 159.03125 145.085938 C 157.714844 145.109375 156.578125 145.582031 151.871094 148.042969 C 150.816406 148.597656 149.953125 148.824219 149.953125 148.550781 C 149.953125 147.46875 153.050781 145.058594 154.441406 145.058594 C 155.773438 145.058594 159.167969 142.804688 159.167969 141.917969 C 159.167969 141.71875 159.648438 140.972656 160.242188 140.261719 C 160.832031 139.546875 161.730469 138.390625 162.238281 137.695312 C 162.746094 137 163.503906 136.097656 163.925781 135.691406 C 164.351562 135.28125 164.695312 134.453125 164.695312 133.847656 C 164.695312 133.238281 165.082031 132.449219 165.554688 132.085938 C 166.640625 131.257812 166.164062 129.433594 164.28125 127.226562 C 160.5625 122.867188 159.167969 122.242188 159.167969 124.945312 C 159.167969 125.609375 158.914062 126.394531 158.601562 126.6875 C 157.683594 127.566406 154.835938 132.765625 155.125 133.035156 C 155.46875 133.351562 159.167969 131.351562 159.167969 130.851562 C 159.167969 130.644531 159.648438 130.34375 160.242188 130.1875 C 160.832031 130.03125 161.871094 129.707031 162.546875 129.46875 C 163.863281 129.003906 154.695312 137.367188 152.824219 138.335938 C 151.820312 138.855469 151.777344 138.789062 152.398438 137.71875 C 153.085938 136.535156 152.742188 134.304688 151.875 134.304688 C 151.628906 134.304688 151.097656 134.605469 150.699219 134.972656 C 150.300781 135.339844 149.8125 135.492188 149.613281 135.3125 C 149.417969 135.132812 149.621094 134.707031 150.0625 134.371094 C 155.589844 130.203125 157.539062 127.082031 157.222656 122.90625 C 157.109375 121.390625 157.277344 120.152344 157.59375 120.152344 C 157.914062 120.152344 157.683594 119.824219 157.089844 119.421875 C 155.78125 118.539062 156.21875 116.207031 157.972656 114.746094 C 158.605469 114.21875 159.574219 112.359375 160.125 110.613281 C 160.675781 108.867188 161.601562 106.796875 162.179688 106.011719 C 163.769531 103.863281 164.828125 100.269531 164.425781 98.359375 C 164.230469 97.425781 163.933594 93.023438 163.761719 88.578125 C 163.59375 84.132812 163.207031 80.058594 162.902344 79.523438 C 162.597656 78.988281 161.625 76.925781 160.742188 74.941406 C 159.859375 72.957031 156.746094 68.117188 153.824219 64.1875 C 150.902344 60.257812 147.886719 55.640625 147.125 53.925781 C 145.238281 49.699219 140.546875 41.421875 136.457031 35.101562 C 135.699219 33.929688 135.25 32.5625 135.460938 32.058594 C 135.671875 31.554688 135.535156 30.800781 135.160156 30.382812 C 134.707031 29.882812 134.664062 29.105469 135.03125 28.09375 C 135.65625 26.367188 136.730469 26.078125 142.125 26.183594 C 144.554688 26.234375 145.742188 26.023438 145.914062 25.515625 C 149.066406 16.210938 148.851562 14.511719 144.066406 11.019531 C 139.652344 7.796875 135.820312 6.0625 130.601562 4.921875 C 125.851562 3.882812 126 3.941406 122.378906 1.625 C 120.71875 0.558594 119.132812 0.0390625 116.816406 0.00390625 Z M 89.746094 4.679688 C 90.421875 4.679688 90.976562 4.777344 90.976562 4.898438 C 90.976562 5.015625 90.421875 5.246094 89.746094 5.410156 C 89.070312 5.574219 88.519531 5.476562 88.519531 5.195312 C 88.519531 4.910156 89.070312 4.679688 89.746094 4.679688 Z M 86.925781 4.820312 C 87.601562 4.839844 87.902344 5 87.902344 5.304688 C 87.902344 5.6875 87.753906 5.863281 87.566406 5.691406 C 87.113281 5.269531 82.507812 6.554688 82.605469 7.074219 C 82.644531 7.304688 82.109375 7.855469 81.414062 8.308594 C 80.484375 8.90625 78.386719 9.113281 73.578125 9.078125 C 69.96875 9.050781 67.015625 8.824219 67.015625 8.574219 C 67.015625 8.324219 68.191406 7.832031 69.628906 7.476562 C 71.0625 7.121094 72.53125 6.613281 72.886719 6.34375 C 73.242188 6.078125 75.59375 5.71875 78.109375 5.546875 C 80.625 5.375 83.855469 5.09375 85.292969 4.921875 C 85.980469 4.839844 86.523438 4.804688 86.925781 4.820312 Z M 107.171875 11.101562 C 107.226562 11.109375 107.292969 11.199219 107.367188 11.367188 C 107.546875 11.777344 107.523438 12.261719 107.320312 12.453125 C 107.113281 12.640625 106.96875 12.304688 106.996094 11.707031 C 107.015625 11.296875 107.078125 11.089844 107.171875 11.101562 Z M 83.566406 11.472656 C 83.925781 11.472656 84.21875 11.726562 84.21875 12.039062 C 84.21875 12.351562 84.09375 12.605469 83.945312 12.605469 C 83.796875 12.605469 83.503906 12.351562 83.296875 12.039062 C 83.085938 11.726562 83.210938 11.472656 83.566406 11.472656 Z M 71.617188 11.59375 C 72.222656 11.605469 72.546875 11.738281 72.546875 11.984375 C 72.546875 12.324219 72.128906 12.601562 71.625 12.601562 C 70.507812 12.601562 70.402344 13.519531 71.46875 13.9375 C 71.890625 14.105469 71.203125 14.160156 69.933594 14.0625 C 68.667969 13.96875 67.628906 14.136719 67.628906 14.4375 C 67.628906 14.738281 66.960938 14.832031 66.144531 14.644531 C 65.234375 14.433594 64.566406 14.566406 64.414062 14.984375 C 64.21875 15.523438 63.460938 15.523438 60.925781 14.984375 C 59.148438 14.605469 57.382812 14.472656 57.003906 14.6875 C 56.136719 15.179688 51.292969 14.925781 49.476562 14.289062 C 48.277344 13.871094 48.148438 13.964844 48.4375 15.046875 C 48.753906 16.246094 48.726562 16.246094 47.441406 14.917969 C 46.714844 14.167969 45.9375 13.722656 45.707031 13.933594 C 45.480469 14.140625 46.089844 15.074219 47.054688 16.003906 L 47.054688 16 C 48.96875 17.839844 48.347656 18.394531 46.398438 16.585938 C 44.703125 15.015625 43.671875 13.828125 43.671875 13.453125 C 43.671875 13.277344 46.230469 13.140625 49.355469 13.148438 C 57.433594 13.179688 62.675781 12.816406 70.242188 11.703125 C 70.792969 11.621094 71.257812 11.585938 71.617188 11.59375 Z M 140.125 13.011719 C 141.152344 13.054688 142.449219 13.449219 143.65625 14.171875 C 145.261719 15.132812 145.417969 16.136719 144.117188 17.132812 C 143.480469 17.621094 143.195312 17.640625 143.195312 17.199219 C 143.195312 16.0625 137.980469 16.4375 136.777344 17.660156 C 136.1875 18.265625 135.882812 19.027344 136.101562 19.351562 C 136.355469 19.730469 135.820312 19.875 134.625 19.746094 C 133.308594 19.605469 132.75 19.785156 132.75 20.351562 C 132.75 20.796875 132.472656 21.003906 132.136719 20.8125 C 131.796875 20.621094 131.519531 20.886719 131.519531 21.402344 C 131.519531 21.980469 131.1875 22.230469 130.660156 22.042969 C 129.300781 21.5625 128.964844 22.320312 130.046875 23.421875 C 130.589844 23.972656 130.925781 24.71875 130.796875 25.082031 C 130.664062 25.441406 130.015625 25.042969 129.351562 24.195312 C 128.6875 23.347656 126.828125 21.476562 125.222656 20.042969 C 121.824219 17 121.460938 15.996094 124.320312 17.550781 C 125.429688 18.152344 127.457031 18.808594 128.824219 19.011719 C 131.207031 19.363281 131.421875 19.261719 134.097656 16.578125 C 135.632812 15.035156 137.085938 13.957031 137.324219 14.175781 C 137.5625 14.394531 138.003906 14.164062 138.308594 13.664062 C 138.546875 13.273438 139.050781 13.058594 139.699219 13.015625 C 139.835938 13.007812 139.976562 13.007812 140.125 13.011719 Z M 42.136719 13.171875 C 42.683594 13.171875 42.957031 13.425781 42.75 13.738281 C 42.542969 14.046875 42.265625 14.304688 42.136719 14.304688 C 42.007812 14.304688 41.730469 14.046875 41.519531 13.738281 C 41.3125 13.425781 41.589844 13.171875 42.136719 13.171875 Z M 39.679688 14.871094 C 40.183594 14.871094 40.601562 15.085938 40.601562 15.351562 C 40.601562 16.128906 47.292969 22.792969 48.074219 22.792969 C 48.355469 22.792969 48.585938 23.191406 48.585938 23.675781 C 48.585938 24.160156 48.859375 24.402344 49.191406 24.214844 C 49.859375 23.832031 53.5 27.003906 53.5 27.96875 C 53.5 28.300781 53.917969 28.429688 54.429688 28.246094 C 54.941406 28.066406 56.253906 28.417969 57.347656 29.027344 C 59.464844 30.210938 62.285156 31.421875 62.59375 31.277344 C 62.695312 31.230469 63.464844 31.605469 64.300781 32.113281 C 65.140625 32.617188 66.644531 33.082031 67.648438 33.148438 C 68.648438 33.214844 69.472656 33.4375 69.472656 33.648438 C 69.472656 33.863281 70.925781 34.425781 72.699219 34.898438 C 74.472656 35.375 77.304688 36.410156 78.996094 37.203125 C 80.683594 37.992188 82.414062 38.640625 82.835938 38.640625 C 83.257812 38.640625 83.601562 38.941406 83.601562 39.304688 C 83.601562 39.667969 83.777344 39.804688 83.988281 39.609375 C 84.199219 39.414062 85.167969 39.632812 86.136719 40.09375 C 87.109375 40.558594 87.902344 40.800781 87.902344 40.632812 C 87.902344 40.464844 89.007812 40.96875 90.359375 41.757812 C 91.710938 42.542969 92.816406 43.046875 92.816406 42.875 C 92.816406 42.703125 93.441406 42.882812 94.199219 43.273438 C 94.960938 43.660156 95.832031 43.910156 96.140625 43.828125 C 96.449219 43.746094 96.867188 43.929688 97.074219 44.238281 C 97.28125 44.546875 98.136719 44.917969 98.976562 45.0625 C 99.8125 45.207031 100.914062 45.414062 101.417969 45.523438 C 101.925781 45.628906 102.289062 45.445312 102.222656 45.113281 C 102.160156 44.78125 103.472656 45.132812 105.140625 45.894531 C 106.8125 46.65625 108.175781 47.527344 108.175781 47.832031 C 108.175781 48.136719 108.550781 48.253906 109.007812 48.09375 C 109.464844 47.929688 110.582031 48.433594 111.488281 49.207031 C 112.394531 49.980469 113.46875 50.484375 113.878906 50.332031 C 114.453125 50.117188 114.449219 50.042969 113.859375 50.007812 C 113.4375 49.984375 113.089844 49.582031 113.089844 49.113281 C 113.089844 48.648438 112.882812 48.261719 112.628906 48.261719 C 112.378906 48.261719 110.859375 47.113281 109.253906 45.714844 C 107.652344 44.316406 106.167969 43.171875 105.964844 43.171875 C 105.757812 43.171875 104.433594 42.453125 103.023438 41.574219 C 101.609375 40.695312 98.804688 39.242188 96.789062 38.34375 C 94.773438 37.449219 92.988281 36.546875 92.820312 36.339844 C 92.648438 36.132812 91.820312 35.769531 90.976562 35.53125 C 90.128906 35.289062 89.300781 34.917969 89.132812 34.707031 C 88.964844 34.492188 87.730469 33.921875 86.394531 33.441406 C 85.058594 32.957031 83.851562 32.253906 83.714844 31.875 C 83.539062 31.386719 83.972656 31.425781 85.222656 32.003906 C 86.988281 32.824219 89.183594 33.320312 93.722656 33.925781 C 95.921875 34.21875 96.082031 34.160156 95.335938 33.332031 C 94.328125 32.210938 95.066406 32.183594 97.117188 33.265625 C 98.953125 34.230469 99.574219 34.304688 99.574219 33.554688 C 99.574219 32.976562 92.742188 29.585938 91.566406 29.585938 C 91.199219 29.585938 89.324219 28.914062 87.402344 28.09375 C 85.480469 27.273438 83.566406 26.59375 83.144531 26.585938 C 82.71875 26.574219 82.375 26.355469 82.375 26.097656 C 82.375 25.835938 82.71875 25.628906 83.144531 25.632812 C 84.308594 25.644531 92.957031 28.1875 94.679688 29.027344 C 95.515625 29.429688 96.613281 29.96875 97.117188 30.21875 C 97.625 30.46875 99.214844 31.238281 100.652344 31.929688 C 102.089844 32.621094 103.804688 33.648438 104.46875 34.214844 C 105.128906 34.78125 105.832031 35.246094 106.027344 35.246094 C 106.226562 35.246094 107.082031 35.882812 107.925781 36.660156 C 109.453125 38.070312 110.632812 38.488281 110.632812 37.625 C 110.632812 37.375 110.304688 36.863281 109.898438 36.492188 C 108.960938 35.628906 110.300781 35.523438 111.429688 36.371094 C 111.835938 36.679688 113.539062 37.863281 115.210938 39 C 118.011719 40.910156 118.796875 41.195312 121.824219 41.402344 C 122.402344 41.441406 123.675781 42.171875 124.648438 43.03125 C 127.992188 45.972656 129.679688 47.125 129.679688 46.464844 C 129.679688 45.65625 123.222656 39.773438 122.332031 39.773438 C 121.980469 39.773438 121.179688 39.328125 120.554688 38.785156 C 118.6875 37.15625 116.789062 35.8125 116.359375 35.8125 C 116.132812 35.8125 115.515625 35.464844 114.984375 35.035156 C 114.449219 34.609375 112.769531 33.628906 111.25 32.859375 C 109.726562 32.089844 106.890625 30.628906 104.941406 29.613281 C 102.410156 28.296875 101.179688 27.933594 100.636719 28.347656 C 100.09375 28.761719 99.175781 28.496094 97.421875 27.417969 C 96.074219 26.585938 94.210938 25.546875 93.28125 25.105469 C 90.296875 23.6875 91.984375 23.785156 95.238281 25.21875 C 96.964844 25.980469 98.527344 26.382812 98.707031 26.113281 C 98.886719 25.84375 98.808594 25.617188 98.535156 25.613281 C 98.265625 25.605469 97.347656 25.085938 96.503906 24.457031 L 94.96875 23.3125 L 97.425781 24.238281 C 98.777344 24.746094 100.277344 25.308594 100.757812 25.492188 C 101.378906 25.726562 101.519531 25.546875 101.238281 24.875 C 100.757812 23.722656 101.335938 23.6875 102.890625 24.773438 C 103.914062 25.488281 104.246094 25.457031 105.664062 24.527344 C 107.242188 23.492188 107.332031 23.496094 109.679688 24.546875 C 112.671875 25.886719 112.640625 25.890625 112.171875 24.351562 C 111.867188 23.351562 111.921875 23.261719 112.429688 23.925781 C 112.78125 24.394531 113.082031 24.519531 113.09375 24.207031 C 113.105469 23.898438 113.71875 24.535156 114.460938 25.625 C 115.203125 26.714844 115.957031 27.730469 116.144531 27.886719 C 117.652344 29.164062 119.832031 32.550781 119.480469 33.074219 C 119.203125 33.484375 119.316406 33.566406 119.789062 33.296875 C 120.480469 32.90625 121.941406 34.101562 125.710938 38.144531 C 128.976562 41.648438 131.523438 44.75 131.523438 45.226562 C 131.523438 45.515625 132.003906 46.164062 132.597656 46.667969 C 134.464844 48.269531 136.4375 50.390625 136.4375 50.808594 C 136.4375 51.027344 137.417969 52.113281 138.617188 53.21875 C 139.902344 54.40625 140.65625 55.566406 140.453125 56.054688 C 140.214844 56.628906 140.402344 56.777344 141.070312 56.542969 C 141.597656 56.355469 141.882812 56.421875 141.699219 56.691406 C 141.519531 56.960938 142.496094 58.359375 143.871094 59.800781 C 145.246094 61.238281 146.132812 62.417969 145.839844 62.417969 C 145.128906 62.417969 142.429688 60.679688 141.625 59.699219 C 141.269531 59.265625 140.230469 58.875 139.320312 58.824219 C 137.75 58.742188 137.363281 58.328125 137.644531 57.039062 C 137.710938 56.726562 137.558594 56.664062 137.304688 56.898438 C 137.050781 57.132812 136.335938 56.898438 135.714844 56.382812 C 135.09375 55.867188 134.417969 55.59375 134.214844 55.78125 C 134.011719 55.972656 132.726562 55.472656 131.355469 54.679688 C 128.996094 53.304688 128.191406 52.683594 123.84375 48.882812 C 121.257812 46.621094 117.289062 44.292969 116.644531 44.660156 C 116.347656 44.832031 116.714844 45.457031 117.460938 46.054688 C 118.207031 46.652344 118.613281 47.328125 118.359375 47.558594 C 118.109375 47.792969 117.550781 47.535156 117.121094 46.992188 C 116.6875 46.445312 116.042969 46 115.6875 46 C 115.328125 46 114.945312 45.796875 114.832031 45.542969 C 114.527344 44.859375 108.75 41.324219 108.425781 41.621094 C 107.769531 42.226562 109.105469 43.621094 112.664062 46.046875 C 114.757812 47.472656 116.40625 48.925781 116.324219 49.277344 C 116.242188 49.632812 116.53125 49.796875 116.960938 49.644531 C 117.394531 49.492188 118.980469 50.328125 120.488281 51.503906 C 121.996094 52.675781 123.601562 53.894531 124.054688 54.207031 C 124.507812 54.519531 125.558594 55.347656 126.386719 56.046875 C 127.214844 56.75 128 57.320312 128.136719 57.320312 C 128.269531 57.320312 129.816406 58.722656 131.574219 60.433594 C 134.855469 63.632812 136.066406 64.300781 135.414062 62.558594 C 135.207031 62.011719 137.652344 64.050781 140.84375 67.085938 C 144.035156 70.121094 146.964844 72.605469 147.355469 72.605469 C 147.746094 72.605469 148.382812 73.152344 148.773438 73.824219 C 149.476562 75.035156 149.46875 75.035156 147.105469 73.730469 C 145.796875 73.007812 144.316406 72.128906 143.808594 71.777344 C 143.300781 71.429688 142.058594 70.773438 141.042969 70.328125 C 139.40625 69.601562 134.949219 66.816406 132.933594 65.257812 C 132.53125 64.945312 131.164062 64.242188 129.902344 63.695312 C 128.640625 63.148438 127.003906 62.191406 126.265625 61.566406 C 123.316406 59.082031 121.835938 58.125 121.222656 58.316406 C 120.867188 58.421875 120.207031 58.039062 119.753906 57.457031 C 119.300781 56.875 118.511719 56.21875 118.007812 56 C 117.5 55.78125 115.5625 54.71875 113.707031 53.632812 C 110.878906 51.984375 110.292969 51.816406 110.109375 52.597656 C 109.992188 53.109375 110.335938 53.761719 110.878906 54.039062 C 111.417969 54.320312 111.863281 54.910156 111.863281 55.351562 C 111.863281 55.816406 112.234375 56.023438 112.746094 55.839844 C 113.25 55.664062 113.976562 56.039062 114.429688 56.707031 C 114.871094 57.355469 115.472656 57.886719 115.769531 57.886719 C 116.066406 57.886719 117.214844 58.589844 118.320312 59.445312 C 121.78125 62.121094 123.160156 63.035156 125.378906 64.117188 C 126.5625 64.691406 128.445312 65.949219 129.566406 66.90625 C 132.636719 69.53125 137.136719 72.605469 137.910156 72.605469 C 138.289062 72.605469 138.941406 73.113281 139.363281 73.738281 C 139.789062 74.359375 140.589844 74.871094 141.152344 74.871094 C 141.710938 74.871094 141.988281 75.035156 141.761719 75.242188 C 141.539062 75.449219 142.3125 76.214844 143.480469 76.949219 C 144.652344 77.679688 145.523438 78.59375 145.421875 78.980469 C 145.320312 79.363281 145.355469 79.488281 145.496094 79.257812 C 145.941406 78.523438 147.347656 78.792969 147.714844 79.679688 C 147.910156 80.148438 148.398438 80.53125 148.800781 80.53125 C 149.722656 80.53125 157.367188 87.75 158.414062 89.609375 C 158.84375 90.375 159.25 92.148438 159.3125 93.546875 C 159.457031 96.785156 158.625 102.496094 157.953125 102.878906 C 157.667969 103.039062 157.25 104.445312 157.015625 106 C 156.785156 107.558594 156.355469 108.964844 156.0625 109.132812 C 155.773438 109.296875 155.671875 109.761719 155.839844 110.164062 C 156.007812 110.566406 155.402344 111.578125 154.5 112.410156 C 152.894531 113.890625 152.265625 114.152344 150.738281 113.972656 C 150.324219 113.921875 149.8125 114.519531 149.601562 115.300781 C 149.390625 116.078125 148.75 116.851562 148.183594 117.015625 C 147.617188 117.183594 144.949219 119.210938 142.253906 121.527344 C 139.5625 123.84375 136.390625 126.199219 135.207031 126.765625 C 134.023438 127.332031 132.148438 128.496094 131.039062 129.351562 C 129.929688 130.207031 128.640625 130.90625 128.171875 130.90625 C 127.707031 130.90625 127.230469 131.097656 127.121094 131.332031 C 127.007812 131.566406 125.117188 133.175781 122.921875 134.910156 C 117.675781 139.054688 116.011719 139.628906 117.148438 136.898438 C 117.355469 136.410156 117.816406 136.175781 118.175781 136.378906 C 118.59375 136.617188 118.679688 136.390625 118.410156 135.75 C 118.09375 134.992188 118.230469 134.828125 118.953125 135.082031 C 119.484375 135.269531 119.75 135.183594 119.550781 134.882812 C 119.351562 134.585938 119.722656 133.851562 120.378906 133.25 C 122.058594 131.703125 131.765625 125.8125 132.636719 125.8125 C 133.039062 125.8125 133.363281 125.558594 133.363281 125.246094 C 133.363281 124.933594 133.683594 124.679688 134.074219 124.679688 C 134.992188 124.679688 141.105469 119.410156 143.582031 116.480469 C 144.636719 115.230469 145.964844 112.890625 146.53125 111.28125 C 147.097656 109.667969 147.957031 108.050781 148.441406 107.679688 C 148.929688 107.308594 149.191406 106.804688 149.027344 106.5625 C 148.863281 106.320312 149.144531 105.042969 149.648438 103.726562 C 150.152344 102.410156 150.566406 100.621094 150.566406 99.75 C 150.566406 98.882812 150.832031 98.085938 151.152344 97.980469 C 151.523438 97.863281 151.511719 96.871094 151.125 95.292969 C 150.789062 93.917969 150.660156 92.4375 150.839844 92.007812 C 151.019531 91.578125 150.894531 91.378906 150.558594 91.570312 C 150.226562 91.761719 149.953125 91.667969 149.953125 91.363281 C 149.953125 90.84375 148.503906 89.082031 146.113281 86.695312 C 145.519531 86.105469 145.035156 85.398438 145.035156 85.125 C 145.035156 84.851562 144.09375 83.960938 142.941406 83.152344 C 141.785156 82.34375 140.460938 81.324219 139.992188 80.894531 C 139.523438 80.464844 138.53125 79.933594 137.78125 79.714844 C 137.03125 79.496094 136.578125 79.078125 136.769531 78.789062 C 136.964844 78.5 136.511719 78.265625 135.761719 78.265625 C 135.015625 78.265625 133.496094 77.628906 132.386719 76.851562 C 131.28125 76.070312 130.148438 75.433594 129.871094 75.433594 C 129.28125 75.433594 122.414062 71.292969 121.078125 70.132812 C 120.570312 69.695312 119.050781 68.773438 117.699219 68.085938 C 116.347656 67.398438 114.480469 66.175781 113.550781 65.371094 C 112.625 64.5625 111.863281 64.054688 111.863281 64.242188 C 111.863281 64.433594 110.054688 63.035156 107.84375 61.136719 C 105.328125 58.976562 103.953125 57.386719 104.167969 56.875 C 104.382812 56.355469 104.207031 56.167969 103.667969 56.359375 C 103.136719 56.546875 102.535156 55.949219 102.011719 54.722656 C 101.558594 53.664062 100.964844 52.792969 100.691406 52.792969 C 100.414062 52.792969 100.191406 52.464844 100.191406 52.066406 C 100.191406 51.667969 99.359375 50.886719 98.347656 50.335938 C 97.332031 49.785156 96.503906 49.09375 96.503906 48.800781 C 96.503906 48.503906 96.089844 48.265625 95.582031 48.265625 C 95.074219 48.265625 94.660156 48.011719 94.660156 47.699219 C 94.660156 47.386719 94.355469 47.132812 93.980469 47.132812 C 93.355469 47.132812 90.957031 45.570312 88.363281 43.472656 C 87.773438 42.996094 87.007812 42.605469 86.667969 42.605469 C 85.679688 42.605469 83.386719 41.28125 82.5 40.199219 C 82.054688 39.65625 81.039062 39.207031 80.246094 39.207031 C 79.449219 39.207031 76.769531 38.351562 74.289062 37.304688 C 68.777344 34.976562 67.5 34.484375 66.710938 34.386719 C 66.371094 34.34375 64.988281 33.847656 63.636719 33.285156 C 62.285156 32.722656 60.628906 32.066406 59.953125 31.832031 C 59.277344 31.59375 56.097656 30.25 52.886719 28.84375 C 48.328125 26.84375 46.648438 25.773438 45.207031 23.953125 C 44.195312 22.671875 42.734375 20.933594 41.964844 20.085938 C 40.746094 18.746094 38.757812 15.632812 38.757812 15.066406 C 38.757812 14.957031 39.171875 14.871094 39.679688 14.871094 Z M 111.585938 19.527344 C 111.925781 19.5 112.859375 19.875 113.835938 20.449219 C 116.164062 21.824219 115.476562 22.039062 112.882812 20.746094 C 111.925781 20.265625 111.289062 19.734375 111.476562 19.566406 C 111.5 19.542969 111.535156 19.53125 111.585938 19.527344 Z M 117.875 22.839844 C 118.15625 22.785156 118.742188 23.042969 119.578125 23.625 C 120.234375 24.082031 121.265625 24.464844 121.875 24.472656 C 122.480469 24.484375 123.667969 25.128906 124.511719 25.90625 C 125.359375 26.683594 126.425781 27.320312 126.886719 27.320312 C 127.347656 27.320312 128.441406 28.105469 129.316406 29.0625 C 130.609375 30.480469 130.90625 30.605469 130.90625 29.742188 C 130.90625 29.15625 130.574219 28.375 130.171875 28 C 129.765625 27.628906 129.695312 27.324219 130.015625 27.332031 C 131.363281 27.351562 132.203125 28.394531 132.550781 30.480469 C 132.753906 31.699219 133.171875 32.996094 133.480469 33.355469 C 133.820312 33.753906 133.800781 34.148438 133.4375 34.355469 C 133.105469 34.546875 132.660156 34.441406 132.449219 34.125 C 132.238281 33.808594 132.289062 33.546875 132.5625 33.546875 C 132.835938 33.546875 132.121094 33.019531 130.972656 32.375 C 128.09375 30.757812 127.0625 29.710938 127.582031 28.9375 C 127.871094 28.507812 127.757812 28.433594 127.246094 28.722656 C 126.820312 28.964844 126.292969 28.941406 126.078125 28.667969 C 125.421875 27.839844 121.691406 26.207031 121.691406 26.75 C 121.691406 27.027344 121.980469 27.417969 122.332031 27.621094 C 122.683594 27.820312 122.808594 28.453125 122.613281 29.027344 C 122.40625 29.625 122.617188 30.265625 123.113281 30.535156 C 123.582031 30.792969 124.316406 31.636719 124.742188 32.417969 C 125.167969 33.195312 123.414062 31.875 120.839844 29.484375 C 118.269531 27.09375 116.164062 24.816406 116.164062 24.417969 C 116.164062 23.859375 116.328125 23.847656 116.898438 24.378906 C 118.058594 25.445312 118.730469 25.171875 118.007812 23.925781 C 117.617188 23.257812 117.59375 22.890625 117.875 22.839844 Z M 70.332031 44.71875 C 71.488281 44.699219 72.179688 44.988281 72.609375 45.578125 C 72.8125 45.855469 74.597656 46.214844 76.574219 46.371094 C 78.550781 46.53125 81.011719 47.070312 82.039062 47.578125 C 83.070312 48.085938 84.046875 48.527344 84.21875 48.558594 C 85.925781 48.882812 89.15625 50.722656 90.519531 52.152344 C 91.453125 53.128906 92.507812 53.925781 92.863281 53.925781 C 93.222656 53.925781 93.351562 54.402344 93.152344 54.984375 C 92.695312 56.304688 96.15625 59.996094 96.863281 58.941406 C 97.125 58.550781 96.722656 57.832031 95.902344 57.214844 C 95.125 56.636719 94.632812 56.027344 94.808594 55.867188 C 94.984375 55.703125 96.199219 56.503906 97.503906 57.644531 C 98.8125 58.78125 100.449219 59.914062 101.136719 60.15625 C 101.828125 60.402344 103.132812 61.585938 104.039062 62.789062 C 105.644531 64.925781 105.664062 65.050781 104.835938 67.941406 C 104.324219 69.722656 104.21875 71.035156 104.5625 71.230469 C 105.207031 71.597656 107.511719 69.296875 107.542969 68.25 C 107.578125 67.039062 108.84375 66.8125 110.035156 67.804688 C 111.171875 68.753906 111.164062 68.820312 109.617188 70.691406 C 108.171875 72.433594 108.132812 72.605469 109.195312 72.605469 C 109.835938 72.605469 110.992188 72.199219 111.765625 71.699219 C 113.335938 70.683594 114.261719 71.023438 113.183594 72.21875 C 112.636719 72.828125 112.816406 73.128906 114.019531 73.636719 C 115.109375 74.09375 115.546875 74.726562 115.554688 75.847656 C 115.5625 77.035156 116.074219 77.691406 117.679688 78.546875 C 119.785156 79.671875 119.789062 79.6875 118.6875 81.023438 C 117.589844 82.355469 117.570312 82.359375 116.410156 81.253906 C 115.058594 79.972656 113.644531 79.40625 110.632812 78.949219 C 106.273438 78.289062 98.34375 79.148438 97.28125 80.398438 C 96.613281 81.183594 93.316406 82.578125 91.148438 82.992188 C 90.734375 83.074219 90.203125 83.316406 89.96875 83.53125 C 88.914062 84.503906 87.890625 83.890625 88.265625 82.511719 C 88.578125 81.371094 88.421875 81.09375 87.472656 81.09375 C 86.824219 81.09375 85.699219 81.605469 84.972656 82.226562 C 84.25 82.851562 83.109375 83.359375 82.441406 83.359375 C 81.773438 83.359375 80.496094 83.617188 79.601562 83.929688 C 78.710938 84.242188 75.996094 84.605469 73.574219 84.738281 C 71.148438 84.875 68.960938 85 68.707031 85.019531 C 68.453125 85.039062 68.246094 85.566406 68.246094 86.191406 C 68.246094 87.542969 67.875 87.582031 65.5625 86.46875 C 64.59375 86.003906 63.351562 85.621094 62.796875 85.613281 C 62 85.609375 61.964844 85.507812 62.628906 85.117188 C 63.089844 84.851562 63.988281 84.757812 64.628906 84.910156 C 65.457031 85.109375 65.792969 84.886719 65.796875 84.132812 C 65.804688 83.550781 66.574219 81.675781 67.503906 79.964844 C 68.867188 77.46875 69.535156 76.816406 70.886719 76.671875 C 72.527344 76.496094 72.5625 76.550781 72.1875 78.714844 C 71.445312 82.980469 73.824219 84.648438 78.359375 83.054688 C 80.492188 82.304688 81.164062 81.746094 81.46875 80.464844 C 81.921875 78.570312 82.238281 78.464844 83.382812 79.820312 C 84.175781 80.761719 84.261719 80.757812 85.109375 79.753906 C 85.730469 79.015625 86.445312 78.796875 87.472656 79.035156 C 89.238281 79.441406 89.984375 78.929688 89.082031 77.925781 C 88.582031 77.371094 89.019531 76.9375 90.929688 76.085938 C 92.921875 75.199219 93.433594 75.136719 93.433594 75.769531 C 93.433594 76.863281 94.609375 76.765625 96.90625 75.476562 C 99.316406 74.121094 103.261719 73.070312 103.261719 73.78125 C 103.261719 74.070312 102.835938 74.304688 102.3125 74.304688 C 101.792969 74.304688 101.03125 74.566406 100.625 74.886719 C 100.214844 75.210938 99.332031 75.824219 98.65625 76.257812 C 96.464844 77.65625 98.21875 77.878906 101.859375 76.664062 C 106.242188 75.203125 108.667969 75 110.535156 75.9375 C 112.707031 77.03125 113.027344 76.078125 110.988281 74.578125 C 109.976562 73.832031 108.414062 73.273438 107.425781 73.296875 C 106.457031 73.324219 105.34375 73.050781 104.953125 72.691406 C 104.5625 72.332031 103.609375 72.039062 102.832031 72.039062 C 101.160156 72.039062 101.164062 72.054688 102.335938 69.980469 C 103.394531 68.113281 103.539062 66.035156 102.644531 65.527344 C 102.308594 65.335938 101.75 65.765625 101.410156 66.484375 C 100.347656 68.714844 98.632812 71.101562 97.9375 71.316406 C 96.871094 71.640625 96.5 69.175781 97.417969 67.863281 C 98.527344 66.273438 97.964844 63.914062 96.042969 62.148438 C 95.191406 61.359375 94.691406 60.71875 94.929688 60.71875 C 95.167969 60.71875 94.992188 60.375 94.539062 59.957031 C 94.085938 59.542969 92.800781 59.175781 91.683594 59.144531 C 90.566406 59.117188 88.996094 58.699219 88.195312 58.214844 C 87.394531 57.730469 86.3125 57.484375 85.789062 57.671875 C 85.230469 57.867188 84.6875 57.632812 84.464844 57.097656 C 83.933594 55.824219 82.917969 55.953125 78.339844 57.863281 C 75.050781 59.238281 74.269531 59.390625 73.988281 58.714844 C 73.71875 58.070312 73.382812 58.195312 72.464844 59.269531 C 71.34375 60.582031 68.085938 62.417969 66.878906 62.417969 C 66.085938 62.417969 72.703125 56.804688 73.527344 56.777344 C 74.675781 56.742188 78.074219 55.003906 78.074219 54.449219 C 78.074219 54.160156 77.609375 53.925781 77.042969 53.925781 C 75.605469 53.925781 71.929688 55.199219 71.929688 55.695312 C 71.929688 55.921875 70.339844 57.003906 68.398438 58.097656 C 66.457031 59.191406 63.949219 60.867188 62.832031 61.820312 C 60.664062 63.660156 60.257812 63.851562 60.257812 63.035156 C 60.257812 62.292969 69.519531 55.582031 70.09375 55.910156 C 70.359375 56.0625 70.722656 55.828125 70.902344 55.394531 C 71.082031 54.964844 72.699219 54.164062 74.496094 53.617188 C 76.296875 53.074219 77.921875 52.410156 78.109375 52.144531 C 78.800781 51.171875 82.664062 51.292969 84.148438 52.332031 C 85.867188 53.539062 86.675781 53.636719 86.675781 52.648438 C 86.675781 51.679688 84.828125 50.6875 82.179688 50.226562 C 79.984375 49.847656 71.710938 51.75 71.011719 52.792969 C 70.835938 53.054688 68.96875 54.335938 66.859375 55.644531 C 64.75 56.953125 62.054688 58.863281 60.871094 59.886719 C 58.355469 62.074219 52.101562 65.488281 49.617188 66.039062 C 47.320312 66.542969 47.871094 67.816406 50.339844 67.710938 C 52.519531 67.617188 52.660156 67.796875 51.351562 69.007812 C 50.84375 69.472656 50.429688 70.089844 50.429688 70.378906 C 50.429688 71.496094 52.457031 70.832031 54 69.207031 C 54.890625 68.273438 56.132812 67.511719 56.765625 67.511719 C 57.398438 67.511719 59.042969 66.621094 60.425781 65.53125 C 61.808594 64.441406 63.300781 63.546875 63.746094 63.546875 C 64.195312 63.546875 64.558594 63.292969 64.558594 62.984375 C 64.558594 62.671875 64.855469 62.417969 65.214844 62.417969 C 65.578125 62.417969 65.785156 62.988281 65.675781 63.691406 C 65.570312 64.390625 65.203125 64.9375 64.867188 64.90625 C 64.527344 64.871094 63.777344 65.5625 63.199219 66.441406 C 62.121094 68.074219 61.859375 68.355469 57.28125 72.839844 C 54.648438 75.417969 54.585938 75.441406 52.1875 74.847656 C 50.515625 74.433594 49.582031 73.816406 49.1875 72.859375 C 48.191406 70.445312 47.230469 71.226562 47.535156 74.203125 C 47.828125 77.089844 48.851562 79.398438 49.835938 79.398438 C 50.164062 79.398438 50.429688 79.652344 50.429688 79.964844 C 50.429688 80.894531 49.328125 80.605469 48.042969 79.335938 C 47.378906 78.679688 46.574219 78.292969 46.253906 78.476562 C 45.925781 78.664062 45.488281 77.332031 45.253906 75.425781 C 44.574219 69.871094 43.632812 71.449219 43.8125 77.839844 C 43.96875 83.371094 43.917969 83.652344 42.683594 83.8125 C 41.613281 83.953125 41.320312 83.613281 41.019531 81.902344 C 40.601562 79.535156 39.066406 77.699219 37.503906 77.699219 C 36.921875 77.699219 35.582031 76.886719 34.527344 75.894531 C 32.667969 74.140625 32.585938 74.121094 31.710938 75.183594 C 31.214844 75.789062 30.800781 75.992188 30.789062 75.636719 C 30.777344 75.28125 29.703125 74.597656 28.394531 74.117188 C 27.085938 73.632812 25.835938 72.8125 25.621094 72.292969 C 25.367188 71.679688 24.792969 71.449219 24.003906 71.640625 C 23.335938 71.800781 22.785156 71.703125 22.785156 71.421875 C 22.785156 71.136719 23.0625 70.875 23.398438 70.835938 C 23.738281 70.796875 24.359375 70.71875 24.78125 70.660156 C 25.203125 70.601562 25.875 70.777344 26.273438 71.050781 C 26.671875 71.324219 27.847656 71.570312 28.886719 71.597656 C 29.921875 71.621094 30.769531 71.796875 30.773438 71.984375 C 30.773438 72.171875 32.777344 72.300781 35.226562 72.273438 C 37.675781 72.246094 40.011719 72.457031 40.417969 72.746094 C 40.828125 73.035156 41.46875 73.09375 41.839844 72.878906 C 42.738281 72.367188 40.660156 70.199219 39.625 70.566406 C 38.996094 70.789062 36.378906 70.546875 28.789062 69.5625 C 28.207031 69.488281 27.515625 69.226562 27.253906 68.988281 C 26.832031 68.597656 29.402344 68.71875 38.601562 69.515625 C 40.039062 69.640625 41.214844 69.503906 41.214844 69.210938 C 41.214844 68.441406 38.988281 67.464844 38.015625 67.808594 C 37.558594 67.96875 35.117188 67.628906 32.59375 67.050781 C 30.070312 66.472656 26.929688 66.117188 25.617188 66.257812 C 23.257812 66.515625 23.230469 66.5 23.664062 64.914062 C 23.902344 64.03125 24.910156 62.597656 25.902344 61.722656 C 27.601562 60.226562 27.9375 60.15625 31.769531 60.445312 C 34.007812 60.613281 36.289062 60.972656 36.835938 61.238281 C 37.769531 61.6875 41.578125 61.621094 43.671875 61.117188 C 44.179688 60.996094 45.421875 60.707031 46.4375 60.476562 C 49.492188 59.785156 51.90625 58.878906 53.015625 58.007812 C 53.597656 57.554688 54.4375 57.316406 54.890625 57.476562 C 55.339844 57.632812 56.878906 57.027344 58.3125 56.128906 C 59.746094 55.226562 61.050781 54.492188 61.214844 54.492188 C 61.378906 54.492188 62.605469 53.855469 63.945312 53.078125 C 65.28125 52.296875 66.796875 51.660156 67.3125 51.660156 C 68.464844 51.660156 74.367188 48.707031 74.378906 48.125 C 74.394531 47.375 72.546875 47.667969 70.210938 48.78125 C 68.960938 49.375 66.417969 50.457031 64.558594 51.1875 C 62.699219 51.914062 61.085938 52.707031 60.96875 52.949219 C 60.660156 53.597656 56.164062 55.625 55.035156 55.625 C 54.503906 55.625 52.910156 56.167969 51.496094 56.832031 C 46.773438 59.050781 41.242188 60.226562 37.375 59.832031 C 32.570312 59.34375 32.4375 58.648438 37.074219 58.28125 C 45.699219 57.597656 52.019531 55.824219 55.035156 53.234375 C 56.285156 52.164062 57.472656 51.683594 58.722656 51.734375 C 60.6875 51.820312 64.195312 50.382812 63.527344 49.765625 C 63.304688 49.5625 63.585938 49.398438 64.148438 49.398438 C 64.714844 49.398438 65.171875 49.144531 65.171875 48.832031 C 65.171875 48.519531 65.554688 48.265625 66.019531 48.265625 C 67.75 48.265625 71.480469 46.492188 70.894531 45.953125 C 70.214844 45.324219 64.78125 47.21875 61.5 49.222656 C 60.320312 49.941406 58.824219 50.53125 58.171875 50.53125 C 57.519531 50.53125 55.847656 51.144531 54.457031 51.894531 C 51.75 53.359375 44.84375 55.761719 44.433594 55.382812 C 44.296875 55.257812 43.199219 55.535156 41.996094 55.996094 C 40.789062 56.460938 38.046875 56.851562 35.902344 56.863281 C 32.253906 56.882812 31.671875 57.136719 31.929688 58.605469 C 31.972656 58.84375 31.175781 58.980469 30.160156 58.910156 C 29.144531 58.835938 28.3125 58.617188 28.3125 58.417969 C 28.3125 58.027344 34.125 55.355469 39.0625 53.476562 C 42.167969 52.292969 44.421875 51.800781 48.894531 51.316406 C 50.246094 51.171875 53.390625 50.148438 55.878906 49.042969 C 58.371094 47.9375 62.59375 46.429688 65.265625 45.691406 C 67.558594 45.058594 69.175781 44.738281 70.332031 44.71875 Z M 100.769531 49.964844 C 100.410156 49.964844 100.289062 50.21875 100.496094 50.53125 C 100.707031 50.839844 101 51.09375 101.148438 51.09375 C 101.296875 51.09375 101.417969 50.839844 101.417969 50.53125 C 101.417969 50.21875 101.125 49.964844 100.769531 49.964844 Z M 107.917969 55.226562 C 107.84375 55.246094 107.730469 55.375 107.574219 55.605469 C 107.273438 56.050781 107.164062 56.621094 107.332031 56.871094 C 107.796875 57.5625 107.90625 57.429688 108.019531 56.054688 C 108.066406 55.457031 108.042969 55.191406 107.917969 55.226562 Z M 16.640625 61.851562 C 16.980469 61.851562 17.253906 62.089844 17.253906 62.382812 C 17.253906 62.675781 16.980469 63.074219 16.640625 63.265625 C 16.304688 63.457031 16.027344 63.21875 16.027344 62.734375 C 16.027344 62.246094 16.304688 61.851562 16.640625 61.851562 Z M 148.484375 64.332031 C 148.558594 64.332031 148.636719 64.347656 148.722656 64.398438 C 149.0625 64.589844 149.335938 64.988281 149.335938 65.28125 C 149.335938 65.574219 149.0625 65.8125 148.722656 65.8125 C 148.386719 65.8125 148.109375 65.414062 148.109375 64.929688 C 148.109375 64.566406 148.265625 64.339844 148.484375 64.332031 Z M 83.136719 65.074219 C 83.539062 65.054688 83.824219 65.117188 83.933594 65.28125 C 84.128906 65.574219 84.894531 65.820312 85.636719 65.832031 C 87.191406 65.851562 89.132812 67.054688 89.132812 67.996094 C 89.132812 68.351562 88.578125 68.644531 87.902344 68.644531 C 87.222656 68.644531 86.675781 69.019531 86.675781 69.492188 C 86.675781 69.957031 86.96875 70.339844 87.324219 70.339844 C 87.683594 70.339844 87.824219 70.570312 87.636719 70.847656 C 87.449219 71.128906 86.347656 71.15625 85.179688 70.914062 C 82.269531 70.308594 81.8125 71.609375 84.171875 73.78125 C 85.53125 75.035156 85.71875 75.429688 84.9375 75.417969 C 83.121094 75.386719 81.761719 74.285156 81.761719 72.839844 C 81.761719 72.070312 81.414062 71.355469 80.992188 71.257812 C 80.570312 71.160156 79.324219 70.808594 78.226562 70.476562 C 77.128906 70.144531 76.230469 70.054688 76.230469 70.28125 C 76.230469 70.722656 69.988281 72.703125 69.632812 72.371094 C 69.226562 72 74.570312 68.679688 75.09375 68.976562 C 75.382812 69.140625 75.617188 68.835938 75.617188 68.300781 C 75.617188 67.761719 75.792969 67.484375 76.007812 67.683594 C 76.222656 67.878906 77.121094 67.582031 78.003906 67.015625 C 79.6875 65.933594 81.933594 65.132812 83.136719 65.074219 Z M 21.394531 70.90625 C 21.820312 70.90625 22.167969 71.160156 22.167969 71.472656 C 22.167969 71.785156 21.777344 72.039062 21.292969 72.039062 C 20.8125 72.039062 20.328125 72.445312 20.21875 72.9375 C 20.109375 73.433594 19.828125 73.660156 19.59375 73.441406 C 19.015625 72.90625 20.433594 70.90625 21.394531 70.90625 Z M 77.316406 72.511719 C 77.554688 72.511719 77.789062 72.523438 78.023438 72.542969 C 79.261719 72.632812 78.445312 73.222656 76.746094 73.464844 C 75.957031 73.578125 74.757812 73.792969 74.082031 73.945312 C 73.40625 74.09375 72.527344 74.238281 72.128906 74.261719 C 71.730469 74.285156 71.03125 74.621094 70.578125 75.011719 C 69.5 75.933594 68.695312 76.042969 67.601562 75.414062 C 66.925781 75.027344 67.199219 74.8125 68.71875 74.53125 C 69.824219 74.324219 70.878906 73.929688 71.066406 73.65625 C 71.25 73.378906 71.671875 73.304688 72 73.492188 C 72.328125 73.679688 72.933594 73.582031 73.339844 73.273438 C 73.960938 72.808594 75.65625 72.496094 77.316406 72.511719 Z M 131.863281 73.171875 C 131.714844 73.171875 131.421875 73.425781 131.214844 73.738281 C 131.003906 74.046875 131.128906 74.304688 131.484375 74.304688 C 131.84375 74.304688 132.136719 74.046875 132.136719 73.738281 C 132.136719 73.425781 132.011719 73.171875 131.863281 73.171875 Z M 150.910156 74.871094 C 151.058594 74.871094 151.179688 75.125 151.179688 75.433594 C 151.179688 75.746094 150.886719 76 150.53125 76 C 150.171875 76 150.050781 75.746094 150.257812 75.433594 C 150.46875 75.125 150.761719 74.871094 150.910156 74.871094 Z M 46 79.996094 C 46.511719 79.996094 47.335938 81.183594 47.347656 82.085938 C 47.363281 83.132812 46.875 82.949219 46.101562 81.613281 C 45.722656 80.964844 45.589844 80.269531 45.804688 80.074219 C 45.863281 80.019531 45.929688 79.996094 46 79.996094 Z M 23.949219 80.351562 C 24.828125 80.371094 25.609375 80.511719 26.019531 80.785156 C 27.011719 81.453125 27.007812 81.570312 25.933594 82.710938 C 23.984375 84.78125 18.539062 83.839844 18.492188 81.425781 C 18.488281 81.140625 18.664062 81.074219 18.886719 81.277344 C 19.109375 81.484375 19.59375 81.433594 19.964844 81.167969 C 20.730469 80.617188 22.476562 80.320312 23.949219 80.351562 Z M 106.8125 80.628906 C 107.28125 80.625 107.941406 80.664062 108.792969 80.746094 C 110.648438 80.921875 112.648438 81.089844 113.238281 81.117188 C 113.824219 81.144531 115.132812 81.933594 116.148438 82.867188 C 117.914062 84.496094 117.957031 84.636719 117.082031 86.195312 C 116.402344 87.40625 116.324219 88.207031 116.78125 89.308594 C 117.535156 91.132812 117.535156 91.285156 116.816406 91.285156 C 116.503906 91.285156 116.070312 90.773438 115.855469 90.152344 C 115.640625 89.53125 115.21875 89.019531 114.914062 89.019531 C 114.609375 89.019531 114.519531 89.402344 114.710938 89.871094 C 115.246094 91.152344 112.882812 90.941406 111.554688 89.585938 C 110.226562 88.234375 108.175781 88.089844 108.175781 89.351562 C 108.175781 89.84375 108.503906 90.144531 108.90625 90.023438 C 110.566406 89.511719 112.914062 93.109375 114.34375 98.359375 C 114.769531 99.917969 115.351562 101.429688 115.636719 101.726562 C 115.925781 102.023438 116.164062 102.992188 116.164062 103.878906 C 116.164062 104.765625 116.582031 106.242188 117.097656 107.15625 C 117.796875 108.402344 117.9375 109.789062 117.660156 112.648438 C 117.34375 115.886719 116.984375 122.457031 116.820312 128.082031 C 116.796875 128.863281 116.128906 130.148438 115.332031 130.9375 C 114.539062 131.726562 113.703125 133.289062 113.476562 134.40625 C 112.933594 137.0625 110.421875 140.429688 106.792969 143.359375 C 103.605469 145.9375 102.910156 145.335938 105.453125 142.195312 C 107.578125 139.570312 109.546875 135.535156 109.058594 134.808594 C 108.8125 134.445312 108.097656 134.707031 107.191406 135.492188 C 106.382812 136.191406 105.71875 136.621094 105.71875 136.445312 C 105.71875 136.269531 106.714844 133.617188 107.929688 130.546875 C 109.144531 127.476562 110.523438 123.179688 110.996094 121 C 111.46875 118.820312 112.03125 116.65625 112.246094 116.191406 C 112.835938 114.910156 113.058594 113.066406 113.359375 106.851562 C 113.605469 101.671875 113.5 100.945312 112.09375 98.332031 C 110.269531 94.941406 108.652344 93.753906 107.539062 94.988281 C 106.953125 95.640625 106.972656 95.816406 107.640625 95.824219 C 108.105469 95.832031 109.234375 96.8125 110.148438 98.007812 C 111.785156 100.136719 111.8125 100.324219 111.609375 107.332031 C 111.496094 111.265625 111.140625 114.804688 110.816406 115.195312 C 110.492188 115.585938 109.855469 117.433594 109.40625 119.304688 C 108.957031 121.171875 108.296875 123.207031 107.945312 123.832031 C 106.746094 125.941406 103.953125 136.84375 104.484375 137.34375 C 105.257812 138.070312 103.882812 140.542969 101.484375 142.726562 L 99.386719 144.640625 L 99.746094 141.878906 C 99.945312 140.359375 100.816406 137.640625 101.683594 135.84375 C 102.550781 134.042969 103.261719 132.117188 103.261719 131.5625 C 103.261719 131.007812 103.804688 129.515625 104.472656 128.242188 C 105.136719 126.972656 105.851562 124.824219 106.054688 123.46875 L 106.429688 121 L 105.167969 122.417969 C 104.472656 123.195312 103.898438 124.269531 103.890625 124.800781 C 103.875 125.765625 102.148438 130.183594 100.492188 133.496094 C 99.382812 135.707031 98.117188 143.121094 98.632812 144.363281 C 98.917969 145.042969 97.730469 146.4375 94.386719 149.363281 C 91.835938 151.597656 89.746094 153.707031 89.746094 154.050781 C 89.746094 154.839844 86.882812 154.882812 86.363281 154.105469 C 85.820312 153.296875 84.816406 153.988281 85.199219 154.90625 C 85.535156 155.710938 83.957031 156.285156 82.308594 155.957031 C 81.765625 155.847656 80.960938 154.746094 80.515625 153.507812 C 80.074219 152.269531 79.410156 151.347656 79.042969 151.460938 C 78.238281 151.710938 78.542969 154.667969 79.484375 155.726562 C 80.027344 156.332031 79.867188 156.449219 78.714844 156.292969 C 77.773438 156.164062 76.847656 155.351562 76.074219 153.972656 C 74.792969 151.695312 74.113281 151.351562 73.550781 152.699219 C 73.355469 153.167969 73.433594 153.546875 73.722656 153.546875 C 74.007812 153.546875 74.382812 154.042969 74.554688 154.644531 C 74.828125 155.601562 74.714844 155.65625 73.707031 155.078125 C 73.066406 154.707031 72.546875 153.847656 72.546875 153.167969 C 72.546875 151.445312 71.476562 149.019531 70.71875 149.019531 C 69.53125 149.019531 70.03125 153.332031 71.410156 154.941406 C 72.488281 156.207031 72.574219 156.578125 71.878906 156.972656 C 70.433594 157.796875 67.488281 157.140625 66.320312 155.734375 C 64.496094 153.539062 63.828125 151.289062 64.886719 150.914062 C 66.0625 150.5 66.046875 149.585938 64.867188 149.585938 C 64.359375 149.585938 63.945312 149.21875 63.945312 148.769531 C 63.945312 146.859375 62.757812 147.519531 61.871094 149.921875 C 60.929688 152.460938 60.945312 152.574219 62.425781 154.582031 C 63.261719 155.714844 63.945312 156.792969 63.945312 156.980469 C 63.945312 157.167969 63.527344 157.320312 63.019531 157.320312 C 61.605469 157.320312 59.101562 153.929688 59.148438 152.074219 C 59.171875 151.171875 58.738281 149.050781 58.1875 147.359375 C 57.636719 145.667969 57.1875 143.734375 57.1875 143.0625 C 57.1875 142.390625 56.640625 141.382812 55.972656 140.824219 C 55.304688 140.269531 54.59375 139.335938 54.394531 138.75 C 53.769531 136.941406 48.980469 132.875 47.347656 132.761719 C 46.507812 132.707031 45.265625 132.074219 44.582031 131.359375 C 43.898438 130.644531 42.566406 129.6875 41.617188 129.230469 C 40.667969 128.777344 39.625 127.949219 39.300781 127.390625 C 38.976562 126.835938 38.449219 126.378906 38.125 126.378906 C 37.328125 126.378906 34.457031 124.039062 34.457031 123.386719 C 34.457031 123.097656 33.628906 121.898438 32.613281 120.71875 C 30.742188 118.542969 30.175781 115.902344 31.496094 115.496094 C 31.921875 115.363281 32.042969 114.851562 31.796875 114.253906 C 31.449219 113.421875 31.203125 113.363281 30.457031 113.929688 C 29.953125 114.316406 29.511719 114.410156 29.472656 114.136719 C 29.308594 112.949219 29.707031 110.789062 30.136719 110.53125 C 30.394531 110.375 30.800781 109.671875 31.035156 108.972656 C 31.648438 107.164062 30.390625 107.367188 29.277344 109.257812 C 28.390625 110.761719 28.371094 110.703125 28.59375 107.480469 C 28.75 105.195312 29.246094 103.621094 30.160156 102.480469 C 31.640625 100.632812 31.335938 99.742188 29.566406 100.761719 C 28.273438 101.507812 27.699219 100.753906 27.699219 98.3125 C 27.699219 96.566406 28.363281 96.582031 30.039062 98.359375 C 30.773438 99.136719 31.914062 99.773438 32.574219 99.773438 C 34.472656 99.773438 34.601562 100.707031 32.925781 102.371094 C 32.070312 103.21875 31.503906 104.035156 31.667969 104.183594 C 32.125 104.609375 35.933594 103.042969 36.488281 102.203125 C 36.765625 101.789062 37.246094 101.597656 37.566406 101.777344 C 38.3125 102.203125 38.316406 106.402344 37.574219 106.824219 C 37.257812 107.003906 36.667969 108.101562 36.253906 109.265625 C 35.84375 110.425781 35.292969 111.507812 35.03125 111.667969 C 34.25 112.140625 32.777344 119.789062 33.34375 120.421875 C 33.628906 120.742188 34.410156 121.613281 35.082031 122.363281 C 35.75 123.109375 36.300781 123.890625 36.300781 124.097656 C 36.300781 124.785156 41.183594 126.882812 41.542969 126.347656 C 42.019531 125.640625 46.609375 127.839844 48.855469 129.855469 C 49.847656 130.746094 51.148438 131.472656 51.738281 131.472656 C 52.328125 131.472656 52.992188 131.742188 53.210938 132.066406 C 53.484375 132.472656 53.886719 132.449219 54.484375 131.992188 C 55.148438 131.484375 55.191406 131.136719 54.664062 130.550781 C 54.109375 129.933594 54.238281 129.773438 55.289062 129.773438 C 56.015625 129.773438 56.746094 129.457031 56.90625 129.0625 C 57.105469 128.589844 58.152344 128.421875 60.050781 128.5625 L 62.894531 128.769531 L 62.558594 126.441406 C 62.371094 125.164062 62.449219 124.113281 62.734375 124.113281 C 63.351562 124.113281 64.214844 126.226562 64.234375 127.792969 C 64.246094 128.417969 64.597656 128.902344 65.019531 128.871094 C 65.441406 128.839844 66.371094 128.773438 67.089844 128.726562 C 68.128906 128.660156 68.328125 128.359375 68.09375 127.226562 C 67.777344 125.703125 68.671875 125.265625 69.25 126.660156 C 69.445312 127.128906 70.085938 127.511719 70.671875 127.511719 C 71.597656 127.511719 73.773438 129.132812 73.773438 129.820312 C 73.773438 129.953125 73.078125 130.097656 72.226562 130.140625 C 70.308594 130.242188 65.171875 131.613281 65.171875 132.023438 C 65.171875 132.1875 64.34375 132.320312 63.332031 132.320312 C 62.316406 132.320312 61.488281 132.148438 61.488281 131.9375 C 61.488281 131.308594 58.570312 131.78125 57.53125 132.578125 C 56.390625 133.449219 56.289062 134.945312 57.300781 135.878906 C 58.652344 137.125 57.191406 137.335938 55.761719 136.097656 C 53.296875 133.964844 52.71875 134.75 54.796875 137.417969 C 55.886719 138.816406 57.011719 139.964844 57.292969 139.964844 C 57.570312 139.964844 57.800781 140.347656 57.800781 140.8125 C 57.800781 141.28125 58.007812 141.632812 58.261719 141.59375 C 58.515625 141.558594 59.277344 141.578125 59.953125 141.636719 C 61.179688 141.742188 61.179688 141.742188 59.953125 142.226562 C 59.101562 142.5625 59.011719 142.726562 59.660156 142.753906 C 60.175781 142.777344 61.078125 143.308594 61.664062 143.941406 C 62.585938 144.929688 62.921875 144.992188 64.105469 144.382812 C 64.863281 143.992188 66.148438 143.613281 66.960938 143.542969 C 67.777344 143.472656 68.605469 143.175781 68.804688 142.890625 C 69.003906 142.601562 71.226562 142.175781 73.746094 141.945312 C 76.261719 141.710938 79.363281 141.023438 80.632812 140.414062 C 83.207031 139.179688 86.675781 136.140625 86.675781 135.121094 C 86.675781 134.757812 87.433594 133.546875 88.363281 132.429688 C 89.292969 131.316406 90.84375 129.355469 91.808594 128.074219 C 93.78125 125.460938 94.636719 125.386719 93.195312 127.953125 C 92.324219 129.503906 92.410156 130.339844 93.441406 130.339844 C 93.671875 130.339844 94.375 129.195312 95.003906 127.792969 C 95.628906 126.394531 96.363281 125.246094 96.628906 125.246094 C 96.898438 125.246094 97.128906 124.929688 97.140625 124.539062 C 97.152344 124.148438 97.8125 122.558594 98.605469 121 L 100.046875 118.171875 L 98.507812 117.984375 C 96.605469 117.753906 95.644531 118.585938 95.550781 120.539062 C 95.503906 121.546875 95.101562 122.089844 94.320312 122.195312 C 93.683594 122.28125 92.644531 123.003906 92.015625 123.800781 C 91.382812 124.601562 90.574219 125.085938 90.210938 124.878906 C 89.824219 124.660156 89.734375 124.773438 89.992188 125.15625 C 90.582031 126.035156 87.457031 129.714844 85.789062 130.101562 C 85.054688 130.269531 83.660156 131.179688 82.695312 132.121094 C 81.449219 133.339844 80.53125 133.761719 79.511719 133.582031 C 78.726562 133.441406 77.773438 133.671875 77.394531 134.09375 C 77.015625 134.511719 76.496094 134.738281 76.234375 134.589844 C 75.976562 134.441406 74.972656 134.679688 74 135.117188 C 73.03125 135.554688 71.269531 135.984375 70.085938 136.070312 C 68.90625 136.15625 67.605469 136.449219 67.203125 136.722656 C 66.796875 137 65.65625 137.339844 64.667969 137.484375 C 62.636719 137.777344 61.683594 136.558594 62.695312 134.960938 C 63.246094 134.097656 63.292969 134.101562 63.3125 135.011719 C 63.335938 136.316406 63.875 136.261719 65.59375 134.769531 C 66.375 134.09375 67.015625 133.777344 67.015625 134.0625 C 67.015625 134.351562 68.261719 134.585938 69.789062 134.585938 C 71.886719 134.585938 72.644531 134.347656 72.902344 133.597656 C 73.171875 132.8125 73.488281 132.726562 74.429688 133.191406 C 75.160156 133.550781 75.617188 133.566406 75.617188 133.230469 C 75.617188 132.933594 76.378906 132.324219 77.304688 131.878906 C 82.785156 129.253906 84.480469 128.195312 85.648438 126.667969 C 86.363281 125.730469 87.167969 124.707031 87.4375 124.398438 C 87.703125 124.085938 88.933594 122.558594 90.167969 121 C 91.402344 119.445312 93.226562 117.535156 94.21875 116.753906 C 96.113281 115.273438 98.9375 112.65625 101.257812 110.238281 C 102.011719 109.449219 102.804688 108.175781 103.011719 107.402344 C 103.222656 106.632812 103.632812 106 103.925781 106 C 104.757812 106 105.597656 109.570312 105.015625 110.632812 C 104.308594 111.914062 104.351562 113.359375 105.09375 113.359375 C 105.425781 113.359375 105.882812 112.660156 106.105469 111.804688 C 106.332031 110.945312 106.890625 109.742188 107.347656 109.128906 C 107.800781 108.515625 108.175781 106.777344 108.175781 105.265625 C 108.175781 102.96875 107.875 102.238281 106.34375 100.828125 C 104.707031 99.320312 104.21875 99.171875 101.886719 99.472656 C 100.449219 99.660156 98.347656 99.898438 97.222656 100.007812 C 96.101562 100.113281 94.871094 100.488281 94.492188 100.835938 C 94.113281 101.1875 93.226562 101.472656 92.527344 101.472656 C 91.824219 101.472656 90.703125 101.820312 90.035156 102.242188 C 88.027344 103.523438 81.816406 104.21875 73.421875 104.101562 C 66.125 104 65.320312 103.882812 63.515625 102.648438 C 61.664062 101.382812 61.464844 101.355469 60.046875 102.210938 C 58.628906 103.066406 58.523438 103.054688 58.21875 101.976562 C 58.023438 101.277344 58.234375 100.742188 58.769531 100.589844 C 59.25 100.453125 60.058594 100.222656 60.566406 100.074219 C 61.074219 99.929688 61.488281 99.386719 61.488281 98.867188 C 61.488281 97.375 56.464844 98.269531 53.203125 100.335938 C 50.671875 101.941406 49.234375 103.957031 50.078125 104.734375 C 50.28125 104.921875 49.589844 105.894531 48.539062 106.894531 C 47.480469 107.902344 46.722656 109.160156 46.839844 109.71875 C 47.011719 110.535156 47.628906 110.230469 50.121094 108.097656 C 53.296875 105.378906 54.730469 104.816406 54.730469 106.285156 C 54.730469 106.75 54.519531 107.132812 54.261719 107.132812 C 53.523438 107.132812 52.191406 109.386719 52.585938 109.972656 C 52.78125 110.261719 53.871094 109.617188 55.011719 108.535156 C 56.152344 107.453125 57.5 106.566406 58.007812 106.566406 C 58.511719 106.566406 59.054688 106.25 59.207031 105.859375 C 59.425781 105.316406 59.667969 105.308594 60.257812 105.816406 C 61.261719 106.6875 60.527344 110.53125 59.359375 110.53125 C 58.894531 110.53125 58.375 110.210938 58.199219 109.820312 C 57.960938 109.296875 57.671875 109.347656 57.070312 110.023438 C 56.625 110.523438 55.644531 111.109375 54.894531 111.328125 C 54.144531 111.550781 53.003906 112.351562 52.355469 113.109375 C 51.703125 113.871094 50.867188 114.492188 50.492188 114.492188 C 50.121094 114.492188 49.816406 114.785156 49.816406 115.144531 C 49.816406 115.503906 49.171875 116.585938 48.386719 117.550781 C 47.601562 118.515625 46.785156 119.742188 46.570312 120.277344 C 46.257812 121.058594 45.597656 121.210938 43.234375 121.039062 C 41.617188 120.921875 40.289062 120.609375 40.28125 120.347656 C 40.269531 119.570312 39.34375 118.453125 38.722656 118.453125 C 37.917969 118.453125 37.996094 120.355469 38.828125 121.121094 C 40.074219 122.273438 39.160156 123.066406 37.683594 122.113281 C 36.445312 121.3125 36.335938 120.851562 36.546875 117.382812 C 36.675781 115.269531 37.058594 113.054688 37.394531 112.457031 C 37.730469 111.863281 38.519531 110.371094 39.148438 109.144531 C 39.777344 107.914062 40.84375 106.304688 41.519531 105.5625 C 43.429688 103.472656 43.785156 102.148438 42.535156 101.78125 C 39.839844 100.996094 38.871094 92.050781 41.160156 89.089844 C 42.492188 87.363281 45.738281 86.28125 47.601562 86.9375 C 48.820312 87.367188 49.320312 86.722656 48.484375 85.792969 C 47.984375 85.234375 47.96875 84.832031 48.4375 84.402344 C 49.519531 83.40625 50.375 84.375 49.898438 86.054688 C 49.414062 87.761719 49.660156 90.152344 50.320312 90.152344 C 50.898438 90.152344 53.503906 85.53125 53.503906 84.511719 C 53.503906 83.828125 53.683594 83.847656 54.523438 84.625 C 55.316406 85.355469 55.386719 85.746094 54.832031 86.359375 C 53.882812 87.414062 55.855469 89.589844 57.535156 89.339844 C 58.1875 89.242188 59 89.355469 59.335938 89.585938 C 59.675781 89.816406 61.058594 90.324219 62.410156 90.71875 C 63.761719 91.109375 65.140625 91.628906 65.480469 91.871094 C 65.816406 92.113281 67.0625 92.566406 68.246094 92.878906 L 70.394531 93.445312 L 67.917969 93.496094 C 66.554688 93.523438 63.84375 93.03125 61.894531 92.402344 C 59.945312 91.769531 58.066406 91.414062 57.714844 91.613281 C 57.367188 91.8125 56.167969 91.164062 55.050781 90.167969 C 53.699219 88.957031 52.878906 88.570312 52.589844 89.003906 C 52.347656 89.363281 52.59375 90.105469 53.132812 90.65625 C 53.671875 91.207031 54.117188 91.953125 54.117188 92.320312 C 54.117188 92.683594 54.507812 92.984375 54.992188 92.984375 C 55.476562 92.984375 56.3125 93.386719 56.847656 93.882812 C 57.613281 94.589844 59.328125 94.804688 64.726562 94.875 C 71.550781 94.960938 71.621094 94.949219 71.433594 93.691406 C 71.304688 92.847656 71.558594 92.417969 72.179688 92.417969 C 72.695312 92.417969 73.414062 91.90625 73.773438 91.285156 C 74.136719 90.660156 75.042969 90.148438 75.792969 90.148438 C 76.539062 90.148438 78.78125 89.246094 80.769531 88.140625 C 84.664062 85.976562 87.902344 85.058594 87.902344 86.121094 C 87.902344 86.46875 87.484375 86.757812 86.972656 86.757812 C 85.898438 86.757812 83.5 87.910156 82.859375 88.734375 C 82.621094 89.042969 83.015625 89.496094 83.734375 89.742188 C 84.480469 89.996094 85.203125 89.949219 85.414062 89.632812 C 85.617188 89.328125 86.664062 88.9375 87.734375 88.765625 C 88.804688 88.589844 90.324219 88.222656 91.109375 87.949219 C 91.894531 87.671875 93.34375 87.53125 94.332031 87.628906 C 95.316406 87.730469 96.609375 87.574219 97.199219 87.28125 C 97.839844 86.964844 98.410156 86.960938 98.617188 87.265625 C 99.09375 87.980469 101.523438 87.324219 101.246094 86.558594 C 100.929688 85.683594 97.761719 85.179688 93.925781 85.394531 L 90.667969 85.574219 L 94.046875 84.417969 C 95.90625 83.78125 98.53125 83.148438 99.882812 83.011719 C 101.234375 82.875 102.617188 82.730469 102.953125 82.6875 C 103.292969 82.640625 105.046875 82.789062 106.855469 83.011719 C 109.417969 83.324219 110.085938 83.253906 109.878906 82.679688 C 109.734375 82.273438 108.945312 81.859375 108.128906 81.753906 C 107.308594 81.652344 106.363281 81.308594 106.027344 80.996094 C 105.769531 80.757812 106.027344 80.632812 106.8125 80.628906 Z M 28.324219 82.300781 C 28.636719 82.300781 28.996094 82.464844 29.503906 82.757812 C 30.203125 83.167969 29.789062 83.769531 27.507812 85.648438 C 25.921875 86.953125 24.628906 88.375 24.628906 88.804688 C 24.628906 89.632812 23.878906 89.839844 23.195312 89.207031 C 22.519531 88.585938 22.730469 87.226562 23.4375 87.628906 C 23.800781 87.832031 24.246094 87.46875 24.433594 86.8125 C 24.617188 86.160156 24.953125 85.625 25.179688 85.625 C 25.40625 85.625 26.082031 84.859375 26.679688 83.925781 C 27.414062 82.78125 27.804688 82.304688 28.324219 82.300781 Z M 9.628906 84.738281 C 9.855469 84.808594 9.691406 85.453125 9.023438 86.644531 C 8.503906 87.574219 7.890625 89.386719 7.667969 90.671875 C 7.199219 93.386719 6.488281 94.066406 5.980469 92.285156 C 5.476562 90.503906 6.121094 88.460938 7.875 86.292969 C 8.78125 85.175781 9.402344 84.667969 9.628906 84.738281 Z M 113.039062 84.816406 C 111.855469 84.800781 109.859375 85.769531 109.554688 86.613281 C 109.398438 87.058594 109.894531 87.320312 110.890625 87.320312 C 111.761719 87.320312 112.476562 87.074219 112.476562 86.773438 C 112.476562 86.472656 112.890625 86.371094 113.398438 86.550781 C 113.964844 86.75 114.320312 86.550781 114.320312 86.027344 C 114.320312 85.558594 113.945312 85.046875 113.484375 84.882812 C 113.359375 84.839844 113.207031 84.816406 113.039062 84.816406 Z M 32.796875 85.421875 C 32.894531 85.425781 32.984375 85.441406 33.0625 85.46875 C 33.933594 85.777344 33.902344 85.894531 32.816406 86.339844 C 31.664062 86.8125 29.542969 90.023438 29.542969 91.292969 C 29.542969 91.585938 30.699219 92.371094 32.117188 93.039062 C 34.140625 93.988281 34.929688 94.113281 35.796875 93.617188 C 37.441406 92.667969 38.460938 92.796875 37.527344 93.832031 C 37.039062 94.375 35.679688 94.679688 33.765625 94.679688 C 32.117188 94.679688 30.769531 94.933594 30.769531 95.246094 C 30.769531 95.558594 30.550781 95.8125 30.277344 95.8125 C 29.410156 95.8125 28.3125 94.484375 28.3125 93.433594 C 28.3125 92.875 27.914062 92.417969 27.425781 92.417969 C 24.925781 92.417969 26.0625 89.582031 29.628906 86.925781 C 30.964844 85.929688 32.109375 85.390625 32.796875 85.421875 Z M 61.125 87.402344 C 61.375 87.394531 61.6875 87.402344 62.058594 87.429688 C 63.050781 87.5 63.695312 87.800781 63.496094 88.101562 C 63.285156 88.417969 63.570312 88.488281 64.171875 88.277344 C 64.820312 88.046875 65.351562 88.226562 65.570312 88.746094 C 65.761719 89.207031 66.441406 89.585938 67.082031 89.585938 C 67.722656 89.585938 68.246094 89.839844 68.246094 90.152344 C 68.246094 90.464844 68.175781 90.691406 68.089844 90.65625 C 68.007812 90.621094 66.210938 90.050781 64.097656 89.394531 C 60.527344 88.277344 59.367188 87.453125 61.125 87.402344 Z M 157.359375 94.113281 C 157 94.113281 156.710938 94.371094 156.710938 94.679688 C 156.710938 94.992188 156.832031 95.246094 156.980469 95.246094 C 157.128906 95.246094 157.421875 94.992188 157.628906 94.679688 C 157.839844 94.371094 157.71875 94.113281 157.359375 94.113281 Z M 99.414062 104.394531 C 100.367188 104.371094 100.804688 104.59375 100.804688 105.054688 C 100.804688 105.847656 97.921875 108.601562 97.222656 108.472656 C 96.996094 108.433594 96.171875 108.625 95.390625 108.898438 C 94.605469 109.171875 93.636719 109.398438 93.230469 109.398438 C 92.824219 109.398438 91.527344 110 90.351562 110.738281 C 89.171875 111.472656 87.316406 112.257812 86.222656 112.476562 C 85.128906 112.699219 84.074219 113.117188 83.882812 113.402344 C 83.6875 113.691406 82.746094 113.925781 81.789062 113.925781 C 80.808594 113.925781 79.894531 114.296875 79.695312 114.773438 C 79.265625 115.808594 76.183594 115.902344 75.046875 114.917969 C 74.375 114.335938 74.300781 114.484375 74.628906 115.765625 C 75 117.222656 74.898438 117.320312 73 117.320312 C 70.035156 117.320312 67.40625 115.476562 65.746094 112.226562 C 65.347656 111.449219 64.679688 110.175781 64.261719 109.398438 C 63.839844 108.621094 63.308594 107.261719 63.082031 106.378906 C 62.640625 104.675781 63.09375 104.691406 65.328125 106.457031 C 65.917969 106.925781 66.402344 107.109375 66.402344 106.867188 C 66.402344 106.625 66.820312 106.746094 67.328125 107.136719 C 67.960938 107.621094 70.71875 107.84375 76.082031 107.84375 C 84.171875 107.84375 86.898438 107.605469 90.054688 106.632812 C 94.820312 105.164062 97.828125 104.433594 99.414062 104.394531 Z M 63.542969 113.097656 C 63.859375 113.128906 64.226562 113.464844 64.886719 114.175781 C 65.628906 114.972656 66.550781 115.625 66.933594 115.625 C 67.316406 115.625 67.628906 115.859375 67.628906 116.148438 C 67.628906 116.4375 68.046875 117.058594 68.554688 117.523438 C 69.375 118.28125 69.289062 118.492188 67.785156 119.449219 C 64.675781 121.421875 62.226562 122.082031 61.132812 121.246094 C 60.351562 120.648438 60.070312 120.644531 59.679688 121.230469 C 59.160156 122.003906 55.34375 122.480469 55.34375 121.773438 C 55.34375 121.453125 57.1875 118.222656 58.136719 116.878906 C 58.195312 116.792969 59.144531 117.492188 60.238281 118.4375 C 61.335938 119.378906 62.753906 120.152344 63.394531 120.152344 C 64.59375 120.152344 64.910156 119.53125 64.097656 118.785156 C 63.84375 118.550781 63.617188 118.191406 63.59375 117.980469 C 63.570312 117.773438 63.183594 116.914062 62.734375 116.066406 C 62.0625 114.792969 62.058594 114.371094 62.730469 113.628906 C 63 113.324219 63.203125 113.144531 63.410156 113.105469 C 63.457031 113.097656 63.5 113.09375 63.542969 113.097656 Z M 150.910156 114.492188 C 151.058594 114.492188 151.179688 114.746094 151.179688 115.058594 C 151.179688 115.371094 150.886719 115.625 150.53125 115.625 C 150.171875 115.625 150.050781 115.371094 150.257812 115.058594 C 150.46875 114.746094 150.761719 114.492188 150.910156 114.492188 Z M 105.695312 114.515625 C 105.265625 114.632812 104.625 115.6875 104.097656 117.585938 C 103.683594 119.089844 103.109375 120.476562 102.824219 120.660156 C 102.539062 120.847656 101.796875 122.148438 101.175781 123.546875 C 100.554688 124.949219 99.5 127.0625 98.835938 128.242188 C 98.167969 129.425781 97.777344 130.761719 97.964844 131.214844 C 98.414062 132.296875 99.574219 132.277344 99.574219 131.191406 C 99.574219 130.722656 99.785156 130.339844 100.039062 130.339844 C 100.296875 130.339844 100.859375 129.511719 101.296875 128.5 C 102.105469 126.621094 104.214844 122.289062 105.117188 120.660156 C 105.390625 120.160156 105.816406 118.535156 106.054688 117.050781 C 106.355469 115.210938 106.128906 114.394531 105.695312 114.515625 Z M 87.410156 115.484375 C 87.753906 115.476562 88.230469 115.65625 88.796875 116.046875 C 89.757812 116.714844 90 117.175781 89.527344 117.453125 C 88.390625 118.128906 87.445312 117.953125 87.046875 116.988281 C 86.652344 116.039062 86.84375 115.5 87.410156 115.484375 Z M 82.792969 116.644531 C 84.144531 116.734375 85.699219 118.449219 86.308594 120.859375 C 86.738281 122.574219 86.03125 122.898438 84.808594 121.539062 C 84.375 121.058594 83.6875 120.78125 83.285156 120.925781 C 82.527344 121.195312 81 117.644531 81.625 117.070312 C 81.898438 116.816406 82.203125 116.683594 82.527344 116.648438 C 82.617188 116.640625 82.703125 116.640625 82.792969 116.644531 Z M 79.40625 118.292969 C 80.15625 118.351562 80.53125 118.882812 80.53125 119.886719 C 80.53125 120.625 80.957031 121.445312 81.476562 121.714844 C 82.050781 122.011719 82.269531 122.578125 82.027344 123.160156 C 81.527344 124.355469 80.777344 124.386719 80.292969 123.230469 C 79.730469 121.871094 78.816406 122.773438 79.144531 124.359375 C 79.335938 125.289062 78.945312 126.34375 77.988281 127.457031 C 77.191406 128.386719 76.253906 129.160156 75.902344 129.175781 C 74.757812 129.234375 73.304688 126.148438 73.316406 123.691406 C 73.332031 120.648438 74.246094 120.558594 74.765625 123.546875 C 74.980469 124.792969 75.34375 125.8125 75.574219 125.8125 C 77.121094 125.8125 78.167969 122.320312 76.84375 121.566406 C 75.75 120.941406 76.207031 119.316406 77.652344 118.699219 C 78.371094 118.394531 78.953125 118.257812 79.40625 118.292969 Z M 153.6875 119.796875 C 153.960938 119.808594 154.207031 119.886719 154.378906 120.042969 C 155.03125 120.644531 153.921875 123.546875 153.039062 123.546875 C 152.691406 123.546875 152.410156 123.964844 152.410156 124.472656 C 152.410156 125.832031 145.203125 132.15625 143.933594 131.910156 C 143.355469 131.796875 142.550781 132.222656 142.140625 132.863281 C 141.714844 133.523438 141.382812 133.695312 141.371094 133.257812 C 141.34375 132.246094 143.558594 129.410156 146.367188 126.859375 C 147.621094 125.726562 148.476562 124.644531 148.273438 124.453125 C 148.070312 124.265625 148.25 124.113281 148.675781 124.113281 C 149.570312 124.113281 151.742188 121.875 151.773438 120.921875 C 151.792969 120.277344 152.867188 119.753906 153.6875 119.796875 Z M 70.832031 121.53125 C 71.125 121.535156 71.316406 122.183594 71.316406 123.230469 C 71.316406 124.339844 71.222656 125.246094 71.113281 125.246094 C 70.027344 125.246094 69.683594 122.148438 70.703125 121.566406 C 70.746094 121.542969 70.792969 121.527344 70.832031 121.53125 Z M 138.316406 122.984375 C 137.957031 122.984375 137.664062 123.238281 137.664062 123.546875 C 137.664062 123.859375 137.785156 124.113281 137.9375 124.113281 C 138.085938 124.113281 138.378906 123.859375 138.585938 123.546875 C 138.796875 123.238281 138.671875 122.984375 138.316406 122.984375 Z M 55.4375 124.6875 C 55.9375 124.703125 56.550781 125.109375 56.75 125.8125 C 56.925781 126.433594 56.867188 127.0625 56.613281 127.203125 C 56.003906 127.550781 54.730469 126.34375 54.730469 125.414062 C 54.730469 124.902344 55.046875 124.675781 55.4375 124.6875 Z M 61.269531 133.789062 L 61.226562 135.742188 C 61.1875 137.378906 60.957031 137.695312 59.796875 137.695312 C 58.035156 137.695312 58.046875 136.992188 59.84375 135.207031 Z M 147.96875 136.046875 C 148.117188 136.046875 148.269531 136.058594 148.421875 136.085938 C 149.328125 136.25 149.167969 136.585938 147.460938 138.125 C 146.335938 139.136719 145.195312 139.964844 144.921875 139.964844 C 144.648438 139.964844 143.90625 140.410156 143.273438 140.953125 C 139.777344 143.972656 138.328125 145.058594 137.816406 145.058594 C 137.5 145.058594 136.742188 145.566406 136.128906 146.191406 C 135.515625 146.8125 134.632812 147.320312 134.164062 147.320312 C 133.695312 147.320312 132.71875 147.832031 131.996094 148.453125 C 130.421875 149.804688 129.679688 149.894531 129.679688 148.738281 C 129.679688 148.269531 129.90625 147.886719 130.183594 147.886719 C 130.460938 147.886719 131.835938 146.980469 133.246094 145.867188 C 134.652344 144.757812 136.066406 144 136.386719 144.179688 C 136.703125 144.363281 137.140625 144.25 137.351562 143.933594 C 137.5625 143.617188 137.472656 143.359375 137.148438 143.359375 C 136.179688 143.359375 139.664062 140.242188 141.65625 139.320312 C 144.625 137.953125 146.542969 136.882812 146.953125 136.371094 C 147.109375 136.171875 147.519531 136.050781 147.96875 136.046875 Z M 151.761719 139.457031 C 151.855469 139.484375 151.570312 139.785156 150.933594 140.445312 C 149.632812 141.792969 149.335938 141.917969 149.335938 141.113281 C 149.335938 140.8125 149.960938 140.265625 150.71875 139.898438 C 151.234375 139.648438 151.558594 139.496094 151.695312 139.460938 C 151.726562 139.453125 151.746094 139.453125 151.761719 139.457031 Z M 33.957031 144.226562 C 34.96875 144.273438 36.300781 145.480469 36.300781 146.511719 C 36.300781 147.539062 36.308594 147.542969 34.332031 145.9375 C 33.074219 144.917969 32.882812 144.515625 33.546875 144.28125 C 33.671875 144.238281 33.8125 144.222656 33.957031 144.226562 Z M 143.84375 145.625 C 144.160156 145.625 144.421875 145.878906 144.421875 146.191406 C 144.421875 146.5 143.992188 146.757812 143.464844 146.757812 C 142.9375 146.757812 142.679688 146.5 142.886719 146.191406 C 143.09375 145.878906 143.527344 145.625 143.84375 145.625 Z M 142.589844 147.433594 C 142.964844 147.433594 142.972656 147.769531 142.382812 148.472656 C 141.246094 149.832031 137.128906 151.859375 136.722656 151.253906 C 136.527344 150.960938 136.648438 150.71875 136.992188 150.71875 C 137.339844 150.71875 138.59375 149.929688 139.785156 148.96875 C 141.015625 147.972656 142.109375 147.429688 142.589844 147.433594 Z M 40.90625 149.789062 C 41.75 149.742188 42.441406 149.933594 42.441406 150.210938 C 42.441406 150.492188 41.75 150.71875 40.90625 150.71875 C 38.90625 150.71875 38.90625 149.894531 40.90625 149.789062 Z M 117.734375 153.941406 C 118.511719 153.933594 118.542969 154.265625 117.820312 154.933594 C 117.414062 155.308594 116.183594 155.78125 115.085938 155.984375 C 112.117188 156.53125 112.515625 155.054688 115.535156 154.3125 C 116.535156 154.066406 117.269531 153.941406 117.734375 153.941406 Z M 57.488281 156.109375 C 57.871094 156.132812 58.1875 156.394531 58.546875 156.929688 C 59.023438 157.632812 59.984375 158.078125 61.019531 158.078125 C 61.953125 158.078125 62.714844 158.347656 62.714844 158.675781 C 62.714844 159.003906 62.941406 159.148438 63.21875 158.988281 C 63.492188 158.832031 64.804688 159.0625 66.136719 159.496094 C 67.464844 159.933594 68.414062 160.320312 68.246094 160.355469 C 66.230469 160.769531 61.488281 160.648438 61.488281 160.179688 C 61.488281 159.851562 61.296875 159.761719 61.070312 159.972656 C 60.839844 160.183594 59.871094 159.667969 58.914062 158.824219 C 57.695312 157.746094 56.984375 157.46875 56.53125 157.890625 C 56.074219 158.3125 56.121094 158.722656 56.695312 159.273438 C 57.144531 159.703125 57.996094 160.757812 58.589844 161.613281 C 59.792969 163.347656 59.222656 163.71875 57.71875 162.179688 C 57.183594 161.636719 56.226562 160.753906 55.585938 160.21875 C 54.945312 159.683594 53.734375 158.597656 52.894531 157.808594 L 51.367188 156.367188 L 53.507812 156.601562 C 54.6875 156.726562 56.128906 156.59375 56.710938 156.308594 C 57.007812 156.160156 57.261719 156.09375 57.488281 156.109375 Z M 48.175781 156.765625 L 49.621094 158.3125 C 51.207031 160.011719 51.027344 160.90625 49.097656 160.90625 C 47.96875 160.90625 47.882812 161.132812 48.277344 163.03125 C 48.519531 164.195312 48.773438 165.40625 48.835938 165.71875 C 48.898438 166.03125 49.285156 166.839844 49.691406 167.519531 C 50.097656 168.199219 50.429688 169.027344 50.429688 169.359375 C 50.429688 169.691406 50.152344 169.964844 49.816406 169.964844 C 49.476562 169.964844 49.199219 169.582031 49.199219 169.113281 C 49.199219 168.648438 48.90625 168.265625 48.550781 168.265625 C 48.191406 168.265625 48.050781 168.039062 48.234375 167.765625 C 48.683594 167.097656 47.386719 163.738281 46.683594 163.738281 C 45.796875 163.738281 46.042969 162.5 47.152344 161.367188 C 47.714844 160.792969 48.175781 159.527344 48.175781 158.546875 Z M 69.234375 159.96875 C 69.308594 159.980469 69.390625 160.007812 69.472656 160.058594 C 69.8125 160.25 70.089844 160.519531 70.089844 160.65625 C 70.089844 160.792969 69.8125 160.90625 69.472656 160.90625 C 69.136719 160.90625 68.859375 160.636719 68.859375 160.308594 C 68.859375 160.058594 69.015625 159.933594 69.234375 159.96875 Z M 50.691406 161.078125 C 51.074219 161.042969 52.6875 162.234375 54.433594 163.855469 C 56.949219 166.195312 57.714844 167.273438 57.417969 168.058594 C 57.058594 169.015625 57.113281 169.007812 58.007812 167.984375 C 58.5625 167.34375 59 167.160156 59.011719 167.558594 C 59.023438 167.945312 59.460938 168.265625 59.984375 168.265625 C 61.253906 168.265625 65.277344 170.808594 64.761719 171.285156 C 64.535156 171.492188 64.054688 171.625 63.6875 171.585938 C 61.359375 171.316406 60.257812 170.941406 60.257812 170.421875 C 60.257812 170.050781 59.90625 170.09375 59.335938 170.53125 C 58.582031 171.105469 58.414062 171.070312 58.414062 170.332031 C 58.414062 169.796875 58.070312 169.554688 57.5625 169.734375 C 56.496094 170.113281 52.773438 166.550781 53.183594 165.546875 C 53.351562 165.140625 53.214844 164.964844 52.886719 165.152344 C 52.175781 165.554688 50.011719 161.667969 50.628906 161.101562 C 50.644531 161.085938 50.664062 161.078125 50.691406 161.078125 Z M 93.757812 167.492188 C 93.941406 167.5 94.144531 167.523438 94.355469 167.558594 C 95.199219 167.707031 95.890625 167.929688 95.890625 168.046875 C 95.890625 168.167969 95.199219 168.265625 94.355469 168.265625 C 93.507812 168.265625 92.816406 168.046875 92.816406 167.777344 C 92.816406 167.578125 93.207031 167.472656 93.757812 167.492188 Z M 72.546875 168.265625 C 72.882812 168.265625 73.160156 168.519531 73.160156 168.832031 C 73.160156 169.144531 72.882812 169.398438 72.546875 169.398438 C 72.207031 169.398438 71.929688 169.144531 71.929688 168.832031 C 71.929688 168.519531 72.207031 168.265625 72.546875 168.265625 Z M 81.90625 172.664062 C 82.417969 172.671875 82.914062 172.714844 83.296875 172.800781 C 83.632812 172.878906 85.777344 172.921875 88.058594 172.898438 C 90.339844 172.871094 92.203125 173.078125 92.203125 173.351562 C 92.203125 173.625 91.445312 173.851562 90.515625 173.84375 C 89.585938 173.839844 87.511719 173.96875 85.90625 174.128906 C 83.890625 174.332031 82.984375 174.210938 82.980469 173.746094 C 82.972656 173.300781 82.816406 173.277344 82.519531 173.667969 C 82.019531 174.320312 79.941406 174.105469 79.027344 173.304688 C 78.621094 172.949219 80.363281 172.644531 81.90625 172.664062 Z M 95.988281 172.769531 C 96.433594 172.75 96.683594 172.8125 96.453125 172.996094 C 96.3125 173.109375 95.367188 173.371094 94.355469 173.578125 C 93.007812 173.855469 92.757812 173.804688 93.433594 173.386719 C 93.953125 173.0625 95.242188 172.800781 95.988281 172.769531 Z M 95.988281 172.769531 "/>
</g>
</svg>
