<?xml version="1.0" standalone="no"?>
<!DOCTYPE svg PUBLIC "-//W3C//DTD SVG 20010904//EN"
 "http://www.w3.org/TR/2001/REC-SVG-20010904/DTD/svg10.dtd">
<svg version="1.0" xmlns="http://www.w3.org/2000/svg"
 width="217.000000pt" height="232.000000pt" viewBox="0 0 217.000000 232.000000"
 preserveAspectRatio="xMidYMid meet">

<g transform="translate(0.000000,232.000000) scale(0.100000,-0.100000)"
fill="#000000" stroke="none">
<path d="M1675 2125 c-22 -13 -46 -25 -52 -25 -7 0 -21 -8 -31 -18 -11 -11
-37 -22 -58 -25 -53 -9 -183 -123 -219 -192 -27 -52 -68 -242 -54 -251 5 -2 6
-11 3 -19 -4 -8 -10 -12 -15 -9 -5 3 -6 10 -3 16 4 6 1 13 -5 17 -6 4 -14 24
-16 45 -4 26 -15 46 -41 69 -36 31 -37 32 -13 37 13 3 25 11 25 18 1 7 2 17 3
22 0 6 12 10 26 10 18 0 25 5 25 20 0 11 -5 20 -11 20 -6 0 -9 8 -7 18 4 15 0
17 -30 14 -23 -3 -33 -1 -28 6 4 6 -6 18 -21 26 -15 8 -48 33 -73 55 -25 23
-51 41 -58 41 -7 0 -29 7 -50 16 -20 9 -68 18 -107 21 -38 2 -74 8 -80 14 -16
15 -27 10 -20 -10 5 -18 2 -19 -32 -14 -31 5 -36 3 -26 -8 7 -7 13 -16 13 -21
0 -10 -78 -30 -90 -23 -6 3 -10 1 -10 -4 0 -6 -7 -11 -16 -11 -14 0 -14 -3 -4
-15 10 -12 9 -15 -8 -15 -24 0 -92 -61 -92 -83 0 -9 -17 -25 -37 -36 -21 -11
-32 -20 -25 -21 9 0 11 -7 7 -20 -6 -18 -4 -19 26 -8 24 8 37 8 50 -1 10 -6
24 -11 31 -11 18 0 16 -61 -2 -82 -8 -10 -21 -18 -29 -18 -8 0 -11 -3 -8 -7
11 -11 -46 -34 -70 -28 -18 4 -21 2 -16 -12 11 -33 14 -33 43 -13 25 18 70 28
70 15 0 -17 -36 -84 -45 -83 -5 1 -21 -2 -34 -6 -18 -6 -21 -10 -10 -17 9 -6
10 -9 2 -9 -6 0 -18 7 -27 15 -13 14 -16 14 -24 -1 -10 -18 -32 -11 -32 10 0
8 -9 16 -20 19 -18 5 -20 0 -20 -42 0 -26 -7 -68 -16 -94 -13 -40 -14 -67 -6
-191 6 -79 15 -153 21 -164 10 -18 87 -76 114 -85 9 -3 8 -9 -3 -21 -14 -18
-17 -26 -24 -81 -2 -16 -15 -38 -28 -50 -14 -11 -57 -46 -97 -79 -54 -44 -71
-63 -69 -79 5 -36 35 -31 91 15 91 76 89 75 83 47 -14 -68 -17 -101 -7 -95 5
4 17 -19 26 -51 22 -74 49 -113 80 -113 14 0 54 16 90 36 65 36 65 36 65 12 0
-13 -7 -34 -16 -46 -9 -13 -13 -29 -11 -36 3 -8 0 -22 -7 -32 -7 -11 -20 -39
-30 -63 -20 -52 -10 -71 38 -70 38 1 54 7 91 36 23 19 28 32 31 75 10 139 13
166 28 201 22 51 9 77 -39 77 -42 0 -43 6 -9 51 14 19 34 53 45 77 20 46 39
55 39 20 0 -18 2 -20 10 -8 7 12 12 11 32 -5 13 -11 26 -24 30 -30 4 -6 8 -2
8 8 0 9 5 17 10 17 6 0 10 -8 10 -17 0 -15 4 -14 19 6 l18 24 42 -86 c22 -48
41 -91 41 -96 0 -5 -9 -13 -21 -16 -26 -9 -21 -31 28 -133 29 -62 34 -81 29
-114 -5 -29 -2 -47 9 -64 9 -13 11 -25 5 -29 -8 -5 -7 -28 6 -92 8 -41 83 -65
136 -44 13 5 35 12 50 15 52 11 44 83 -14 124 -10 7 -18 20 -18 28 0 8 -11 32
-25 52 -14 21 -34 64 -45 95 l-20 57 49 47 c55 54 90 133 98 223 9 96 -41 251
-108 339 -33 42 -35 87 -5 131 14 22 28 40 31 40 3 0 27 -16 54 -35 85 -61
114 -69 199 -54 82 15 92 25 92 97 0 62 -10 82 -39 83 -14 1 7 5 46 10 40 5
90 17 112 29 29 14 41 16 45 7 3 -8 8 -7 15 5 16 25 79 60 92 52 8 -4 9 -3 5
4 -4 7 -3 12 2 12 6 0 20 18 31 41 l22 41 -30 -21 c-16 -12 -34 -21 -41 -21
-6 0 -9 -4 -6 -8 2 -4 -7 -9 -22 -10 -25 -2 -25 -2 -6 13 10 8 28 15 39 15 13
0 16 3 8 8 -8 5 -2 17 18 40 16 18 34 30 41 26 6 -4 9 -1 6 7 -3 8 11 44 30
81 31 56 39 65 52 55 12 -9 13 -9 3 3 -7 8 -13 24 -13 36 0 29 25 76 35 66 5
-4 5 1 2 11 -4 10 -7 51 -8 90 l0 72 -15 -53 c-38 -142 -160 -218 -273 -170
l-35 14 37 41 c39 42 47 70 23 79 -16 6 -58 -30 -48 -41 4 -4 2 -6 -3 -5 -6 1
-13 1 -17 0 -5 -1 -11 -3 -15 -5 -5 -1 -16 -5 -26 -10 -24 -10 -28 -4 -34 48
-9 76 22 136 102 194 40 30 30 29 -20 -2z m-28 -251 c0 -8 -33 -42 -73 -75
-65 -55 -89 -82 -86 -100 1 -4 -6 -6 -16 -5 -9 0 -16 -4 -15 -10 1 -7 -8 -9
-22 -6 -14 2 -25 0 -25 -6 0 -6 -19 -24 -43 -41 -29 -20 -44 -25 -44 -16 0 8
10 16 21 19 19 5 21 11 17 48 -2 24 -6 37 -8 31 -3 -7 -9 -13 -14 -13 -6 0 -7
5 -3 12 4 7 3 8 -4 4 -7 -4 -12 -14 -12 -22 0 -8 -4 -13 -10 -9 -17 10 1 33
38 48 37 15 93 8 100 -13 7 -20 21 -9 109 80 48 49 88 90 89 90 0 0 1 -7 1
-16z m-710 -64 c10 -11 24 -20 32 -20 11 0 12 -3 3 -12 -9 -9 -8 -14 2 -22 10
-8 12 -18 5 -35 -9 -22 -11 -22 -27 -9 -9 9 -23 13 -29 11 -8 -3 -13 4 -13 16
0 20 -17 38 -27 27 -3 -3 -1 -12 6 -20 9 -11 8 -15 -5 -20 -10 -4 -14 -13 -11
-25 4 -15 0 -19 -16 -15 -16 3 -18 1 -9 -8 7 -7 12 -19 11 -27 0 -11 -2 -12
-6 -3 -2 6 -11 12 -19 12 -8 0 -14 5 -14 11 0 6 -7 9 -15 5 -12 -4 -15 3 -15
29 0 25 4 33 14 29 17 -7 16 34 -2 45 -21 12 17 39 63 44 22 2 43 4 48 5 4 1
15 -7 24 -18z m-272 -150 c-7 -8 -25 -28 -39 -43 -14 -15 -26 -32 -26 -37 0
-6 -4 -10 -10 -10 -13 0 -13 6 1 31 5 11 14 17 19 14 6 -3 7 0 4 8 -6 18 48
79 58 64 4 -6 1 -18 -7 -27z m453 15 c12 -14 22 -31 22 -38 0 -8 4 -7 10 3 5
8 10 11 11 5 0 -5 2 -22 4 -37 2 -16 1 -28 -2 -28 -7 0 -62 60 -74 81 -22 43
-4 52 29 14z m451 -42 c34 -28 38 -86 10 -128 -29 -42 -93 -72 -115 -54 -12 9
-13 9 -9 -3 9 -24 -32 -29 -67 -9 l-29 19 44 6 c25 4 57 4 71 0 14 -3 26 -4
26 -2 0 17 -24 68 -31 68 -5 0 -9 6 -9 14 0 8 -7 22 -16 31 -9 9 -15 17 -13
19 29 23 87 56 100 56 9 0 26 -8 38 -17z m-141 -8 c-10 -11 -68 -24 -63 -14 4
5 15 9 25 9 10 0 22 5 25 11 4 6 10 8 13 5 3 -3 3 -8 0 -11z m-548 -25 c0 -5
-4 -10 -10 -10 -5 0 -10 5 -10 10 0 6 5 10 10 10 6 0 10 -4 10 -10z m30 1 c0
-6 -4 -12 -8 -15 -5 -3 -9 1 -9 9 0 8 4 15 9 15 4 0 8 -4 8 -9z m505 -58 c-1
-35 -3 -38 -29 -36 -43 3 -44 12 -6 44 19 15 35 29 36 29 0 0 0 -17 -1 -37z
m-487 3 c6 -13 8 -35 5 -47 -6 -21 -4 -22 9 -11 13 11 16 8 20 -18 3 -17 1
-33 -3 -36 -4 -2 -32 -4 -62 -3 -51 2 -53 3 -49 26 3 18 10 23 23 20 17 -5 17
-3 5 15 -12 16 -12 24 1 49 18 35 36 37 51 5z m352 -6 c0 -5 3 -15 6 -24 5
-13 2 -13 -20 -3 -31 15 -36 48 -6 40 11 -3 20 -9 20 -13z m-564 -49 l24 -18
-24 0 c-15 0 -26 7 -29 18 -3 11 -3 19 0 19 3 0 16 -8 29 -19z m548 3 c9 -22
8 -24 -9 -18 -8 4 -15 12 -15 20 0 19 16 18 24 -2z m-114 -14 c0 -5 -4 -10
-10 -10 -5 0 -10 5 -10 10 0 6 5 10 10 10 6 0 10 -4 10 -10z m627 4 c-3 -3
-12 -4 -19 -1 -8 3 -5 6 6 6 11 1 17 -2 13 -5z m-529 -54 c-2 -5 -9 -6 -16 -1
-7 4 -10 15 -6 25 6 17 8 17 16 2 5 -9 8 -21 6 -26z m-750 14 c16 -11 22 -25
22 -52 0 -40 -19 -85 -20 -47 -1 19 -1 19 -11 2 -8 -13 -7 -22 3 -34 9 -12 9
-15 1 -9 -8 4 -13 2 -13 -5 0 -18 -28 9 -46 44 -22 42 -3 117 30 117 6 0 22
-7 34 -16z m1182 11 c0 -12 -67 -45 -90 -45 -15 0 -30 -4 -36 -10 -5 -5 -20
-7 -33 -3 -19 5 -11 9 40 23 36 9 73 22 84 28 22 12 35 15 35 7z m-540 -11 c0
-3 -7 -12 -15 -20 -12 -13 -15 -13 -15 -1 0 7 3 17 7 20 8 8 23 9 23 1z m219
-14 c-6 -5 -10 -19 -7 -34 3 -14 2 -26 -2 -26 -8 0 -19 68 -12 75 2 2 11 1 19
-2 11 -4 12 -8 2 -13z m-957 -22 c-7 -7 -12 -8 -12 -2 0 14 12 26 19 19 2 -3
-1 -11 -7 -17z m590 8 c7 4 8 2 4 -5 -9 -13 -26 -5 -25 12 0 9 2 8 6 -1 2 -6
10 -9 15 -6z m128 -36 c0 -5 -5 -10 -11 -10 -5 0 -7 5 -4 10 3 6 8 10 11 10 2
0 4 -4 4 -10z m-50 -64 c-14 -13 -29 -21 -34 -18 -10 6 30 42 47 42 7 0 0 -11
-13 -24z m-460 -98 c0 -25 -12 -22 -39 6 -17 18 -21 30 -16 47 l8 23 23 -29
c13 -17 24 -38 24 -47z m389 41 c-13 -10 -30 -19 -37 -19 -6 0 -22 -11 -34
-25 -12 -14 -28 -25 -35 -25 -7 0 -13 -3 -13 -8 0 -4 -9 -13 -20 -19 -15 -10
-18 -10 -14 0 8 19 158 125 168 119 5 -3 -2 -13 -15 -23z m-72 15 c-3 -3 -12
-4 -19 -1 -8 3 -5 6 6 6 11 1 17 -2 13 -5z m-417 -54 c9 -17 8 -20 -7 -20 -51
1 -82 24 -45 33 33 9 41 7 52 -13z m-27 -45 c-4 -15 -36 -12 -41 3 -3 9 3 13
19 10 13 -1 23 -7 22 -13z m306 -46 c29 -10 39 -27 25 -42 -4 -3 -15 -2 -26 4
-11 6 -17 13 -14 17 4 3 -6 11 -21 18 -35 16 -7 18 36 3z m-177 -34 c-15 -22
-18 -22 -29 -8 -19 25 -16 30 17 31 30 1 30 1 12 -23z m112 19 c17 -7 22 -34
7 -34 -5 0 -22 5 -38 11 -26 10 -27 12 -8 19 11 5 21 9 22 9 1 1 8 -2 17 -5z
m-63 -65 c13 -13 17 -25 12 -30 -5 -5 -18 3 -31 21 -26 34 -12 40 19 9z m-14
-76 c-11 -10 -27 8 -27 30 l0 21 16 -22 c9 -13 14 -26 11 -29z m558 -3 c-3 -5
-2 -10 4 -10 18 0 42 -58 35 -85 -3 -14 -10 -25 -14 -25 -4 0 -22 22 -39 49
-33 51 -33 81 1 81 10 0 16 -4 13 -10z m-75 -65 c5 -43 0 -66 -12 -59 -8 5 -9
2 -5 -9 5 -14 0 -17 -31 -17 -32 0 -37 3 -38 25 -1 14 2 25 7 25 5 0 9 7 9 15
0 9 12 28 26 42 28 28 39 22 44 -22z m35 -23 c-3 -3 -5 0 -5 7 0 7 -4 9 -10 6
-6 -4 -10 7 -10 27 l1 33 15 -34 c8 -19 12 -36 9 -39z m-597 -173 c3 -11 2
-11 -6 -1 -7 10 -11 10 -22 -3 -7 -8 -8 -15 -2 -15 11 0 35 -60 27 -68 -3 -3
-5 1 -5 9 0 12 -2 11 -10 -1 -8 -11 -9 -8 -5 11 5 19 2 28 -11 33 -9 4 -19 4
-22 1 -3 -3 0 -5 6 -5 7 0 12 -4 12 -10 0 -16 -17 -11 -24 7 -4 10 2 25 16 40
23 25 39 26 46 2z m617 -49 c25 0 40 -31 22 -49 -17 -17 -35 -13 -53 14 -10
16 -13 32 -8 47 6 19 9 20 12 6 2 -11 13 -18 27 -18z m-672 -107 c9 -5 -18
-33 -32 -33 -9 0 -31 31 -31 45 0 5 47 -4 63 -12z"/>
<path d="M851 1724 c0 -11 3 -14 6 -6 3 7 2 16 -1 19 -3 4 -6 -2 -5 -13z"/>
<path d="M1252 1750 c0 -14 2 -19 5 -12 2 6 2 18 0 25 -3 6 -5 1 -5 -13z"/>
<path d="M1240 1695 c0 -8 4 -15 10 -15 5 0 7 7 4 15 -4 8 -8 15 -10 15 -2 0
-4 -7 -4 -15z"/>
<path d="M1900 1589 c0 -5 5 -7 10 -4 6 3 10 8 10 11 0 2 -4 4 -10 4 -5 0 -10
-5 -10 -11z"/>
</g>
</svg>
