<?xml version="1.0" encoding="UTF-8"?>
<svg xmlns="http://www.w3.org/2000/svg" xmlns:xlink="http://www.w3.org/1999/xlink" width="180px" height="180px" viewBox="0 0 180 180" version="1.1">
<g id="surface1">
<path style=" stroke:none;fill-rule:nonzero;fill:rgb(100%,100%,0%);fill-opacity:1;" d="M 82.628906 178.445312 C 82.628906 177.265625 90.019531 171.273438 93.753906 169.429688 C 98.191406 167.242188 99.261719 165.910156 107.144531 152.65625 C 114.355469 140.550781 114.921875 138.96875 113.175781 136.023438 C 112.726562 135.265625 112.203125 134.285156 111.996094 133.835938 C 111.796875 133.375 110.980469 131.65625 110.167969 129.996094 C 108.558594 126.695312 108.144531 119.339844 109.152344 112.085938 C 109.753906 107.753906 106.867188 107.390625 97.164062 110.59375 C 87.976562 113.628906 76.589844 116.375 71.792969 116.71875 C 66.3125 117.113281 66.222656 117.28125 57.367188 143.875 C 53.945312 154.148438 50.6875 163.535156 50.128906 164.742188 C 49.570312 165.945312 48.699219 168.089844 48.1875 169.5 C 47.402344 171.671875 46.945312 172.164062 45.199219 172.71875 C 44.058594 173.074219 41.820312 174.566406 40.21875 176.03125 C 37.152344 178.84375 25.480469 180.316406 25.480469 177.898438 C 25.480469 176.699219 32.890625 170.71875 36.691406 168.839844 C 43.582031 165.449219 46.828125 155.753906 48.4375 133.765625 C 49.679688 116.726562 49.636719 116.320312 46.386719 115.527344 C 45.511719 115.316406 44.390625 114.777344 43.882812 114.328125 C 43.113281 113.65625 42.402344 113.613281 39.71875 114.097656 C 37.9375 114.421875 32.230469 114.679688 27.039062 114.679688 C 15.183594 114.679688 13.714844 115.121094 13.714844 118.625 C 13.714844 121.269531 15.539062 131.101562 16.46875 133.457031 C 16.804688 134.304688 17.078125 136.191406 17.078125 137.664062 C 17.078125 141.167969 17.800781 142.878906 19.65625 143.769531 C 20.492188 144.167969 21.347656 144.863281 21.558594 145.324219 C 21.773438 145.773438 22.234375 146.691406 22.59375 147.363281 C 24.167969 150.34375 23.117188 157.359375 21.097656 157.359375 C 19.25 157.359375 11.472656 148.492188 11.472656 146.382812 C 11.472656 145.851562 10.589844 144.386719 9.507812 143.125 C 7.128906 140.347656 7.21875 140.761719 6.429688 128.761719 C 6.078125 123.421875 5.554688 118.253906 5.269531 117.28125 C 3.351562 110.753906 4.46875 109.683594 18.324219 104.832031 C 30.738281 100.480469 30.316406 100.757812 29.476562 97.519531 C 29.128906 96.160156 28.839844 94.113281 28.835938 92.964844 C 28.832031 91.816406 28.355469 89.410156 27.78125 87.601562 C 24.878906 78.484375 25.089844 67.066406 28.296875 59.9375 C 33.007812 49.457031 27.894531 43.980469 17.355469 48.21875 C 13.476562 49.78125 11.699219 49.878906 7.882812 48.75 C 6.371094 48.300781 4.417969 47.9375 3.542969 47.9375 C 2.664062 47.9375 1.949219 47.71875 1.949219 47.445312 C 1.949219 46.386719 5.265625 43.558594 6.515625 43.550781 C 7.242188 43.546875 8.210938 43.300781 8.671875 43.011719 C 9.292969 42.621094 8.914062 42.476562 7.242188 42.472656 C 5.996094 42.46875 4.734375 42.238281 4.441406 41.957031 C 4.148438 41.679688 3.15625 41.375 2.230469 41.273438 C -3.75 40.636719 3.183594 34.265625 12.558594 31.785156 C 16.296875 30.792969 19.914062 29.625 20.597656 29.183594 C 21.855469 28.371094 23.535156 24.957031 22.671875 24.957031 C 21.375 24.957031 18.757812 22.023438 18.757812 20.574219 C 18.757812 17.300781 23.289062 14.21875 26.007812 15.640625 C 27.90625 16.628906 27.355469 17.339844 24.972656 16.96875 C 23.136719 16.683594 22.6875 16.804688 22.171875 17.746094 C 21.242188 19.441406 21.410156 19.929688 23.210938 20.839844 C 26.035156 22.265625 27.722656 21.960938 27.722656 20.03125 C 27.722656 17.238281 30.328125 15.535156 33.046875 16.554688 C 33.84375 16.851562 33.746094 17.097656 32.394531 18.191406 C 30.800781 19.476562 30.800781 19.476562 32.375 20.847656 C 34.648438 22.832031 35.285156 22.609375 35.285156 19.816406 C 35.285156 15.507812 38.621094 13.53125 40.359375 16.8125 C 41.023438 18.066406 41.429688 18.355469 41.886719 17.90625 C 43.003906 16.816406 43.867188 17.257812 44.550781 19.277344 C 44.917969 20.367188 45.386719 20.992188 45.59375 20.667969 C 48.113281 16.6875 58.09375 18.339844 59.902344 23.042969 C 60.265625 23.953125 60.453125 23.742188 61.074219 21.742188 C 62.800781 16.183594 67.660156 13.597656 83.1875 9.96875 C 92.421875 7.808594 96.75 6.3125 103.914062 2.800781 C 110.492188 -0.425781 112.410156 -0.242188 110.691406 3.453125 C 109.855469 5.242188 111.527344 5.019531 117.242188 2.582031 C 126.640625 -1.425781 133.433594 -0.632812 129.679688 4.027344 C 127.925781 6.207031 128.691406 6.128906 134.191406 3.582031 C 139.761719 0.992188 141.011719 1.039062 141.355469 3.847656 C 141.589844 5.796875 140.230469 7.738281 137.761719 8.976562 C 135.9375 9.890625 135.847656 10.046875 136.710938 10.746094 C 137.941406 11.746094 147.070312 8.8125 156.71875 4.320312 C 172.800781 -3.171875 166.84375 9.4375 150.472656 17.542969 C 148.84375 18.351562 147.636719 19.140625 147.789062 19.292969 C 148.148438 19.640625 161.378906 13.179688 163.234375 11.757812 C 164.84375 10.523438 166.582031 10.429688 167.023438 11.554688 C 168.011719 14.082031 164.691406 18.210938 158.914062 21.621094 C 156.824219 22.851562 153.835938 24.925781 152.269531 26.230469 C 150.703125 27.535156 148.625 28.925781 147.636719 29.324219 C 145.84375 30.046875 145.84375 30.046875 147.933594 30.75 C 154.261719 32.871094 149.121094 38.8125 137.527344 42.777344 C 133.882812 44.023438 133.882812 44.023438 136.585938 44.066406 C 146.070312 44.207031 139.363281 52.261719 127.945312 54.457031 C 126.351562 54.757812 125.980469 54.953125 126.882812 55.007812 C 139.625 55.765625 133.660156 62.964844 119.671875 63.722656 C 113.292969 64.078125 113.292969 64.078125 115.75 65.390625 C 117.097656 66.113281 119.449219 67.589844 120.96875 68.65625 C 122.714844 69.890625 125.199219 70.96875 127.691406 71.585938 C 132.226562 72.695312 137.269531 75.007812 144.65625 79.359375 C 149.8125 82.394531 151.117188 82.816406 152.59375 81.898438 C 153.847656 81.132812 152.980469 79.933594 148.96875 76.851562 C 140.363281 70.253906 142.558594 60.140625 153.691406 55.164062 C 160.210938 52.253906 165.429688 53.136719 171.054688 58.101562 C 174.671875 61.304688 175.347656 61.4375 175.347656 58.96875 C 175.347656 57.007812 177.398438 56.671875 178.648438 58.421875 C 179.953125 60.230469 179.757812 61.683594 177.929688 63.820312 C 176.308594 65.707031 176.308594 65.71875 177.273438 67.632812 C 178.828125 70.695312 180.277344 77.761719 179.953125 80.636719 C 179.171875 87.492188 178.246094 92.3125 177.046875 95.804688 C 173.753906 105.378906 173.359375 110.894531 176.140625 108.433594 C 177.632812 107.109375 178.425781 107.761719 178.425781 110.320312 C 178.425781 113.101562 176.632812 114.898438 174.304688 114.449219 C 172.699219 114.140625 172.699219 114.140625 174.652344 116.25 C 177.164062 118.96875 178.6875 123.308594 178.183594 126.363281 C 177.976562 127.613281 177.578125 130.386719 177.300781 132.539062 C 176.632812 137.664062 174.726562 141.730469 171.207031 145.527344 C 168.128906 148.84375 167.992188 149.160156 169.011719 150.757812 C 170.414062 152.945312 167.183594 154.507812 165.347656 152.523438 C 164.015625 151.085938 164.195312 149.054688 166.039062 144.839844 C 169.246094 137.460938 168.796875 135.707031 162.160156 129.917969 C 159.273438 127.394531 157.660156 125.433594 156.257812 122.753906 C 154.675781 119.726562 154.078125 119.054688 152.964844 119.054688 C 151.101562 119.054688 150.769531 118.296875 151.792969 116.363281 C 152.378906 115.261719 152.65625 113.179688 152.65625 109.921875 C 152.667969 103.554688 154.027344 100.675781 159.695312 94.984375 C 166.636719 88.023438 169.066406 79.394531 164.078125 79.394531 C 163.125 79.394531 163.042969 79.765625 163.214844 83.292969 C 163.566406 90.34375 160.902344 94.136719 155.566406 94.207031 C 152.425781 94.253906 152.425781 94.253906 151.730469 98.585938 C 151.351562 100.96875 150.523438 105.125 149.886719 107.816406 C 147.878906 116.347656 148.886719 119.480469 155.691406 125.875 C 159.796875 129.722656 159.796875 129.722656 159.316406 138.757812 C 159.066406 143.71875 158.695312 151.84375 158.507812 156.8125 C 158.050781 168.730469 157.921875 169.09375 153.503906 171.027344 C 150.992188 172.128906 149.796875 173.011719 149.28125 174.125 C 147.3125 178.429688 132.488281 182.242188 132.488281 178.445312 C 132.488281 176.664062 142.335938 169.394531 144.746094 169.394531 C 148.5625 169.394531 150.101562 163.402344 149.679688 150.148438 C 149.238281 136.015625 148.5 134.417969 140.050781 129.167969 C 138.203125 128.019531 135.269531 125.753906 133.542969 124.113281 C 129.050781 119.886719 127.808594 128.613281 132.058594 134.496094 C 133.011719 135.820312 131.183594 139.242188 127.304688 143.410156 C 125.621094 145.207031 123.335938 148.042969 122.230469 149.699219 C 121.113281 151.351562 118.179688 155.417969 115.703125 158.726562 C 113.230469 162.035156 110.914062 165.609375 110.566406 166.660156 C 108.738281 172.164062 107.34375 173.390625 102.347656 173.957031 C 100.457031 174.160156 99.34375 174.769531 97.191406 176.734375 C 94.257812 179.410156 82.628906 180.777344 82.628906 178.445312 Z M 82.628906 178.445312 "/>
<path style=" stroke:none;fill-rule:nonzero;fill:rgb(0%,0%,0%);fill-opacity:1;" d="M 82.628906 178.445312 C 82.628906 177.265625 90.019531 171.273438 93.753906 169.429688 C 98.191406 167.242188 99.261719 165.910156 107.144531 152.65625 C 114.355469 140.550781 114.921875 138.96875 113.175781 136.023438 C 112.726562 135.265625 112.203125 134.285156 111.996094 133.835938 C 111.796875 133.375 110.980469 131.65625 110.167969 129.996094 C 108.558594 126.695312 108.144531 119.339844 109.152344 112.085938 C 109.753906 107.753906 106.867188 107.390625 97.164062 110.59375 C 87.976562 113.628906 76.589844 116.375 71.792969 116.71875 C 66.3125 117.113281 66.222656 117.28125 57.367188 143.875 C 53.945312 154.148438 50.6875 163.535156 50.128906 164.742188 C 49.570312 165.945312 48.699219 168.089844 48.1875 169.5 C 47.402344 171.671875 46.945312 172.164062 45.199219 172.71875 C 44.058594 173.074219 41.820312 174.566406 40.21875 176.03125 C 37.152344 178.84375 25.480469 180.316406 25.480469 177.898438 C 25.480469 176.699219 32.890625 170.71875 36.691406 168.839844 C 43.582031 165.449219 46.828125 155.753906 48.4375 133.765625 C 49.679688 116.726562 49.636719 116.320312 46.386719 115.527344 C 45.511719 115.316406 44.390625 114.777344 43.882812 114.328125 C 43.113281 113.65625 42.402344 113.613281 39.71875 114.097656 C 37.9375 114.421875 32.230469 114.679688 27.039062 114.679688 C 15.183594 114.679688 13.714844 115.121094 13.714844 118.625 C 13.714844 121.269531 15.539062 131.101562 16.46875 133.457031 C 16.804688 134.304688 17.078125 136.191406 17.078125 137.664062 C 17.078125 141.167969 17.800781 142.878906 19.65625 143.769531 C 20.492188 144.167969 21.347656 144.863281 21.558594 145.324219 C 21.773438 145.773438 22.234375 146.691406 22.59375 147.363281 C 24.167969 150.34375 23.117188 157.359375 21.097656 157.359375 C 19.25 157.359375 11.472656 148.492188 11.472656 146.382812 C 11.472656 145.851562 10.589844 144.386719 9.507812 143.125 C 7.128906 140.347656 7.21875 140.761719 6.429688 128.761719 C 6.078125 123.421875 5.554688 118.253906 5.269531 117.28125 C 3.351562 110.753906 4.46875 109.683594 18.324219 104.832031 C 30.738281 100.480469 30.316406 100.757812 29.476562 97.519531 C 29.128906 96.160156 28.839844 94.113281 28.835938 92.964844 C 28.832031 91.816406 28.355469 89.410156 27.78125 87.601562 C 24.878906 78.484375 25.089844 67.066406 28.296875 59.9375 C 33.007812 49.457031 27.894531 43.980469 17.355469 48.21875 C 13.476562 49.78125 11.699219 49.878906 7.882812 48.75 C 6.371094 48.300781 4.417969 47.9375 3.542969 47.9375 C 2.664062 47.9375 1.949219 47.71875 1.949219 47.445312 C 1.949219 46.386719 5.265625 43.558594 6.515625 43.550781 C 7.242188 43.546875 8.210938 43.300781 8.671875 43.011719 C 9.292969 42.621094 8.914062 42.476562 7.242188 42.472656 C 5.996094 42.46875 4.734375 42.238281 4.441406 41.957031 C 4.148438 41.679688 3.15625 41.375 2.230469 41.273438 C -3.75 40.636719 3.183594 34.265625 12.558594 31.785156 C 16.296875 30.792969 19.914062 29.621094 20.597656 29.183594 C 21.855469 28.371094 23.535156 24.957031 22.671875 24.957031 C 21.375 24.957031 18.757812 22.023438 18.757812 20.574219 C 18.757812 17.300781 23.289062 14.21875 26.007812 15.636719 C 27.90625 16.628906 27.355469 17.339844 24.972656 16.96875 C 23.136719 16.679688 22.6875 16.804688 22.171875 17.746094 C 21.242188 19.441406 21.410156 19.929688 23.210938 20.839844 C 26.035156 22.265625 27.722656 21.960938 27.722656 20.03125 C 27.722656 17.238281 30.328125 15.535156 33.046875 16.554688 C 33.84375 16.851562 33.746094 17.09375 32.394531 18.191406 C 30.800781 19.476562 30.800781 19.476562 32.375 20.847656 C 34.648438 22.832031 35.285156 22.609375 35.285156 19.816406 C 35.285156 15.507812 38.621094 13.53125 40.359375 16.8125 C 41.023438 18.066406 41.429688 18.355469 41.886719 17.90625 C 43.003906 16.816406 43.867188 17.257812 44.550781 19.277344 C 44.917969 20.367188 45.386719 20.992188 45.59375 20.667969 C 48.113281 16.6875 58.09375 18.339844 59.902344 23.042969 C 60.265625 23.953125 60.453125 23.738281 61.074219 21.742188 C 62.800781 16.183594 67.660156 13.597656 83.1875 9.96875 C 92.421875 7.808594 96.75 6.3125 103.914062 2.800781 C 110.539062 -0.453125 112.761719 -0.164062 110.519531 3.648438 C 109.457031 5.449219 111.058594 5.1875 117.359375 2.519531 C 126.683594 -1.421875 133.40625 -0.601562 129.679688 4.027344 C 127.925781 6.207031 128.691406 6.128906 134.191406 3.582031 C 139.761719 0.992188 141.011719 1.039062 141.355469 3.847656 C 141.589844 5.796875 140.230469 7.738281 137.761719 8.976562 C 135.9375 9.890625 135.847656 10.046875 136.710938 10.746094 C 137.941406 11.746094 147.070312 8.8125 156.71875 4.320312 C 172.800781 -3.171875 166.84375 9.4375 150.472656 17.542969 C 148.84375 18.351562 147.636719 19.136719 147.789062 19.292969 C 148.148438 19.640625 161.378906 13.179688 163.234375 11.757812 C 164.84375 10.519531 166.582031 10.429688 167.023438 11.554688 C 168.011719 14.082031 164.691406 18.210938 158.914062 21.621094 C 156.824219 22.851562 153.835938 24.925781 152.269531 26.230469 C 150.703125 27.535156 148.625 28.925781 147.636719 29.324219 C 145.84375 30.046875 145.84375 30.046875 147.933594 30.75 C 154.261719 32.871094 149.121094 38.8125 137.527344 42.777344 C 133.882812 44.023438 133.882812 44.023438 136.585938 44.066406 C 146.070312 44.207031 139.363281 52.261719 127.945312 54.457031 C 126.351562 54.757812 125.980469 54.953125 126.882812 55.007812 C 139.625 55.757812 133.660156 62.964844 119.671875 63.722656 C 113.292969 64.078125 113.292969 64.078125 115.75 65.390625 C 117.097656 66.113281 119.449219 67.589844 120.96875 68.65625 C 122.714844 69.890625 125.199219 70.96875 127.691406 71.585938 C 132.226562 72.695312 137.269531 75.007812 144.65625 79.359375 C 149.8125 82.394531 151.117188 82.816406 152.59375 81.898438 C 153.847656 81.132812 152.980469 79.933594 148.96875 76.851562 C 140.363281 70.253906 142.558594 60.140625 153.691406 55.164062 C 160.210938 52.253906 165.429688 53.136719 171.054688 58.101562 C 174.671875 61.304688 175.347656 61.4375 175.347656 58.96875 C 175.347656 57.007812 177.398438 56.671875 178.648438 58.421875 C 179.953125 60.230469 179.757812 61.675781 177.929688 63.820312 C 176.308594 65.707031 176.308594 65.71875 177.273438 67.632812 C 178.828125 70.695312 180.277344 77.761719 179.953125 80.636719 C 179.171875 87.492188 178.246094 92.3125 177.046875 95.804688 C 173.753906 105.378906 173.359375 110.894531 176.140625 108.433594 C 177.632812 107.109375 178.425781 107.761719 178.425781 110.320312 C 178.425781 113.101562 176.632812 114.898438 174.304688 114.449219 C 172.699219 114.140625 172.699219 114.140625 174.652344 116.25 C 177.164062 118.96875 178.6875 123.308594 178.183594 126.363281 C 177.976562 127.613281 177.578125 130.386719 177.300781 132.539062 C 176.632812 137.664062 174.726562 141.730469 171.207031 145.527344 C 168.128906 148.84375 167.992188 149.160156 169.011719 150.757812 C 170.414062 152.945312 167.183594 154.507812 165.347656 152.523438 C 164.015625 151.085938 164.195312 149.054688 166.039062 144.839844 C 169.246094 137.460938 168.796875 135.707031 162.160156 129.917969 C 159.273438 127.394531 157.660156 125.433594 156.257812 122.753906 C 154.675781 119.726562 154.078125 119.054688 152.964844 119.054688 C 151.101562 119.054688 150.769531 118.296875 151.792969 116.363281 C 152.378906 115.261719 152.65625 113.179688 152.65625 109.921875 C 152.667969 103.554688 154.027344 100.675781 159.695312 94.984375 C 166.636719 88.023438 169.066406 79.394531 164.078125 79.394531 C 163.125 79.394531 163.042969 79.765625 163.214844 83.292969 C 163.566406 90.34375 160.902344 94.136719 155.566406 94.207031 C 152.425781 94.253906 152.425781 94.253906 151.730469 98.585938 C 151.351562 100.96875 150.523438 105.125 149.886719 107.816406 C 147.878906 116.347656 148.886719 119.480469 155.691406 125.875 C 159.796875 129.722656 159.796875 129.722656 159.316406 138.757812 C 159.066406 143.71875 158.695312 151.84375 158.507812 156.8125 C 158.050781 168.730469 157.921875 169.09375 153.503906 171.027344 C 150.992188 172.128906 149.796875 173.011719 149.28125 174.125 C 147.3125 178.429688 132.488281 182.242188 132.488281 178.445312 C 132.488281 176.664062 142.335938 169.394531 144.746094 169.394531 C 148.5625 169.394531 150.101562 163.402344 149.679688 150.148438 C 149.238281 136.015625 148.5 134.417969 140.050781 129.167969 C 138.203125 128.019531 135.269531 125.753906 133.542969 124.113281 C 129.050781 119.886719 127.808594 128.613281 132.058594 134.488281 C 133.011719 135.820312 131.183594 139.242188 127.304688 143.410156 C 125.621094 145.207031 123.335938 148.042969 122.230469 149.699219 C 121.113281 151.351562 118.179688 155.417969 115.703125 158.726562 C 113.230469 162.035156 110.914062 165.609375 110.566406 166.660156 C 108.738281 172.164062 107.34375 173.390625 102.347656 173.957031 C 100.457031 174.160156 99.34375 174.769531 97.191406 176.734375 C 94.257812 179.410156 82.628906 180.777344 82.628906 178.445312 Z M 95.023438 176.71875 C 96.847656 175.101562 93.105469 171.230469 91.089844 172.640625 C 85.09375 176.851562 84.878906 177.554688 89.585938 177.574219 C 92.90625 177.589844 94.273438 177.378906 95.023438 176.71875 Z M 144.882812 176.71875 C 146.710938 175.101562 142.964844 171.230469 140.949219 172.640625 C 134.953125 176.851562 134.738281 177.554688 139.445312 177.574219 C 142.765625 177.589844 144.136719 177.378906 144.882812 176.71875 Z M 37.871094 176.171875 C 39.695312 174.554688 35.953125 170.683594 33.941406 172.09375 C 27.945312 176.304688 27.730469 177.007812 32.433594 177.027344 C 35.757812 177.042969 37.125 176.832031 37.871094 176.171875 Z M 98.78125 172.675781 C 99.75 171.777344 100.8125 171.035156 101.148438 171.035156 C 101.480469 171.035156 102.171875 170.621094 102.683594 170.109375 C 103.566406 169.242188 103.640625 169.261719 103.808594 170.417969 C 104.160156 172.773438 105.828125 171.386719 108.15625 166.808594 C 109.417969 164.339844 112.316406 159.925781 114.601562 157.023438 C 116.886719 154.113281 120.144531 149.824219 121.835938 147.492188 C 123.53125 145.15625 126.003906 141.953125 127.328125 140.375 C 130.089844 137.074219 129.621094 135.855469 124.796875 133.738281 C 123.503906 133.171875 122.296875 132.46875 122.109375 132.175781 C 121.421875 131.089844 123.332031 131.699219 126.527344 133.578125 C 130.828125 136.113281 131.179688 135.636719 127.15625 132.742188 C 123.945312 130.421875 123.140625 128.886719 126.292969 131.074219 C 128.667969 132.730469 128.433594 131.859375 125.898438 129.652344 C 123.835938 127.851562 124.898438 127.5625 127.023438 129.351562 C 127.914062 130.09375 128.003906 130.066406 128.003906 129.035156 C 128.003906 128.417969 127.308594 127.410156 126.464844 126.8125 C 125.617188 126.203125 125.105469 125.53125 125.328125 125.320312 C 125.554688 125.101562 126.121094 125.230469 126.589844 125.613281 C 127.578125 126.414062 127.6875 125.992188 126.867188 124.5 C 126.554688 123.925781 124.914062 122.824219 123.234375 122.046875 C 120.550781 120.804688 118.894531 119.601562 119.867188 119.601562 C 120.757812 119.601562 124.292969 121.351562 126.039062 122.65625 C 127.121094 123.457031 128.003906 123.898438 128.003906 123.625 C 128.003906 122.9375 122.070312 118.507812 121.144531 118.507812 C 120.722656 118.507812 119.882812 118.148438 119.28125 117.707031 C 118.226562 116.929688 118.226562 116.902344 119.46875 116.886719 C 120.792969 116.867188 124.574219 118.933594 126.742188 120.863281 C 127.75 121.765625 128.003906 121.816406 128.003906 121.136719 C 128.003906 120.257812 124.773438 117.890625 121.007812 116.03125 C 115.761719 113.445312 112.214844 110.347656 116.671875 112.253906 C 117.203125 112.480469 117.914062 112.625 118.246094 112.578125 C 118.589844 112.527344 119.542969 113.101562 120.378906 113.859375 C 121.214844 114.609375 122.109375 115.226562 122.359375 115.226562 C 122.613281 115.226562 123.152344 115.613281 123.546875 116.082031 C 123.945312 116.550781 124.726562 117.167969 125.292969 117.46875 C 126.625 118.164062 126.652344 117.273438 125.339844 115.992188 C 124.796875 115.464844 124.4375 114.898438 124.539062 114.742188 C 124.636719 114.582031 124.304688 114.308594 123.800781 114.132812 C 123.296875 113.964844 122.925781 113.585938 123 113.292969 C 123.339844 111.757812 116.652344 110.839844 112.875 111.898438 C 111.476562 112.296875 111.476562 112.296875 113.429688 113.277344 C 115.691406 114.40625 117.914062 116.277344 117.914062 117.035156 C 117.914062 117.316406 117.09375 116.9375 116.09375 116.195312 C 113.683594 114.414062 111.757812 113.445312 111.757812 114.007812 C 111.757812 114.265625 113.429688 115.675781 115.484375 117.148438 C 117.535156 118.613281 118.914062 119.921875 118.542969 120.035156 C 118.183594 120.160156 117.492188 119.9375 117.011719 119.558594 C 116.339844 119.003906 116.058594 119.003906 115.726562 119.53125 C 115.410156 120.027344 114.953125 119.902344 113.945312 119.054688 C 112.59375 117.910156 112.59375 117.910156 114 118.242188 C 115.394531 118.570312 115.394531 118.570312 113.828125 117.175781 C 111.730469 115.304688 109.949219 115.429688 111.867188 117.308594 C 112.386719 117.820312 112.386719 117.960938 111.867188 117.960938 C 109.964844 117.960938 111.640625 119.523438 114.980469 120.855469 C 118.714844 122.347656 118.722656 122.363281 116.238281 122.054688 C 114.851562 121.878906 113.152344 121.386719 112.476562 120.945312 C 110.867188 119.921875 110.632812 119.945312 110.632812 121.15625 C 110.632812 122.1875 112.71875 123.433594 114.429688 123.433594 C 115.546875 123.433594 121.398438 126.238281 121.027344 126.601562 C 120.890625 126.730469 118.886719 126.078125 116.582031 125.144531 C 114.277344 124.199219 111.972656 123.433594 111.46875 123.433594 C 109.984375 123.433594 110.820312 124.675781 112.730469 125.3125 C 115.375 126.195312 115.699219 126.917969 113.296875 126.554688 C 112.136719 126.378906 111.191406 126.378906 111.191406 126.554688 C 111.191406 127.058594 113.089844 128.320312 113.871094 128.339844 C 114.96875 128.363281 118.6875 129.980469 118.371094 130.289062 C 118.21875 130.4375 117.003906 130.183594 115.671875 129.722656 C 112.757812 128.726562 112.503906 128.894531 113.621094 131.082031 C 115.679688 135.105469 116.445312 140.707031 115.167969 142.410156 C 111.082031 147.839844 101.300781 165.308594 102.15625 165.660156 C 102.660156 165.863281 102.820312 166.050781 102.503906 166.078125 C 102.199219 166.09375 100.992188 166.976562 99.816406 168.027344 C 98.644531 169.078125 97.257812 169.941406 96.738281 169.949219 C 94.566406 169.96875 94.191406 170.816406 95.546875 172.613281 C 97.097656 174.652344 96.664062 174.644531 98.78125 172.675781 Z M 119.875 138.210938 C 119.046875 137.3125 119.011719 137.117188 119.703125 137.117188 C 120.164062 137.117188 121 137.601562 121.558594 138.210938 C 122.386719 139.101562 122.421875 139.304688 121.730469 139.304688 C 121.269531 139.304688 120.433594 138.8125 119.875 138.210938 Z M 120.433594 136.683594 C 118.425781 135.652344 117.921875 135.183594 118.660156 135.035156 C 119.21875 134.921875 120.128906 135.21875 120.667969 135.695312 C 121.207031 136.171875 121.910156 136.570312 122.234375 136.570312 C 122.558594 136.570312 123.132812 136.933594 123.519531 137.390625 C 124.492188 138.539062 123.683594 138.351562 120.433594 136.683594 Z M 123.953125 136.101562 C 121.144531 134.53125 119.585938 133.28125 120.46875 133.289062 C 121.40625 133.296875 126.878906 136.570312 126.878906 137.125 C 126.878906 137.789062 127.121094 137.867188 123.953125 136.101562 Z M 115.953125 132.160156 C 114.726562 131.59375 114.160156 131.117188 114.710938 131.109375 C 115.851562 131.089844 119.597656 132.53125 119.597656 132.980469 C 119.597656 133.527344 118.238281 133.21875 115.953125 132.160156 Z M 119.289062 131.054688 C 118.632812 130.023438 119.597656 129.769531 120.570312 130.71875 C 121.441406 131.566406 121.449219 131.636719 120.585938 131.636719 C 120.082031 131.636719 119.496094 131.382812 119.289062 131.054688 Z M 121 129.195312 C 120.074219 128.789062 118.453125 128.136719 117.402344 127.757812 C 116.347656 127.367188 115.78125 126.960938 116.140625 126.839844 C 116.988281 126.566406 121.863281 128.3125 122.933594 129.265625 C 123.960938 130.183594 123.1875 130.15625 121 129.195312 Z M 121.28125 123.898438 C 119.316406 122.839844 119.316406 122.839844 121 123.175781 C 121.917969 123.363281 123.050781 123.863281 123.503906 124.289062 C 124.609375 125.355469 123.65625 125.1875 121.28125 123.898438 Z M 148.332031 172.675781 C 148.488281 172.121094 150.117188 170.910156 151.960938 170.003906 C 156.171875 167.929688 156.089844 168.160156 156.632812 157.359375 C 158.082031 128.328125 158.324219 131.046875 153.878906 126.476562 C 146.722656 119.117188 145.847656 115.765625 148.496094 105.652344 C 151.429688 94.429688 151.140625 91.78125 146.613281 88.207031 C 142.007812 84.574219 139.828125 81.855469 141.519531 81.855469 C 142.167969 81.855469 143.96875 83.242188 149.84375 88.289062 C 153.941406 91.792969 155.261719 91.921875 157.621094 89.109375 C 158.566406 87.980469 159.347656 87.386719 159.359375 87.804688 C 159.367188 88.207031 158.394531 89.507812 157.199219 90.671875 C 155.019531 92.796875 155.019531 92.796875 156.542969 92.796875 C 159.773438 92.796875 161.941406 88.296875 161.464844 82.570312 C 161.042969 77.417969 164.183594 75.742188 167.207031 79.5 C 169.664062 82.554688 166.925781 89.980469 161.03125 96.21875 C 155.75 101.824219 154.34375 104.867188 154.335938 110.734375 C 154.335938 114.0625 154.085938 115.640625 153.390625 116.671875 C 152.484375 118.023438 152.492188 118.078125 153.507812 117.882812 C 154.605469 117.679688 155.210938 116.753906 157.054688 112.492188 C 157.917969 110.488281 158.199219 110.214844 158.539062 111.027344 C 158.808594 111.660156 158.441406 113.214844 157.503906 115.316406 C 155.613281 119.613281 157.59375 124.15625 163.28125 128.523438 C 170.734375 134.269531 171.542969 137.59375 167.421875 145.632812 C 165.191406 149.980469 165.226562 151.386719 167.558594 151.800781 C 168.414062 151.957031 168.484375 151.851562 167.917969 151.28125 C 166.53125 149.875 167.144531 147.6875 169.746094 144.707031 C 175.65625 137.945312 175.207031 134.859375 166.945312 125.480469 C 164.882812 123.148438 163.300781 120.960938 163.417969 120.617188 C 163.757812 119.613281 172.425781 129.300781 173.921875 132.371094 C 175.296875 135.203125 175.296875 135.203125 175.488281 133.269531 C 175.730469 130.78125 172.011719 123.996094 169.035156 121.5 C 166.800781 119.628906 163.941406 115.226562 164.957031 115.226562 C 165.289062 115.226562 166.226562 116.292969 167.027344 117.589844 C 167.835938 118.898438 169.292969 120.492188 170.277344 121.15625 C 171.246094 121.808594 172.914062 123.839844 173.972656 125.671875 C 175.890625 129.007812 175.890625 129.007812 176.324219 126.980469 C 177.035156 123.625 175.550781 119.929688 172.039062 116.339844 C 167.421875 111.609375 166.578125 107.285156 169.449219 103.136719 C 170.367188 101.816406 171.121094 100.324219 171.128906 99.839844 C 171.140625 99.34375 171.660156 98.355469 172.300781 97.648438 C 173.34375 96.484375 173.433594 96.46875 173.183594 97.445312 C 172.542969 99.910156 171.003906 103.519531 170.257812 104.328125 C 166.953125 107.902344 172.679688 115.316406 176.277344 112.136719 C 177.574219 110.992188 177.746094 109.261719 176.46875 110.304688 C 171.761719 114.113281 171.570312 103.613281 176.144531 92.046875 C 179.949219 82.410156 177.269531 65.445312 171.941406 65.445312 C 171.238281 65.445312 169.84375 64.765625 168.835938 63.933594 C 166.378906 61.914062 162.058594 61.78125 160.484375 63.679688 C 159.828125 64.472656 159.324219 64.703125 159.078125 64.324219 C 157.136719 61.261719 165.945312 59.867188 169.265625 62.707031 C 173.328125 66.183594 180.023438 62.992188 177.304688 58.878906 C 176.890625 58.253906 176.753906 58.464844 176.753906 59.769531 C 176.726562 63.660156 174.363281 63.457031 169.808594 59.1875 C 165.066406 54.730469 160.167969 53.992188 153.796875 56.742188 C 145.976562 60.125 142.898438 69.351562 148.089844 73.871094 C 149.566406 75.160156 149.574219 74.945312 148.171875 71.460938 C 145.894531 65.816406 149.738281 57.785156 154.714844 57.785156 C 155.148438 57.785156 156.117188 57.378906 156.890625 56.886719 C 158.71875 55.71875 165.199219 56.117188 166.578125 57.484375 C 167.441406 58.339844 167.386719 58.375 165.820312 57.96875 C 151.195312 54.210938 143.238281 67.429688 153.671875 78.148438 C 157.566406 82.15625 151.726562 86.363281 147.234375 82.78125 C 139.847656 76.886719 124.636719 70.96875 124.636719 73.976562 C 124.636719 75.730469 123.214844 77.480469 121.785156 77.480469 C 120.847656 77.480469 120.839844 77.621094 121.585938 79.375 C 123.222656 83.195312 121.65625 87.328125 118.570312 87.328125 C 117.632812 87.328125 117.527344 87.636719 117.761719 89.65625 C 118.066406 92.25 117.238281 93.34375 114.3125 94.261719 C 111.890625 95.019531 112 95.71875 114.746094 97.015625 C 116.492188 97.84375 117.644531 98.9375 118.757812 100.828125 C 126.824219 114.421875 135.058594 124.183594 141.449219 127.703125 C 149.890625 132.363281 151.035156 134.972656 151.402344 150.546875 C 151.734375 164.753906 150.457031 169.914062 146.578125 169.949219 C 144.445312 169.96875 144.050781 170.816406 145.371094 172.570312 C 146.703125 174.328125 147.882812 174.371094 148.332031 172.675781 Z M 155.804688 137.78125 C 156.101562 134.957031 155.992188 134.160156 155.191406 133.304688 C 153.789062 131.789062 154.320312 130.871094 155.949219 131.992188 C 157.359375 132.953125 157.40625 138.070312 156.011719 140.304688 C 155.605469 140.957031 155.542969 140.222656 155.804688 137.78125 Z M 168.1875 117 C 164.453125 113.195312 164.046875 102.707031 167.523438 99.890625 C 168.648438 98.972656 168.621094 100.871094 167.476562 102.34375 C 165.207031 105.273438 166.757812 114.636719 169.941406 117.265625 C 170.996094 118.121094 171.167969 118.480469 170.546875 118.492188 C 170.058594 118.5 168.996094 117.828125 168.1875 117 Z M 145.371094 104.894531 C 145.371094 104.621094 144.742188 103.828125 143.976562 103.113281 C 142.582031 101.824219 142.125 100.457031 143.078125 100.457031 C 143.824219 100.457031 146.488281 103.695312 146.488281 104.601562 C 146.488281 105.035156 146.238281 105.378906 145.929688 105.378906 C 145.625 105.378906 145.371094 105.160156 145.371094 104.894531 Z M 146.191406 99.035156 C 146.613281 95.707031 145.984375 93.386719 144.058594 91.296875 C 142.636719 89.742188 143.167969 89.152344 144.949219 90.300781 C 147.28125 91.792969 148.578125 97.90625 147.273438 101.230469 C 146.460938 103.289062 145.8125 101.972656 146.191406 99.035156 Z M 169.457031 98.542969 C 169.457031 98.390625 170.210938 97.09375 171.128906 95.664062 C 172.210938 93.988281 172.804688 93.433594 172.8125 94.101562 C 172.824219 95.3125 170.714844 98.816406 169.976562 98.816406 C 169.691406 98.816406 169.457031 98.691406 169.457031 98.542969 Z M 173.289062 88.773438 C 173.390625 87.46875 173.226562 85.519531 172.929688 84.441406 C 172.300781 82.226562 172.617188 81.554688 173.804688 82.519531 C 174.984375 83.480469 174.40625 80.507812 172.902344 77.886719 C 171.707031 75.8125 172.183594 75.140625 173.765625 76.683594 C 174.246094 77.152344 174.722656 77.453125 174.820312 77.347656 C 175.324219 76.863281 173.714844 72.609375 172.902344 72.308594 C 169.679688 71.101562 168.683594 70.050781 170.4375 69.714844 C 171.308594 69.554688 171.285156 69.414062 170.183594 68.347656 C 168.609375 66.792969 165.289062 65.902344 163.550781 66.546875 C 162.816406 66.820312 162.085938 66.828125 161.921875 66.574219 C 161.195312 65.425781 166.035156 65.039062 168.71875 66.027344 C 170.582031 66.714844 173.136719 69.28125 173.695312 71.039062 C 173.910156 71.726562 174.261719 72.40625 174.46875 72.554688 C 175.925781 73.625 177.285156 78.953125 176.339844 79.878906 C 176.117188 80.101562 176.007812 81.097656 176.097656 82.101562 C 176.1875 83.109375 175.992188 84.097656 175.65625 84.292969 C 175.332031 84.492188 175.0625 85.96875 175.0625 87.574219 C 175.0625 90.183594 174.550781 91.15625 173.191406 91.15625 C 173.136719 91.15625 173.183594 90.089844 173.289062 88.773438 Z M 149.855469 86.507812 C 148.835938 85.457031 148.738281 85.136719 149.40625 85.136719 C 149.882812 85.136719 150.582031 85.507812 150.96875 85.957031 C 151.878906 87.027344 153.464844 87 155.191406 85.898438 C 156.917969 84.792969 157.046875 85.851562 155.328125 87.027344 C 153.5 88.269531 151.359375 88.078125 149.855469 86.507812 Z M 153.839844 73.386719 C 150.179688 69.503906 150.828125 64.949219 155.542969 61.445312 C 157.511719 59.980469 160.941406 58.816406 160.304688 59.832031 C 160.105469 60.140625 159.3125 60.554688 158.539062 60.742188 C 155.875 61.394531 153.238281 64.535156 152.898438 67.457031 C 152.589844 70.09375 152.589844 70.09375 153.699219 67.90625 C 155.039062 65.242188 157.414062 62.921875 157.945312 63.757812 C 158.152344 64.085938 158.089844 64.351562 157.808594 64.351562 C 155.507812 64.351562 153.453125 70.667969 155.074219 72.777344 C 158.082031 76.683594 157.316406 77.066406 153.839844 73.386719 Z M 46.769531 167.019531 C 47.535156 165.097656 48.460938 163.171875 48.8125 162.757812 C 49.171875 162.34375 52.375 153.265625 55.941406 142.589844 C 59.496094 131.902344 62.96875 121.730469 63.644531 119.992188 C 64.769531 117.070312 64.796875 116.742188 63.976562 115.933594 C 63.148438 115.128906 63.050781 115.183594 62.699219 116.515625 C 62.492188 117.316406 61.914062 118.207031 61.410156 118.492188 C 60.636719 118.914062 60.601562 119.179688 61.195312 120.125 C 61.761719 121.023438 61.761719 121.464844 61.203125 122.339844 C 60.449219 123.519531 59.367188 123.769531 58.808594 122.886719 C 58.621094 122.585938 58.992188 122.339844 59.636719 122.339844 C 60.636719 122.339844 60.71875 122.179688 60.214844 121.242188 C 59.753906 120.414062 59.035156 120.148438 57.246094 120.148438 C 54.355469 120.148438 51.65625 117.839844 52.1875 115.835938 C 52.628906 114.195312 53.617188 114.660156 54.175781 116.769531 C 54.4375 117.730469 54.878906 118.507812 55.164062 118.507812 C 55.453125 118.507812 55.550781 118.148438 55.371094 117.6875 C 55.175781 117.175781 55.371094 116.867188 55.914062 116.867188 C 56.390625 116.867188 56.9375 117.363281 57.128906 117.960938 C 57.488281 119.074219 58.53125 119.496094 58.53125 118.542969 C 58.53125 118.253906 59.160156 117.363281 59.925781 116.550781 C 60.691406 115.738281 61.554688 114.316406 61.84375 113.375 C 62.132812 112.4375 62.617188 110.867188 62.933594 109.886719 C 63.453125 108.230469 63.382812 108.054688 61.851562 107.277344 C 59.78125 106.226562 59.664062 105.132812 61.679688 105.625 C 63.003906 105.945312 63.066406 105.898438 62.277344 105.132812 C 61.292969 104.179688 60.519531 102.167969 60.960938 101.734375 C 61.113281 101.578125 61.636719 102.175781 62.105469 103.058594 C 63.023438 104.796875 65.246094 106.472656 66.632812 106.472656 C 67.757812 106.472656 67.738281 107.382812 66.605469 108 C 65.792969 108.449219 65.792969 108.566406 66.605469 109.359375 C 67.808594 110.53125 67.71875 111 66.371094 110.578125 C 65.605469 110.339844 65.253906 110.480469 65.253906 111.027344 C 65.253906 112.226562 68.054688 112.519531 69.65625 111.492188 C 70.644531 110.859375 71.113281 110.789062 71.265625 111.246094 C 71.390625 111.601562 71.796875 111.769531 72.167969 111.625 C 72.542969 111.492188 73.34375 111.75 73.957031 112.199219 C 74.992188 112.96875 74.9375 113.003906 73.183594 112.675781 C 71.914062 112.445312 71.160156 112.570312 70.851562 113.054688 C 70.574219 113.480469 69.476562 113.734375 68.109375 113.683594 C 65.8125 113.59375 65.03125 114.273438 66.703125 114.898438 C 68.71875 115.648438 71.851562 115.269531 71.769531 114.273438 C 71.691406 113.257812 71.734375 113.25 74.777344 113.859375 C 76.378906 114.175781 76.613281 114.125 76.035156 113.53125 C 74.9375 112.410156 75.21875 111.671875 76.359375 112.683594 C 77.738281 113.902344 80.859375 113.980469 79.617188 112.765625 C 79.160156 112.316406 78.449219 111.933594 78.042969 111.925781 C 76.414062 111.890625 73.460938 108.660156 75.054688 108.660156 C 75.523438 108.660156 75.902344 108.910156 75.902344 109.207031 C 75.902344 110.375 80.824219 112.058594 83.308594 111.75 C 84.621094 111.589844 86.414062 111.441406 87.277344 111.421875 C 88.140625 111.414062 88.699219 111.160156 88.519531 110.867188 C 88.332031 110.578125 87.429688 110.488281 86.523438 110.664062 C 85.386719 110.886719 84.867188 110.769531 84.867188 110.304688 C 84.867188 109.78125 85.863281 109.683594 88.816406 109.886719 C 91.527344 110.074219 92.984375 109.949219 93.460938 109.492188 C 93.828125 109.128906 95.394531 108.625 96.925781 108.386719 C 99.320312 108.007812 99.507812 107.894531 98.3125 107.550781 C 97.339844 107.277344 98.023438 107.125 100.550781 107.082031 C 102.550781 107.046875 106.457031 106.976562 109.226562 106.921875 C 114.671875 106.835938 117.914062 107.320312 117.914062 108.230469 C 117.914062 108.582031 116.664062 108.707031 114.554688 108.554688 C 112.097656 108.386719 111.191406 108.503906 111.191406 109.007812 C 111.191406 110.222656 112.296875 110.417969 116.859375 110.03125 C 121.757812 109.605469 122.214844 109.042969 119.003906 107.417969 C 117.941406 106.886719 117.128906 106.242188 117.195312 105.988281 C 117.257812 105.730469 116.691406 104.957031 115.933594 104.269531 C 113.746094 102.257812 114.339844 101.839844 116.734375 103.695312 C 119.867188 106.113281 120.351562 105.75 117.355469 103.21875 C 115.96875 102.054688 115.015625 100.914062 115.242188 100.695312 C 115.464844 100.480469 116.148438 100.886719 116.761719 101.613281 C 118.121094 103.199219 118.273438 102.589844 116.996094 100.683594 C 115.511719 98.46875 112.757812 97.296875 111.246094 98.222656 C 110.605469 98.621094 110.8125 99.148438 112.296875 100.976562 C 114.851562 104.136719 113.871094 104.542969 111.164062 101.445312 C 109.453125 99.484375 108.445312 98.832031 106.71875 98.542969 C 105.492188 98.339844 103.601562 97.589844 102.515625 96.875 C 100.796875 95.734375 100.550781 95.683594 100.542969 96.503906 C 100.535156 100.402344 96.140625 102.210938 92.28125 99.917969 C 90.949219 99.125 90.464844 99.027344 90.464844 99.554688 C 90.464844 100.828125 88.394531 102.195312 86.726562 102.035156 C 85.855469 101.945312 84.515625 102.265625 83.742188 102.742188 C 81.929688 103.851562 75.398438 103.933594 72.789062 102.875 C 69.167969 101.390625 65.226562 92.796875 67.539062 91.402344 C 67.917969 91.171875 67.683594 90.574219 66.875 89.734375 C 65.640625 88.445312 66.089844 87.8125 67.359375 89.054688 C 67.855469 89.542969 68.277344 89.375 69.132812 88.367188 C 70.65625 86.59375 70.628906 87.945312 69.089844 91.058594 C 67.765625 93.730469 68.027344 95.382812 70.410156 99.230469 C 71.84375 101.542969 72.355469 101.46875 73.453125 98.78125 C 74.03125 97.375 74.558594 96.75 74.902344 97.078125 C 75.234375 97.402344 75.109375 98.214844 74.542969 99.273438 C 73.292969 101.636719 74.515625 103.148438 77.035156 102.363281 C 79.996094 101.453125 78.1875 94.367188 74.597656 92.789062 C 71.167969 91.269531 69.925781 90.203125 70.726562 89.425781 C 71.210938 88.949219 71.574219 88.957031 72.203125 89.46875 C 72.886719 90.027344 73.273438 89.945312 74.289062 89.019531 C 75.703125 87.730469 75.34375 87.054688 73.238281 87.054688 C 72.445312 87.054688 71.691406 86.734375 71.554688 86.347656 C 71.375 85.835938 71.707031 85.738281 72.761719 85.992188 C 74.460938 86.410156 75.324219 85.078125 74.210938 83.761719 C 73.640625 83.101562 73.6875 82.949219 74.445312 82.949219 C 74.957031 82.949219 75.523438 83.328125 75.703125 83.789062 C 75.882812 84.246094 76.695312 84.996094 77.503906 85.457031 C 78.980469 86.285156 78.980469 86.285156 77.441406 85.976562 C 76.054688 85.695312 75.890625 85.816406 75.882812 87.175781 C 75.875 88.015625 75.496094 89.171875 75.039062 89.753906 C 73.984375 91.121094 74.003906 91.703125 75.101562 91.703125 C 76.59375 91.703125 79.257812 94.746094 79.257812 96.449219 C 79.265625 99.371094 80.347656 102.097656 81.507812 102.097656 C 84.992188 102.097656 84.074219 92.734375 80.367188 90.476562 C 78.898438 89.578125 78.960938 89.066406 80.519531 89.347656 C 82.976562 89.796875 84.144531 88.28125 82.722656 86.507812 C 82.046875 85.675781 81.507812 84.34375 81.527344 83.558594 C 81.542969 82.207031 81.609375 82.242188 82.640625 84.140625 C 83.992188 86.648438 84.542969 86.992188 85.972656 86.242188 C 87.808594 85.28125 87.324219 83.699219 84.648438 81.898438 C 83.039062 80.824219 82.09375 79.738281 81.90625 78.742188 C 81.625 77.328125 81.660156 77.292969 82.390625 78.273438 C 82.832031 78.855469 83.183594 79.527344 83.183594 79.773438 C 83.183594 80.011719 83.496094 80.214844 83.894531 80.214844 C 84.28125 80.214844 85.496094 80.804688 86.585938 81.53125 C 88.035156 82.492188 88.816406 82.703125 89.507812 82.324219 C 90.128906 81.988281 90.464844 81.996094 90.464844 82.351562 C 90.464844 82.648438 90.078125 83.109375 89.609375 83.363281 C 89.132812 83.621094 88.3125 84.679688 87.78125 85.71875 C 87.257812 86.753906 86.25 87.847656 85.558594 88.136719 C 84.867188 88.4375 84.296875 88.878906 84.296875 89.117188 C 84.296875 89.355469 83.804688 89.734375 83.183594 89.957031 C 82.09375 90.34375 82.101562 90.40625 83.480469 92.304688 C 84.261719 93.371094 85.109375 95.53125 85.359375 97.113281 C 85.882812 100.332031 86.585938 101.320312 87.988281 100.792969 C 89.300781 100.296875 88.734375 90.980469 87.296875 89.417969 C 86.496094 88.554688 86.484375 88.421875 87.222656 88.421875 C 88.554688 88.421875 89.183594 89.53125 89.609375 92.648438 C 90.375 98.1875 95.800781 101.929688 98.105469 98.507812 C 99.382812 96.609375 97.050781 91.648438 92.8125 87.246094 C 91.175781 85.542969 90.058594 84.019531 90.335938 83.851562 C 90.984375 83.453125 96.648438 89.1875 98.328125 91.941406 C 100.085938 94.808594 100.410156 93.484375 98.851562 89.753906 C 97.707031 86.992188 92.949219 81.855469 91.535156 81.855469 C 91.265625 81.855469 90.894531 81.257812 90.707031 80.53125 C 89.949219 77.585938 86.574219 75.519531 85.152344 77.136719 C 83.550781 78.953125 83.054688 78.960938 83.757812 77.171875 C 84.613281 74.972656 84.433594 74.460938 82.480469 73.464844 C 80.664062 72.53125 80.664062 72.53125 83.039062 72.757812 C 85.847656 73.042969 86.429688 71.628906 84.039062 70.375 C 82.507812 69.574219 82.695312 68.496094 84.28125 68.992188 C 85.628906 69.40625 86.179688 67.90625 85.082031 66.828125 C 84.605469 66.363281 83.859375 65.992188 83.425781 65.992188 C 82.433594 65.992188 82.363281 65.101562 83.316406 64.683594 C 83.703125 64.519531 83.390625 64.429688 82.625 64.5 C 81.597656 64.589844 81.167969 64.984375 81.03125 65.992188 C 80.804688 67.578125 79.421875 69.273438 78.332031 69.273438 C 77.160156 69.273438 77.449219 68.292969 78.738281 67.898438 C 79.664062 67.605469 79.816406 67.234375 79.539062 65.992188 C 79.222656 64.589844 79.375 64.394531 81.328125 63.785156 C 84.820312 62.683594 85.855469 61.445312 83.742188 60.910156 C 82.433594 60.574219 82.21875 59.425781 83.460938 59.425781 C 83.921875 59.425781 84.296875 59.671875 84.296875 59.972656 C 84.296875 60.273438 84.917969 60.519531 85.667969 60.519531 C 86.539062 60.519531 87.152344 60.917969 87.386719 61.613281 C 87.574219 62.214844 88.214844 62.707031 88.796875 62.707031 C 89.382812 62.707031 90.75 63.125 91.832031 63.625 C 93.675781 64.480469 93.867188 64.480469 94.835938 63.625 C 95.40625 63.125 96.167969 62.707031 96.53125 62.707031 C 96.890625 62.707031 97.1875 62.339844 97.1875 61.886719 C 97.1875 61.4375 97.4375 61.066406 97.746094 61.066406 C 98.90625 61.066406 98.25 59.964844 96.59375 59.136719 C 94.332031 57.988281 90.894531 58.253906 90.699219 59.585938 C 90.527344 60.769531 89.417969 62.160156 88.65625 62.160156 C 88.347656 62.160156 88.257812 61.765625 88.449219 61.289062 C 89.582031 58.402344 89.5 57.785156 88.007812 57.785156 C 86.117188 57.785156 86.0625 56.355469 87.945312 56.011719 C 88.90625 55.828125 89.347656 55.984375 89.347656 56.53125 C 89.347656 57.875 91.839844 57.132812 92.046875 55.730469 C 92.238281 54.386719 93.261719 54.007812 93.261719 55.28125 C 93.261719 58.042969 99.789062 58.851562 102.621094 56.445312 C 104.53125 54.820312 104.007812 53.488281 101.054688 52.480469 C 98.734375 51.6875 93.695312 51.566406 92.949219 52.289062 C 92.191406 53.03125 89.121094 53.25 88.78125 52.589844 C 88.628906 52.289062 89.003906 52.042969 89.617188 52.042969 C 91.265625 52.042969 91.308594 50.328125 89.691406 49.289062 C 88.472656 48.519531 87.996094 48.492188 86.304688 49.085938 C 84.027344 49.886719 82.941406 49.316406 84.558594 48.160156 C 86.234375 46.957031 90.996094 47.683594 92.445312 49.359375 C 94.324219 51.519531 105.59375 50.9375 105.59375 48.6875 C 105.59375 45.996094 99.410156 44.636719 93.066406 45.925781 C 87 47.152344 80.429688 46.316406 83.164062 44.664062 C 84.039062 44.132812 85.757812 44.542969 86.546875 45.476562 C 87.664062 46.800781 92.148438 44.792969 92.148438 42.96875 C 92.148438 41.859375 90.210938 40.574219 89.328125 41.101562 C 89.03125 41.285156 88.78125 41.75 88.78125 42.136719 C 88.78125 43.050781 86.144531 44.25 85.695312 43.535156 C 85.503906 43.246094 85.746094 43.011719 86.234375 43.011719 C 87.375 43.011719 87.347656 41.445312 86.171875 40.179688 C 85.007812 38.925781 85.65625 38.171875 87.125 39.066406 C 88.65625 40 90.175781 39.890625 92.765625 38.664062 C 95.324219 37.464844 97.554688 37.710938 95.753906 38.996094 C 95.199219 39.398438 94.28125 39.726562 93.722656 39.726562 C 92.597656 39.726562 92.363281 40.550781 93.316406 41.128906 C 93.660156 41.332031 93.820312 42.046875 93.695312 42.714844 C 93.316406 44.625 100.550781 44.03125 105.738281 41.726562 C 109.796875 39.921875 109.976562 39.566406 107.679688 37.890625 C 106.277344 36.871094 105.960938 36.851562 102.164062 37.550781 C 97.761719 38.363281 94.378906 37.332031 93.902344 35.039062 C 93.738281 34.25 94.054688 34.347656 95.503906 35.539062 C 97.664062 37.316406 99.6875 37.167969 104.429688 34.894531 C 109.625 32.40625 107.023438 31.683594 98.105469 33.144531 C 94.640625 33.710938 93.164062 33.625 93.910156 32.898438 C 94.054688 32.753906 96.0625 32.285156 98.367188 31.851562 C 104.1875 30.765625 113.429688 26.207031 113.429688 24.421875 C 113.429688 22.722656 106.886719 22.796875 104.78125 24.519531 C 104.484375 24.761719 103.875 24.957031 103.421875 24.957031 C 102.972656 24.957031 102.199219 25.28125 101.714844 25.679688 C 101.226562 26.078125 99.761719 26.734375 98.445312 27.136719 C 97.140625 27.539062 96.070312 28.035156 96.070312 28.242188 C 96.070312 29.199219 93.371094 31.484375 91.867188 31.808594 C 90.183594 32.167969 90.183594 32.167969 91.824219 31.0625 C 95.324219 28.691406 94.910156 27.183594 90.742188 27.136719 C 88.914062 27.117188 88.691406 27.007812 89.507812 26.539062 C 90.066406 26.226562 91.390625 26.082031 92.453125 26.222656 C 94.59375 26.503906 94.917969 25.890625 93.460938 24.316406 C 92.652344 23.445312 92.640625 23.316406 93.386719 23.316406 C 94.566406 23.316406 95.703125 24.765625 95.304688 25.769531 C 94.152344 28.695312 102.621094 24.4375 104.324219 21.238281 C 105.339844 19.332031 105.324219 19.332031 99.101562 20.882812 C 81.839844 25.191406 81.859375 25.179688 75.929688 36.945312 C 70.617188 47.488281 70.644531 47.207031 74.039062 59.902344 C 76.9375 70.710938 75.15625 76.253906 67.179688 81.292969 C 60.871094 85.269531 59.289062 90.554688 63.886719 92.269531 C 67.296875 93.53125 64.128906 95.613281 60.546875 94.457031 C 55.320312 92.769531 54.832031 86.542969 59.546875 81.722656 C 61.554688 79.667969 61.554688 79.667969 59.25 80.558594 C 55.472656 82.007812 53.023438 84.820312 54.320312 86.222656 C 55.785156 87.804688 54.984375 88.191406 52.816406 86.957031 C 48.75 84.644531 50.378906 80.074219 55.949219 78.195312 C 58.808594 77.222656 58.808594 77.222656 54.851562 76.914062 C 42.976562 75.980469 40.730469 63.042969 52.484375 63.292969 C 54.328125 63.335938 54.328125 63.335938 52.070312 64.316406 C 45.804688 67.042969 49.667969 74.566406 56.46875 72.898438 C 60.242188 71.972656 60.960938 70.410156 58.585938 68.269531 C 55.8125 65.753906 53.859375 60.070312 52.925781 51.839844 C 51.394531 38.265625 45.464844 26.3125 42.289062 30.417969 C 40.398438 32.867188 40.558594 31.234375 42.589844 27.316406 C 44.539062 23.558594 44.585938 18.9375 42.675781 18.9375 C 41.898438 18.9375 39.339844 24.988281 39.050781 27.507812 C 38.898438 28.828125 38.539062 30.046875 38.253906 30.21875 C 37.96875 30.390625 38.191406 30.871094 38.746094 31.28125 C 39.304688 31.695312 39.511719 32.035156 39.203125 32.035156 C 37.902344 32.035156 36.445312 30.4375 37.132812 29.769531 C 38.074219 28.847656 37.976562 26.597656 36.992188 26.597656 C 35.816406 26.597656 35.359375 27.621094 36.136719 28.53125 C 36.671875 29.160156 36.613281 29.394531 35.839844 29.683594 C 34.300781 30.261719 31.941406 29.1875 31.738281 27.816406 C 31.640625 27.144531 31.328125 26.597656 31.039062 26.597656 C 30.753906 26.597656 30.519531 26.324219 30.519531 25.992188 C 30.519531 25.660156 30.886719 25.523438 31.339844 25.695312 C 31.792969 25.863281 32.3125 25.765625 32.492188 25.480469 C 33.175781 24.402344 33.910156 24.96875 33.296875 26.09375 C 31.980469 28.492188 33.246094 29.121094 35.0625 26.96875 C 35.996094 25.863281 37.144531 24.957031 37.609375 24.957031 C 38.074219 24.957031 38.351562 24.648438 38.222656 24.273438 C 38.0625 23.796875 35.949219 23.503906 31.3125 23.316406 C 24.390625 23.03125 21.722656 22.257812 20.480469 20.167969 C 19.996094 19.363281 19.90625 19.347656 19.890625 20.074219 C 19.855469 21.800781 23.40625 24.144531 27.65625 25.207031 C 30.898438 26.011719 22.492188 30.5 12.457031 33.316406 C 6.734375 34.921875 5.886719 35.328125 4.019531 37.34375 C 1.238281 40.351562 1.320312 40.457031 6.007812 40.019531 C 13.421875 39.328125 15.207031 39.394531 16.359375 40.414062 C 17.824219 41.707031 18.34375 41.617188 17.898438 40.136719 C 17.558594 39.015625 17.664062 39.046875 19.066406 40.480469 C 19.914062 41.347656 21.765625 42.570312 23.183594 43.199219 C 25.257812 44.125 25.519531 44.382812 24.53125 44.53125 C 23.859375 44.632812 22.472656 44.296875 21.453125 43.777344 C 18 42.03125 16.300781 41.953125 11.941406 43.347656 C 9.699219 44.066406 7.433594 44.652344 6.90625 44.652344 C 6.015625 44.652344 3.917969 46.21875 4.304688 46.589844 C 4.402344 46.683594 5.863281 46.296875 7.554688 45.722656 C 11.472656 44.402344 14.558594 44.269531 12.902344 45.492188 C 12.304688 45.933594 11.171875 46.296875 10.382812 46.304688 C 7.636719 46.316406 7.5 47.136719 10.117188 47.886719 C 12.476562 48.574219 12.890625 48.519531 16.121094 47.230469 C 21.226562 45.1875 24.316406 44.980469 29.035156 46.351562 C 37.25 48.742188 43.402344 46.480469 43.402344 41.078125 C 43.402344 39.332031 44.71875 39.511719 44.984375 41.296875 C 45.210938 42.800781 42.617188 47.222656 41.300781 47.578125 C 37.433594 48.609375 34.148438 49.113281 32.84375 48.855469 C 31.3125 48.554688 31.3125 48.554688 31.835938 51.660156 C 32.308594 54.46875 32.210938 55.128906 30.84375 58.332031 C 25.964844 69.75 26.507812 83.699219 32.175781 92.410156 C 34.324219 95.707031 34.328125 96.160156 32.199219 94.164062 C 30.269531 92.355469 30.292969 92.25 31.3125 97.898438 C 32.03125 101.875 32.757812 103.933594 32.757812 101.980469 C 32.757812 101.515625 33.136719 100.835938 33.601562 100.457031 C 34.300781 99.890625 34.4375 99.960938 34.4375 100.90625 C 34.4375 101.523438 34.164062 102.203125 33.828125 102.40625 C 33.214844 102.777344 33.347656 104.195312 34.175781 106.136719 C 34.882812 107.789062 33.238281 106.941406 32.203125 105.113281 C 30.585938 102.265625 30.3125 102.28125 19.847656 105.925781 C 5.671875 110.875 5.730469 110.824219 6.898438 116.152344 C 7.214844 117.601562 7.761719 122.972656 8.113281 128.082031 C 8.910156 139.667969 8.824219 139.269531 11.1875 142.03125 C 12.265625 143.292969 13.148438 144.890625 13.148438 145.589844 C 13.148438 148.332031 14.992188 149.53125 17.328125 148.316406 C 20.558594 146.628906 20.722656 146.144531 18.480469 144.847656 C 16.195312 143.53125 15.390625 141.875 15.390625 138.46875 C 15.390625 137.144531 15.039062 135 14.613281 133.710938 C 8.960938 116.683594 10.816406 113.046875 25.148438 113.039062 C 30.054688 113.039062 33.90625 112.886719 33.710938 112.695312 C 33.515625 112.5 30.636719 112.332031 27.3125 112.316406 C 23.992188 112.304688 21.714844 112.199219 22.253906 112.078125 C 22.792969 111.960938 23.234375 111.609375 23.234375 111.300781 C 23.234375 110.980469 23.660156 110.902344 24.214844 111.125 C 24.753906 111.335938 25.511719 111.625 25.894531 111.785156 C 26.304688 111.945312 26.605469 111.644531 26.613281 111.042969 C 26.632812 110.089844 26.679688 110.089844 27.488281 111.125 C 28.316406 112.183594 28.375 112.183594 29.105469 111.21875 C 29.714844 110.417969 30.09375 110.339844 30.996094 110.804688 C 32.847656 111.777344 33.605469 111.519531 32.480469 110.304688 C 31.152344 108.875 32.199219 108.898438 34.082031 110.347656 C 35.886719 111.730469 36.050781 110.945312 34.292969 109.332031 C 33.363281 108.484375 32.554688 108.246094 31.261719 108.441406 C 30.289062 108.589844 29.347656 108.484375 29.167969 108.203125 C 28.695312 107.453125 31.339844 106.941406 32.859375 107.488281 C 33.574219 107.753906 34.472656 107.851562 34.859375 107.71875 C 35.246094 107.585938 35.558594 107.742188 35.558594 108.070312 C 35.558594 108.398438 35.9375 108.660156 36.402344 108.660156 C 36.863281 108.660156 37.242188 108.925781 37.242188 109.242188 C 37.242188 109.5625 37.492188 109.667969 37.800781 109.480469 C 38.703125 108.945312 38.480469 103.386719 37.519531 102.449219 C 37.058594 102 36.710938 101.054688 36.746094 100.359375 C 36.804688 99.238281 36.84375 99.21875 37.082031 100.183594 C 37.230469 100.78125 37.875 101.832031 38.515625 102.511719 C 39.15625 103.183594 39.492188 103.738281 39.265625 103.738281 C 39.039062 103.738281 39.050781 104.046875 39.292969 104.425781 C 39.53125 104.796875 39.660156 105.617188 39.578125 106.234375 C 39.496094 106.851562 39.976562 107.832031 40.644531 108.421875 C 43.078125 110.550781 41.152344 103.792969 38.148438 99.644531 C 36.574219 97.480469 35.484375 95.425781 36.105469 95.796875 C 36.378906 95.964844 36.679688 95.558594 36.78125 94.898438 C 36.878906 94.242188 37.277344 93.601562 37.664062 93.476562 C 38.203125 93.300781 38.238281 93.589844 37.804688 94.703125 C 36.5625 97.898438 38.335938 98.242188 39.984375 95.125 C 40.582031 93.996094 42.351562 91.851562 43.917969 90.351562 C 45.480469 88.863281 46.769531 87.203125 46.769531 86.664062 C 46.769531 86.125 47.011719 85.683594 47.300781 85.683594 C 47.597656 85.683594 48.117188 84.695312 48.441406 83.496094 C 48.984375 81.566406 50.125 80.425781 50.125 81.828125 C 50.125 82.640625 48.820312 85.332031 48.027344 86.136719 C 47.640625 86.53125 47.328125 87.195312 47.328125 87.609375 C 47.328125 88.023438 46.679688 89.046875 45.886719 89.886719 C 43.984375 91.886719 39.476562 98.066406 39.5 98.636719 C 39.511719 98.886719 40.644531 97.878906 42.015625 96.398438 C 44.992188 93.183594 45.914062 93.398438 43.472656 96.730469 C 41.171875 99.863281 40.292969 103.800781 42.457031 101.277344 C 44.285156 99.148438 44.800781 99.695312 43.390625 102.265625 C 42.234375 104.375 41.957031 105.925781 42.742188 105.925781 C 42.996094 105.925781 43.773438 104.824219 44.464844 103.464844 C 45.167969 102.097656 46.121094 101.003906 46.617188 101.003906 C 47.40625 101.003906 47.40625 101.109375 46.570312 102.007812 C 46.058594 102.554688 45.644531 103.367188 45.644531 103.808594 C 45.644531 104.25 45.328125 104.929688 44.945312 105.308594 C 44.382812 105.863281 44.414062 106.128906 45.085938 106.648438 C 45.996094 107.339844 45.929688 109.757812 45.011719 109.757812 C 44.707031 109.757812 44.613281 109.507812 44.804688 109.207031 C 44.996094 108.910156 44.882812 108.660156 44.558594 108.660156 C 44.230469 108.660156 43.964844 109.402344 43.964844 110.304688 C 43.964844 111.953125 44.765625 112.542969 45.246094 111.265625 C 45.390625 110.886719 45.699219 111.316406 45.929688 112.21875 C 46.777344 115.464844 48.15625 115.296875 48.191406 111.933594 C 48.207031 110.742188 48.550781 109.457031 48.957031 109.078125 C 49.566406 108.511719 49.628906 108.847656 49.316406 110.992188 C 49.074219 112.695312 49.144531 113.585938 49.53125 113.585938 C 49.855469 113.585938 50.132812 113.152344 50.144531 112.632812 C 50.160156 111.757812 50.214844 111.769531 50.773438 112.703125 C 51.105469 113.269531 51.367188 114.75 51.339844 115.984375 C 50.71875 145.050781 45.914062 166.648438 39.480469 169.261719 C 36.90625 170.304688 36.960938 170.160156 38.390625 172.050781 C 40.375 174.671875 44.761719 172.03125 46.769531 167.019531 Z M 51.808594 145.976562 C 51.808594 145.351562 52.078125 144.679688 52.402344 144.476562 C 52.746094 144.273438 52.84375 143.445312 52.636719 142.535156 C 52.402344 141.476562 52.5 140.945312 52.941406 140.945312 C 53.375 140.945312 53.484375 140.460938 53.257812 139.578125 C 52.824219 137.902344 53.507812 137.789062 54.515625 139.367188 C 55.046875 140.195312 55.09375 140.691406 54.652344 141.113281 C 54.320312 141.441406 54.050781 142.296875 54.050781 143.019531 C 54.050781 143.734375 53.546875 144.953125 52.925781 145.71875 C 51.878906 147.019531 51.808594 147.035156 51.808594 145.976562 Z M 80.636719 109.71875 C 80.09375 108.875 80.796875 108.414062 81.625 109.078125 C 82.023438 109.386719 82.847656 109.765625 83.460938 109.90625 C 84.207031 110.089844 83.984375 110.195312 82.796875 110.242188 C 81.816406 110.277344 80.84375 110.046875 80.636719 109.71875 Z M 89.238281 108.546875 C 89.535156 108.257812 90.257812 108.113281 90.824219 108.230469 C 91.597656 108.386719 91.453125 108.53125 90.285156 108.757812 C 89.257812 108.960938 88.886719 108.890625 89.238281 108.546875 Z M 91.722656 107.195312 C 92.261719 107.054688 93.144531 107.054688 93.683594 107.195312 C 94.226562 107.328125 93.785156 107.445312 92.703125 107.445312 C 91.625 107.445312 91.183594 107.328125 91.722656 107.195312 Z M 68.808594 106.480469 C 67.578125 105.996094 66.632812 104.945312 67.0625 104.53125 C 67.191406 104.398438 68.289062 104.753906 69.503906 105.308594 C 70.707031 105.875 72.078125 106.464844 72.535156 106.632812 C 72.996094 106.800781 72.617188 106.941406 71.699219 106.941406 C 70.773438 106.949219 69.476562 106.738281 68.808594 106.480469 Z M 110.351562 105.925781 C 109.914062 105.230469 111.207031 105.230469 112.316406 105.925781 C 113 106.359375 112.925781 106.464844 111.929688 106.464844 C 111.253906 106.472656 110.542969 106.226562 110.351562 105.925781 Z M 99.894531 105.492188 C 98.457031 105.398438 96.96875 104.964844 96.601562 104.53125 C 95.800781 103.578125 96.402344 103.535156 98.796875 104.347656 C 100.128906 104.796875 100.992188 104.789062 102.171875 104.3125 C 103.53125 103.765625 104.097656 103.835938 105.933594 104.796875 C 107.886719 105.820312 107.960938 105.925781 106.671875 105.925781 C 105.898438 105.925781 104.960938 105.644531 104.601562 105.292969 C 104.199219 104.894531 103.683594 104.851562 103.234375 105.160156 C 102.839844 105.433594 101.335938 105.582031 99.894531 105.492188 Z M 106.914062 103.5 C 105.953125 103.085938 105 102.484375 104.78125 102.148438 C 104.261719 101.320312 104.683594 101.390625 107.417969 102.601562 C 108.722656 103.171875 110.171875 103.765625 110.632812 103.921875 C 111.101562 104.074219 110.859375 104.214844 110.074219 104.222656 C 109.300781 104.230469 107.886719 103.90625 106.914062 103.5 Z M 109.226562 101.804688 C 107.960938 100.746094 107.804688 100.457031 108.609375 100.570312 C 109.183594 100.660156 110.039062 101.285156 110.496094 101.964844 C 111.570312 103.542969 111.308594 103.507812 109.226562 101.804688 Z M 45.085938 98.363281 C 45.085938 97.703125 46.148438 96.933594 46.535156 97.316406 C 46.679688 97.457031 46.410156 97.878906 45.941406 98.257812 C 45.410156 98.691406 45.085938 98.734375 45.085938 98.363281 Z M 46.003906 93.070312 C 46.183594 92.621094 46.425781 92.25 46.542969 92.25 C 46.667969 92.25 46.769531 92.621094 46.769531 93.070312 C 46.769531 93.519531 46.515625 93.890625 46.21875 93.890625 C 45.921875 93.890625 45.824219 93.519531 46.003906 93.070312 Z M 42.28125 88.535156 C 42.28125 88.242188 42.691406 87.679688 43.1875 87.273438 C 43.972656 86.636719 44.066406 86.683594 43.886719 87.574219 C 43.679688 88.632812 42.28125 89.46875 42.28125 88.535156 Z M 41.808594 84.042969 C 42.390625 82.410156 43.417969 81.785156 43.386719 83.082031 C 43.367188 83.839844 42.066406 85.683594 41.550781 85.683594 C 41.371094 85.683594 41.484375 84.945312 41.808594 84.042969 Z M 40.042969 81.714844 C 40.046875 81.34375 40.695312 80.292969 41.492188 79.394531 C 42.402344 78.351562 42.8125 78.125 42.605469 78.757812 C 42.425781 79.316406 42.125 80.363281 41.941406 81.089844 C 41.59375 82.429688 40.039062 82.949219 40.042969 81.714844 Z M 39.15625 78.433594 C 39.335938 78.0625 39.625 77.375 39.796875 76.90625 C 39.972656 76.4375 40.628906 75.742188 41.257812 75.363281 C 41.890625 74.972656 42.296875 74.859375 42.160156 75.113281 C 42.027344 75.363281 41.566406 76.367188 41.136719 77.339844 C 40.707031 78.316406 40.011719 79.121094 39.59375 79.121094 C 39.171875 79.121094 38.976562 78.8125 39.15625 78.433594 Z M 79.519531 76.898438 C 78.917969 75.945312 79.601562 75.742188 80.367188 76.640625 C 80.804688 77.160156 80.851562 77.480469 80.484375 77.480469 C 80.160156 77.480469 79.71875 77.214844 79.519531 76.898438 Z M 38.363281 75.148438 C 38.367188 74.089844 41.007812 71.136719 41.515625 71.628906 C 41.765625 71.867188 41.71875 72.238281 41.414062 72.449219 C 41.109375 72.652344 40.554688 73.507812 40.183594 74.328125 C 39.488281 75.875 38.359375 76.386719 38.363281 75.148438 Z M 38.382812 71.074219 C 38.371094 70.386719 38.871094 69.589844 39.53125 69.246094 C 41.226562 68.363281 41.300781 68.816406 39.757812 70.660156 C 38.480469 72.183594 38.398438 72.210938 38.382812 71.074219 Z M 38.363281 68.304688 C 38.363281 67.703125 41.820312 64.808594 42.148438 65.125 C 42.472656 65.445312 39.398438 68.726562 38.785156 68.726562 C 38.550781 68.726562 38.363281 68.53125 38.363281 68.304688 Z M 38.363281 65.71875 C 38.363281 65.207031 40.597656 63.257812 41.175781 63.257812 C 41.492188 63.257812 41.335938 63.875 40.832031 64.625 C 40.042969 65.796875 38.363281 66.539062 38.363281 65.71875 Z M 40.042969 57.238281 C 40.042969 56.9375 40.292969 56.691406 40.601562 56.691406 C 40.910156 56.691406 41.164062 56.9375 41.164062 57.238281 C 41.164062 57.539062 40.910156 57.785156 40.601562 57.785156 C 40.292969 57.785156 40.042969 57.539062 40.042969 57.238281 Z M 82.625 56.179688 C 82.625 55.542969 84.820312 54.820312 85.304688 55.296875 C 85.730469 55.710938 84.351562 56.664062 83.316406 56.683594 C 82.941406 56.683594 82.625 56.460938 82.625 56.179688 Z M 40.476562 55.472656 C 40.847656 55.03125 40.992188 54.519531 40.796875 54.328125 C 40.261719 53.804688 41.730469 52.316406 42.773438 52.324219 C 43.507812 52.324219 43.535156 52.421875 42.910156 52.808594 C 42.484375 53.074219 42.105469 53.867188 42.070312 54.574219 C 42.027344 55.375 41.597656 55.933594 40.902344 56.066406 C 39.992188 56.230469 39.914062 56.125 40.476562 55.472656 Z M 81.5 53.742188 C 81.5 52.863281 83.054688 50.902344 83.613281 51.089844 C 84.59375 51.40625 84.46875 52.339844 83.316406 53.1875 C 82.363281 53.902344 81.5 54.160156 81.5 53.742188 Z M 40.042969 51.769531 C 40.042969 51.46875 40.359375 51.21875 40.746094 51.21875 C 41.738281 51.21875 43.121094 49.03125 42.148438 49.015625 C 41.675781 48.996094 41.738281 48.777344 42.332031 48.328125 C 42.820312 47.964844 43.371094 47.292969 43.546875 46.84375 C 43.730469 46.386719 43.894531 46.765625 43.921875 47.699219 C 43.949219 48.855469 43.480469 49.828125 42.394531 50.839844 C 40.734375 52.394531 40.042969 52.667969 40.042969 51.769531 Z M 79.539062 50.125 C 79.347656 49.828125 79.457031 49.578125 79.789062 49.578125 C 80.617188 49.578125 80.527344 48.089844 79.679688 47.753906 C 79.1875 47.558594 79.175781 47.460938 79.636719 47.433594 C 80.90625 47.347656 82.164062 49.066406 81.453125 49.90625 C 80.691406 50.804688 80.023438 50.886719 79.539062 50.125 Z M 78.699219 45.472656 C 78.699219 45.019531 79.078125 44.652344 79.539062 44.652344 C 80.546875 44.652344 80.644531 43.484375 79.707031 42.574219 C 78.761719 41.652344 79.871094 41.785156 81.175781 42.75 C 82.136719 43.453125 82.175781 43.699219 81.507812 44.917969 C 80.691406 46.410156 78.699219 46.800781 78.699219 45.472656 Z M 28.523438 39.5 C 27.925781 39.074219 27.5625 38.609375 27.71875 38.46875 C 28.171875 38.054688 30.519531 39.097656 30.519531 39.710938 C 30.519531 40.492188 29.808594 40.417969 28.523438 39.5 Z M 5.738281 38.871094 C 5.160156 38.304688 6.21875 35.625 7.019531 35.625 C 8.0625 35.625 8.382812 37.378906 7.527344 38.386719 C 6.808594 39.226562 6.257812 39.378906 5.738281 38.871094 Z M 27.640625 37 C 26.316406 35.914062 26.316406 35.914062 28.136719 36.507812 C 30.113281 37.148438 31.082031 38.085938 29.773438 38.085938 C 29.328125 38.085938 28.367188 37.597656 27.640625 37 Z M 27.414062 35.316406 C 27.214844 35 26.378906 34.488281 25.5625 34.183594 C 24.074219 33.628906 24.074219 33.628906 25.476562 32.867188 C 26.738281 32.183594 26.765625 32.101562 25.757812 32.03125 C 24.339844 31.9375 28.101562 30.859375 29.675781 30.910156 C 32.636719 31.003906 37 31.914062 34.859375 31.992188 C 32.554688 32.078125 31.902344 33.164062 34.160156 33.164062 C 34.929688 33.164062 35.558594 33.410156 35.558594 33.710938 C 35.558594 34.011719 34.867188 34.265625 34.019531 34.277344 C 33.171875 34.289062 31.847656 34.648438 31.078125 35.078125 C 29.398438 36.015625 27.917969 36.113281 27.414062 35.316406 Z M 29.765625 32.886719 C 30.273438 31.8125 30.261719 31.519531 29.695312 31.519531 C 28.703125 31.519531 27.539062 32.988281 27.980469 33.6875 C 28.550781 34.585938 29.066406 34.355469 29.765625 32.886719 Z M 85.421875 35.410156 C 85.421875 35.140625 85.800781 34.78125 86.261719 34.605469 C 87.648438 34.085938 87.214844 33.15625 85.421875 32.808594 C 83.121094 32.359375 83.300781 31.519531 85.703125 31.519531 C 87.96875 31.519531 88.339844 30.40625 86.503906 29.148438 C 85 28.121094 85.992188 27.515625 87.96875 28.25 C 89.390625 28.777344 89.472656 28.96875 89.148438 31.261719 C 88.808594 33.710938 88.808594 33.710938 91.039062 33.710938 C 92.261719 33.710938 93.261719 33.957031 93.261719 34.257812 C 93.261719 34.558594 92.273438 34.804688 91.058594 34.804688 C 89.84375 34.804688 88.691406 35.050781 88.5 35.351562 C 88.078125 36.03125 85.421875 36.082031 85.421875 35.410156 Z M 40.078125 27.859375 C 40.097656 27.316406 40.707031 25.640625 41.429688 24.136719 C 42.96875 20.945312 43.527344 22.84375 42.0625 26.273438 C 41.144531 28.417969 40.027344 29.3125 40.078125 27.859375 Z M 21.441406 152.351562 C 21.234375 148.179688 19.949219 146.917969 18.183594 149.148438 C 16.683594 151.039062 16.796875 151.824219 18.863281 153.90625 C 21.328125 156.394531 21.632812 156.207031 21.441406 152.351562 Z M 110.316406 95.953125 C 112.332031 93.144531 105.25 84.171875 97.285156 79.453125 C 91.398438 75.957031 89.871094 78.621094 95.179688 83.105469 C 98.160156 85.621094 101.667969 91.179688 101.667969 93.394531 C 101.667969 96.234375 108.644531 98.300781 110.316406 95.953125 Z M 103.628906 89.511719 C 103.074219 88.300781 101.109375 85.832031 99.265625 84.015625 C 97.429688 82.207031 96.0625 80.582031 96.234375 80.414062 C 97.085938 79.585938 105.59375 89.5625 105.59375 91.410156 C 105.59375 92.433594 104.484375 91.363281 103.628906 89.511719 Z M 62.390625 93.066406 C 57.496094 90.472656 59.378906 84.738281 66.585938 80.289062 C 74.460938 75.4375 76.351562 64.480469 69.671875 62.414062 C 69.089844 62.230469 68.613281 61.847656 68.613281 61.574219 C 68.613281 60.84375 70.511719 60.941406 71.300781 61.71875 C 72.410156 62.792969 72.066406 61.691406 70.71875 59.8125 C 69.078125 57.542969 68.125 56.8125 66.207031 56.386719 C 64.957031 56.113281 64.769531 55.882812 65.273438 55.292969 C 65.804688 54.675781 65.164062 54.515625 61.566406 54.382812 C 58.523438 54.269531 57.144531 54.003906 56.964844 53.484375 C 56.777344 52.921875 57.039062 52.847656 58.046875 53.203125 C 58.773438 53.457031 60.945312 53.589844 62.871094 53.503906 C 66.011719 53.359375 66.503906 53.484375 67.703125 54.738281 C 68.429688 55.503906 69.347656 56.140625 69.746094 56.140625 C 70.25 56.140625 70.167969 55.8125 69.484375 55.074219 C 68.917969 54.464844 68.503906 53.148438 68.503906 51.984375 C 68.503906 49.867188 67.601562 48.570312 64.839844 46.699219 C 63.292969 45.648438 63.292969 45.648438 65.390625 45.992188 C 67.054688 46.265625 67.496094 46.160156 67.496094 45.511719 C 67.496094 44.441406 61.796875 41.859375 58.640625 41.496094 C 57.296875 41.339844 56.433594 41.007812 56.695312 40.75 C 56.957031 40.492188 58.046875 40.523438 59.109375 40.824219 C 60.167969 41.121094 62.113281 41.367188 63.425781 41.367188 C 65.300781 41.367188 65.8125 41.566406 65.8125 42.296875 C 65.8125 43.007812 65.964844 43.074219 66.46875 42.582031 C 67.460938 41.617188 65.535156 39.816406 63.078125 39.414062 C 59.042969 38.753906 58.675781 38.4375 61.472656 38.023438 C 63.984375 37.648438 68.664062 34.800781 66.765625 34.800781 C 66.324219 34.800781 64.796875 34.296875 63.375 33.683594 C 61.410156 32.835938 60.519531 32.703125 59.691406 33.136719 C 57.460938 34.304688 56.523438 33.683594 58.667969 32.453125 C 61.492188 30.824219 61.554688 29.273438 58.765625 29.886719 C 57.667969 30.128906 56.328125 30.71875 55.785156 31.195312 C 54.039062 32.738281 53.789062 32.117188 55.460938 30.410156 C 56.390625 29.46875 57.433594 28.882812 57.890625 29.054688 C 58.808594 29.402344 60.773438 27.867188 60.773438 26.796875 C 60.773438 26.246094 60.429688 26.203125 59.332031 26.605469 C 57.558594 27.265625 57.40625 27.269531 57.40625 26.632812 C 57.40625 26.351562 57.9375 25.957031 58.578125 25.761719 C 60.546875 25.148438 59.316406 24.839844 57.179688 25.414062 C 56.082031 25.714844 53.78125 27.121094 52.078125 28.542969 C 50.378906 29.964844 48.820312 30.96875 48.621094 30.777344 C 47.9375 30.109375 53.429688 25.425781 55.570312 24.851562 C 56.742188 24.539062 57.875 24.003906 58.097656 23.660156 C 59.621094 21.367188 54.453125 19.953125 50.277344 21.519531 C 49.65625 21.75 49.511719 21.644531 49.808594 21.175781 C 50.042969 20.804688 50.78125 20.285156 51.449219 20.023438 C 52.304688 19.6875 52.382812 19.542969 51.726562 19.515625 C 48.992188 19.414062 47.101562 20.988281 45.589844 24.628906 C 43.542969 29.5625 45.425781 30.425781 48.765625 26.082031 C 51.125 23.003906 56.046875 21.050781 57.128906 22.765625 C 57.335938 23.089844 56.652344 23.3125 55.433594 23.3125 C 52.375 23.3125 45.632812 29.75 47.226562 31.152344 C 48.558594 32.339844 49.171875 32.304688 50.40625 30.96875 C 50.960938 30.367188 51.71875 29.875 52.070312 29.875 C 52.429688 29.875 53.574219 29.140625 54.609375 28.238281 C 55.632812 27.339844 56.605469 26.714844 56.75 26.859375 C 57.234375 27.332031 55.507812 28.894531 52.265625 30.902344 C 49.792969 32.445312 49.171875 33.082031 49.566406 33.707031 C 49.972656 34.355469 50.222656 34.378906 50.773438 33.839844 C 51.835938 32.800781 53.265625 32.925781 52.367188 33.980469 C 51.988281 34.429688 51.332031 34.800781 50.917969 34.800781 C 50.339844 34.800781 50.441406 35.417969 51.3125 37.398438 C 52.546875 40.183594 53.734375 46.214844 54.355469 52.859375 C 55.15625 61.25 60.050781 71.015625 61.976562 68.050781 C 62.769531 66.84375 62.5 66.253906 60.738281 65.230469 C 58.847656 64.144531 58.835938 63.332031 60.726562 64.320312 C 61.628906 64.789062 61.886719 64.769531 61.871094 64.222656 C 61.84375 62.996094 59.703125 60.921875 58.808594 61.257812 C 58.351562 61.433594 57.972656 61.335938 57.972656 61.046875 C 57.972656 60.03125 60.582031 60.515625 61.726562 61.742188 C 64.398438 64.609375 64.507812 67.539062 62.058594 70.769531 C 57.550781 76.726562 46.605469 74.609375 47.507812 67.964844 C 47.804688 65.714844 47.804688 65.714844 46.722656 67.003906 C 42.703125 71.8125 53.644531 78.277344 60.257812 75.003906 C 65.558594 72.382812 68.296875 68.742188 66.882812 66.171875 C 66 64.558594 66.757812 63.710938 67.820312 65.132812 C 69.738281 67.691406 68.316406 71.359375 64.460938 73.859375 C 62.851562 74.910156 61.167969 76.1875 60.726562 76.707031 C 60.285156 77.21875 58.378906 78.324219 56.46875 79.160156 C 52.988281 80.6875 51.808594 81.914062 51.808594 84.023438 C 51.808594 85.027344 52.023438 84.933594 53.527344 83.265625 C 54.589844 82.082031 57.441406 80.300781 61.050781 78.570312 C 69.269531 74.632812 71.988281 71.34375 70.042969 67.691406 C 68.980469 65.671875 69.773438 65.394531 71.070312 67.335938 C 72.886719 70.046875 70.644531 75.332031 66.855469 77.238281 C 62.664062 79.363281 57.40625 85.265625 57.40625 87.871094 C 57.40625 90.570312 60.484375 93.84375 63.011719 93.84375 C 63.472656 93.84375 63.195312 93.5 62.390625 93.066406 Z M 56.714844 51.632812 C 55.859375 51.347656 55.164062 50.777344 55.164062 50.34375 C 55.164062 49.335938 55.964844 49.355469 56.847656 50.394531 C 57.640625 51.324219 59.496094 51.457031 61.5 50.707031 C 62.859375 50.203125 67.496094 50.960938 67.496094 51.695312 C 67.496094 52.242188 58.398438 52.195312 56.714844 51.632812 Z M 53.492188 38.921875 C 53.492188 38.449219 53.976562 38.082031 54.609375 38.082031 C 55.226562 38.082031 55.734375 38.199219 55.734375 38.335938 C 55.734375 38.476562 55.226562 38.855469 54.609375 39.175781 C 53.714844 39.644531 53.492188 39.59375 53.492188 38.921875 Z M 57.308594 37.710938 C 57.710938 37.550781 58.191406 37.570312 58.378906 37.753906 C 58.566406 37.933594 58.234375 38.0625 57.640625 38.039062 C 56.992188 38.011719 56.859375 37.882812 57.308594 37.710938 Z M 115.359375 91.9375 C 118.066406 89.28125 114.125 83.742188 105.242188 77.695312 C 101.714844 75.304688 101.21875 75.058594 96.90625 73.601562 C 94.863281 72.921875 94.488281 72.648438 95.503906 72.613281 C 99.90625 72.464844 107.84375 77 113.972656 83.167969 C 117.597656 86.8125 120.722656 86.289062 120.722656 82.046875 C 120.722656 78.164062 112.097656 71.765625 102.792969 68.730469 C 100.785156 68.078125 98.589844 67.195312 97.90625 66.765625 C 96.214844 65.707031 96.0625 65.757812 96.089844 67.488281 C 96.105469 68.8125 96.601562 69.226562 100.148438 70.867188 C 104.773438 73.011719 108.058594 75.183594 105.59375 74.46875 C 104.820312 74.246094 103.792969 73.726562 103.304688 73.3125 C 102.820312 72.886719 102 72.550781 101.488281 72.550781 C 100.964844 72.550781 100.550781 72.347656 100.550781 72.101562 C 100.550781 71.34375 96.402344 69.648438 96.179688 70.3125 C 96.0625 70.636719 95.648438 70.910156 95.242188 70.910156 C 94.835938 70.910156 94.359375 71.273438 94.191406 71.722656 C 94.007812 72.183594 93.496094 72.394531 93.011719 72.207031 C 90.121094 71.132812 93.414062 76.160156 96.628906 77.75 C 100.5 79.664062 106.953125 85.222656 108.707031 88.160156 C 111.164062 92.246094 113.613281 93.640625 115.359375 91.9375 Z M 104.394531 80.183594 C 103.074219 79.0625 103.074219 79.0625 104.890625 79.921875 C 106.679688 80.777344 107.195312 81.304688 106.214844 81.304688 C 105.945312 81.304688 105.125 80.800781 104.394531 80.183594 Z M 100.984375 78.429688 C 100.121094 77.652344 98.347656 76.609375 95.503906 75.207031 C 94.164062 74.539062 93.882812 74.230469 94.613281 74.210938 C 95.199219 74.203125 96.511719 74.8125 97.519531 75.5625 C 98.527344 76.3125 99.5625 76.9375 99.816406 76.9375 C 100.570312 76.964844 103.125 79.089844 102.40625 79.109375 C 102.046875 79.109375 101.40625 78.808594 100.984375 78.429688 Z M 91.246094 77.148438 C 92.03125 76.859375 92.03125 76.65625 91.265625 75.207031 C 90.167969 73.144531 88.035156 72.121094 86.835938 73.082031 C 85.765625 73.957031 85.71875 75.289062 86.765625 75.289062 C 87.1875 75.289062 88.132812 75.773438 88.863281 76.363281 C 90.425781 77.632812 90.167969 77.554688 91.246094 77.148438 Z M 122.289062 75.730469 C 124.511719 73.558594 120.9375 69.753906 112.972656 65.8125 C 106.996094 62.847656 99.425781 61.097656 99.425781 62.6875 C 99.425781 62.996094 99.789062 63.253906 100.238281 63.253906 C 100.679688 63.253906 101.199219 63.492188 101.390625 63.789062 C 101.605469 64.132812 100.796875 64.207031 99.175781 63.992188 C 94.441406 63.359375 96.015625 65.050781 102.046875 67.082031 C 108.128906 69.128906 113.636719 71.828125 117.292969 74.546875 C 119.902344 76.488281 121.191406 76.796875 122.289062 75.730469 Z M 110.882812 68.46875 C 110.28125 68.027344 110.054688 67.65625 110.390625 67.644531 C 110.714844 67.636719 111.46875 67.992188 112.0625 68.433594 C 112.667969 68.871094 112.890625 69.242188 112.558594 69.253906 C 112.234375 69.261719 111.476562 68.910156 110.882812 68.46875 Z M 105.3125 65.96875 C 103.460938 65.097656 102.253906 64.371094 102.632812 64.363281 C 103.371094 64.347656 109.515625 67.074219 109.515625 67.417969 C 109.515625 67.832031 108.609375 67.523438 105.3125 65.96875 Z M 93.957031 70.179688 C 95.132812 68.371094 92.328125 64.347656 89.886719 64.347656 C 89.277344 64.347656 88.78125 64.097656 88.78125 63.800781 C 88.78125 63.003906 87.710938 63.128906 86.78125 64.027344 C 85.757812 65.035156 85.773438 65.40625 86.910156 66.621094 C 88.152344 67.964844 88.78125 67.882812 88.78125 66.421875 C 88.78125 65.308594 88.863281 65.28125 89.671875 66.074219 C 91.226562 67.59375 89.328125 69.648438 86.683594 69.304688 C 86.296875 69.261719 85.980469 69.472656 85.980469 69.773438 C 85.980469 71.300781 93 71.644531 93.957031 70.179688 Z M 85.640625 63.480469 C 85.855469 62.945312 85.730469 62.695312 85.316406 62.828125 C 84.476562 63.101562 84.019531 64.347656 84.757812 64.347656 C 85.054688 64.347656 85.460938 63.957031 85.640625 63.480469 Z M 125.761719 61.574219 C 129.632812 60.96875 132.132812 59.765625 131.773438 58.699219 C 130.808594 55.867188 104.988281 54.894531 104.042969 57.660156 C 103.875 58.152344 105.257812 58.347656 109.328125 58.410156 C 114.835938 58.488281 114.835938 58.488281 109.515625 58.875 C 106.511719 59.097656 103.53125 59.035156 102.675781 58.753906 C 99.941406 57.824219 98.941406 59.070312 101.480469 60.253906 C 105.234375 61.992188 118.507812 62.714844 125.761719 61.574219 Z M 118.625 58.480469 C 119.480469 58.355469 120.738281 58.355469 121.421875 58.488281 C 122.117188 58.621094 121.414062 58.71875 119.875 58.71875 C 118.335938 58.71875 117.769531 58.601562 118.625 58.480469 Z M 114.554688 54.773438 C 126.832031 53.855469 139.765625 49.769531 139.765625 46.804688 C 139.765625 44.929688 132.53125 44.796875 126.320312 46.558594 C 124.628906 47.035156 119.585938 48.039062 115.113281 48.78125 C 102.289062 50.910156 98.195312 53.855469 110.585938 52.039062 C 113.691406 51.585938 116.671875 51.226562 117.210938 51.234375 C 119.199219 51.261719 116.589844 52.152344 113.429688 52.523438 C 106.65625 53.308594 105.59375 53.539062 105.59375 54.242188 C 105.59375 55.0625 106.527344 55.460938 108.113281 55.292969 C 108.722656 55.230469 111.632812 54.992188 114.554688 54.773438 Z M 121.28125 50.34375 C 122.972656 49.929688 124.734375 49.683594 125.203125 49.789062 C 125.664062 49.902344 125.492188 50.015625 124.816406 50.050781 C 124.140625 50.085938 123.429688 50.371094 123.242188 50.671875 C 123.050781 50.96875 121.835938 51.191406 120.542969 51.15625 C 118.191406 51.09375 118.191406 51.09375 121.28125 50.34375 Z M 115.394531 47.652344 C 126.777344 45.789062 143.167969 39.59375 146.984375 35.707031 C 151.664062 30.941406 146.453125 30.882812 132.464844 35.535156 C 126.660156 37.464844 113.765625 40.820312 112.152344 40.820312 C 111.703125 40.820312 110.351562 41.230469 109.164062 41.734375 C 107.96875 42.238281 106.527344 42.734375 105.960938 42.835938 C 105.394531 42.933594 104.40625 43.375 103.765625 43.8125 C 102.046875 44.984375 103.863281 45.53125 105.960938 44.472656 C 106.835938 44.03125 109.320312 43.488281 111.46875 43.269531 C 116.195312 42.789062 117.21875 42.617188 119.039062 41.996094 C 120.488281 41.503906 125.050781 40.21875 128.703125 39.273438 C 129.855469 38.976562 130.917969 38.925781 131.070312 39.160156 C 131.339844 39.589844 125.609375 41.367188 123.953125 41.367188 C 123.457031 41.367188 122.972656 41.597656 122.863281 41.882812 C 122.703125 42.324219 116.203125 43.789062 109.515625 44.890625 C 106.464844 45.390625 106.035156 45.820312 106.84375 47.511719 C 107.382812 48.621094 107.851562 48.894531 108.949219 48.710938 C 109.722656 48.585938 112.621094 48.109375 115.394531 47.652344 Z M 71.691406 41.378906 C 72.769531 39.28125 73.660156 37.472656 73.660156 37.359375 C 73.660156 36.90625 70.292969 37.101562 69.988281 37.574219 C 69.816406 37.855469 68.988281 38.074219 68.160156 38.058594 C 65.867188 38.027344 69.945312 35.949219 72.375 35.917969 C 74.460938 35.890625 76.0625 33.945312 74.695312 33.097656 C 74.101562 32.730469 74.148438 32.625 74.902344 32.621094 C 75.433594 32.617188 76.261719 31.875 76.738281 30.96875 C 77.78125 29 76.980469 28.753906 74.148438 30.183594 C 72.769531 30.878906 72.582031 31.183594 73.128906 31.824219 C 73.640625 32.4375 73.640625 32.796875 73.09375 33.433594 C 72.121094 34.574219 71.277344 34.457031 71.671875 33.238281 C 72.066406 32.019531 70.671875 30.714844 69.464844 31.167969 C 69 31.339844 68.613281 31.246094 68.613281 30.953125 C 68.613281 30.390625 68.683594 30.367188 70.851562 30.132812 C 72.363281 29.96875 76.226562 28.648438 76.785156 28.105469 C 76.972656 27.917969 76.371094 27.386719 75.441406 26.921875 C 73.695312 26.039062 71.949219 26.863281 72.777344 28.171875 C 72.96875 28.46875 72.878906 28.851562 72.582031 29.027344 C 72.292969 29.203125 71.898438 29.097656 71.699219 28.792969 C 71.507812 28.484375 70.796875 28.234375 70.125 28.234375 C 69.089844 28.230469 69.195312 28.046875 70.851562 27.054688 C 73.164062 25.667969 72.265625 25.042969 69.773438 26.300781 C 68.800781 26.792969 68.054688 26.925781 68.054688 26.609375 C 68.054688 26.300781 67.773438 26.046875 67.421875 26.046875 C 67.019531 26.046875 66.917969 26.648438 67.136719 27.734375 C 67.539062 29.703125 66.722656 31.519531 65.425781 31.519531 C 64.605469 31.519531 64.605469 31.421875 65.371094 30.558594 C 65.839844 30.035156 66.117188 29.3125 65.984375 28.960938 C 65.335938 27.214844 66.972656 23.722656 68.007812 24.640625 C 68.820312 25.351562 69.332031 25.414062 70.574219 24.953125 C 71.429688 24.636719 72.570312 24.515625 73.113281 24.683594 C 74.101562 24.992188 75.902344 23.707031 75.902344 22.6875 C 75.902344 22.09375 73.796875 22.574219 72.714844 23.417969 C 72.292969 23.746094 71.636719 23.71875 70.90625 23.335938 C 70.277344 23.007812 69.0625 22.902344 68.207031 23.101562 C 66.660156 23.464844 66.660156 23.464844 67.972656 22.0625 C 69.636719 20.285156 69.105469 19.289062 66.75 19.792969 C 65.171875 20.132812 65.074219 20.082031 65.75 19.28125 C 67.46875 17.257812 71.175781 18.585938 70.277344 20.894531 C 69.78125 22.167969 69.789062 22.171875 73.320312 21.847656 C 77.648438 21.453125 78.394531 22.148438 76.136719 24.449219 C 74.785156 25.820312 74.714844 26.046875 75.613281 26.046875 C 76.179688 26.046875 77.0625 26.410156 77.558594 26.851562 C 78.375 27.574219 78.628906 27.421875 79.996094 25.351562 C 81.734375 22.738281 81.734375 21.679688 80.003906 20.839844 C 76.53125 19.144531 87.449219 15.367188 107.554688 11.300781 C 123.050781 8.167969 131.234375 4.429688 128.523438 1.726562 C 127.839844 1.050781 121.738281 2.269531 119.03125 3.621094 C 117.914062 4.175781 115.25 5.054688 113.117188 5.566406 C 110.984375 6.082031 108.21875 6.941406 106.988281 7.480469 C 98.457031 11.214844 95.125 12.457031 90.183594 13.757812 C 82.902344 15.675781 80.546875 16.59375 78.050781 18.484375 C 76.925781 19.335938 75.164062 20.191406 74.136719 20.382812 C 72.078125 20.765625 73.183594 19.511719 76.332031 17.894531 C 78.339844 16.859375 77.214844 16.050781 74.289062 16.425781 C 71.699219 16.761719 71.699219 16.761719 73.320312 15.875 C 74.390625 15.289062 75.613281 15.09375 76.917969 15.300781 C 78.296875 15.519531 80.464844 15.125 83.984375 14.015625 C 86.78125 13.136719 91.210938 11.761719 93.828125 10.960938 C 101.695312 8.546875 110.714844 3.507812 109.417969 2.246094 C 109.253906 2.089844 106.761719 3.097656 103.875 4.480469 C 96.332031 8.09375 92.363281 9.460938 83.183594 11.601562 C 65.371094 15.757812 62.457031 17.894531 62.457031 26.777344 C 62.457031 30.960938 62.574219 31.46875 63.714844 32.195312 C 65.832031 33.546875 67.316406 33.804688 68.171875 32.972656 C 68.828125 32.324219 69.125 32.316406 69.980469 32.925781 C 71.050781 33.691406 70.78125 34.019531 66.414062 37.398438 C 65.632812 38.003906 65.703125 38.214844 67.074219 39.222656 C 67.917969 39.851562 68.621094 40.894531 68.621094 41.546875 C 68.628906 42.882812 69.195312 45.195312 69.511719 45.195312 C 69.628906 45.195312 70.609375 43.480469 71.691406 41.378906 Z M 63.292969 28.234375 C 62.851562 27.542969 63.597656 27.542969 64.695312 28.234375 C 65.417969 28.691406 65.398438 28.765625 64.589844 28.773438 C 64.066406 28.777344 63.480469 28.535156 63.292969 28.234375 Z M 63.886719 25.011719 C 63.707031 24.714844 63.996094 24.230469 64.542969 23.929688 C 65.480469 23.414062 65.480469 23.367188 64.550781 23.015625 C 64.023438 22.816406 63.722656 22.417969 63.90625 22.132812 C 64.320312 21.488281 65.8125 22.628906 65.8125 23.585938 C 65.8125 24.570312 64.320312 25.683594 63.886719 25.011719 Z M 108.949219 8.5625 C 108.949219 8.269531 110.019531 7.757812 111.335938 7.417969 C 112.640625 7.082031 115.464844 6.335938 117.597656 5.765625 C 121.117188 4.820312 122.546875 4.75 121.71875 5.554688 C 121.488281 5.789062 109.734375 9.070312 109.09375 9.082031 C 109.011719 9.085938 108.949219 8.851562 108.949219 8.5625 Z M 117.078125 38.640625 C 135.121094 33.769531 145.894531 29.484375 150.898438 25.183594 C 152.328125 23.957031 155.128906 21.894531 157.136719 20.597656 C 161.3125 17.890625 165.542969 14.113281 165.542969 13.074219 C 165.542969 12.207031 164.625 12.148438 164.09375 12.984375 C 162.453125 15.570312 145.292969 21.738281 113.855469 31.03125 C 111.371094 31.765625 109.515625 32.617188 109.515625 33.019531 C 109.515625 33.40625 108.699219 34.210938 107.691406 34.808594 C 105.90625 35.871094 105.898438 35.890625 107.300781 35.894531 C 108.09375 35.894531 109.226562 35.535156 109.824219 35.09375 C 110.425781 34.648438 111.308594 34.28125 111.792969 34.269531 C 112.28125 34.261719 114.269531 33.625 116.203125 32.855469 C 119.820312 31.421875 122.898438 31.140625 119.820312 32.527344 C 118.929688 32.929688 117.480469 33.605469 116.609375 34.03125 C 115.734375 34.453125 114.601562 34.808594 114.089844 34.816406 C 110.964844 34.863281 108.878906 36.675781 110.15625 38.21875 C 111.632812 39.996094 111.972656 40.019531 117.078125 38.640625 Z M 122.117188 35.347656 C 122.304688 35.046875 123.140625 34.816406 123.96875 34.839844 C 125.320312 34.875 125.355469 34.929688 124.359375 35.347656 C 122.800781 36 121.703125 36 122.117188 35.347656 Z M 130.242188 32.621094 C 130.703125 32.324219 131.691406 32.078125 132.441406 32.074219 C 134.230469 32.0625 133.78125 32.375 131.359375 32.808594 C 129.984375 33.054688 129.648438 33 130.242188 32.621094 Z M 122.144531 31.058594 C 122.71875 30.570312 129.199219 28.234375 129.992188 28.234375 C 131.1875 28.234375 129.082031 29.347656 125.914062 30.378906 C 122.125 31.617188 121.332031 31.761719 122.144531 31.058594 Z M 139.207031 28.867188 C 139.207031 28.300781 144.804688 26.585938 146.542969 26.625 C 147.570312 26.644531 147.289062 26.890625 145.371094 27.636719 C 142.292969 28.839844 139.207031 29.457031 139.207031 28.867188 Z M 118.757812 28.019531 C 144.824219 19.464844 155.011719 14.613281 161.753906 7.546875 C 166.242188 2.84375 165.273438 2.105469 158.792969 5.28125 C 153.722656 7.761719 143.265625 11.59375 126.824219 17 C 112.109375 21.835938 106.464844 25.820312 117.5 23.574219 C 119.226562 23.222656 119.261719 23.246094 118.191406 24.0625 C 117.582031 24.53125 116.644531 24.925781 116.121094 24.933594 C 115.601562 24.945312 114.492188 25.566406 113.664062 26.3125 C 112.835938 27.0625 110.695312 28.390625 108.914062 29.265625 C 105.816406 30.773438 105.257812 31.523438 107.222656 31.515625 C 107.714844 31.511719 112.902344 29.941406 118.757812 28.019531 Z M 120.722656 22.492188 C 121.488281 22.0625 122.539062 21.699219 123.0625 21.6875 C 123.574219 21.679688 124.394531 21.285156 124.878906 20.808594 C 125.527344 20.179688 141.285156 14.558594 142.402344 14.558594 C 144.195312 14.558594 141.027344 16.0625 135.425781 17.867188 C 131.496094 19.136719 128.03125 20.367188 127.722656 20.601562 C 126.839844 21.265625 121.089844 23.3125 120.15625 23.292969 C 119.660156 23.28125 119.882812 22.957031 120.722656 22.492188 Z M 25.402344 26.929688 C 26.453125 26.363281 26.550781 26.148438 25.875 25.894531 C 25.398438 25.714844 24.585938 26.042969 24.042969 26.632812 C 22.914062 27.847656 23.480469 27.972656 25.402344 26.929688 Z M 87.710938 22.472656 C 92.472656 20.894531 98.292969 19.511719 106.988281 17.902344 C 117.699219 15.921875 137.003906 8.46875 138.957031 5.5625 C 140.730469 2.917969 139.21875 2.777344 134.375 5.136719 C 129.675781 7.429688 116.050781 11.28125 103.910156 13.753906 C 88.566406 16.875 80.84375 19.417969 82.121094 20.921875 C 82.472656 21.328125 82.644531 22.394531 82.507812 23.292969 C 82.320312 24.515625 82.425781 24.789062 82.929688 24.382812 C 83.300781 24.085938 85.453125 23.226562 87.710938 22.472656 Z M 83.328125 21.511719 C 83.714844 20.367188 92.433594 17.714844 100.265625 16.363281 C 104.351562 15.65625 100.375 17.242188 95.226562 18.375 C 92.148438 19.050781 88.160156 20.183594 86.359375 20.886719 C 84.351562 21.679688 83.191406 21.917969 83.328125 21.511719 Z M 102.792969 16.269531 C 103.253906 16.027344 105.144531 15.515625 106.988281 15.132812 C 108.84375 14.75 111.335938 14.085938 112.523438 13.652344 C 114.691406 12.871094 116.058594 13.101562 114.585938 13.996094 C 113.621094 14.578125 104.378906 16.753906 102.964844 16.730469 C 102.128906 16.714844 102.101562 16.636719 102.792969 16.269531 Z M 118.761719 12.238281 C 119.371094 11.882812 121.386719 11.070312 123.242188 10.429688 C 125.085938 9.789062 127.039062 9.074219 127.582031 8.84375 C 128.164062 8.59375 128.5625 8.652344 128.5625 8.988281 C 128.5625 9.628906 122.925781 11.820312 121.289062 11.820312 C 120.703125 11.820312 120.066406 12.066406 119.875 12.367188 C 119.6875 12.667969 119.101562 12.910156 118.582031 12.898438 C 117.789062 12.886719 117.816406 12.78125 118.761719 12.238281 Z M 131.925781 7.773438 C 131.925781 7.542969 136.257812 5.257812 136.707031 5.257812 C 137.777344 5.257812 136.5625 6.390625 134.71875 7.113281 C 132.359375 8.03125 131.925781 8.136719 131.925781 7.773438 Z M 39.425781 20.761719 C 40.109375 19.289062 39.394531 16.199219 38.367188 16.199219 C 37.054688 16.199219 35.910156 19.710938 36.734375 21.210938 C 37.515625 22.644531 38.632812 22.457031 39.425781 20.761719 Z M 37.59375 20.683594 C 37.417969 20.40625 37.828125 19.710938 38.507812 19.144531 C 39.722656 18.132812 39.730469 18.132812 38.914062 19.15625 C 38.457031 19.730469 38.167969 20.304688 38.273438 20.433594 C 38.375 20.5625 38.335938 20.785156 38.1875 20.929688 C 38.039062 21.078125 37.773438 20.964844 37.59375 20.683594 Z M 37.246094 18.726562 C 37.246094 18.613281 37.6875 18.183594 38.226562 17.769531 C 39.113281 17.089844 39.132812 17.109375 38.4375 17.976562 C 37.703125 18.886719 37.246094 19.179688 37.246094 18.726562 Z M 120.859375 17.332031 C 128.484375 14.855469 134.875 12.582031 135.0625 12.277344 C 136.050781 10.71875 133.9375 10.9375 128.652344 12.9375 C 125.476562 14.136719 119.4375 16.136719 115.21875 17.378906 C 111.003906 18.625 107.117188 20.011719 106.578125 20.46875 C 105.441406 21.421875 105.261719 22.453125 106.296875 22.082031 C 106.675781 21.945312 113.238281 19.804688 120.859375 17.332031 Z M 30.390625 20.574219 C 29.832031 19.703125 29.832031 19.261719 30.390625 18.386719 C 30.78125 17.78125 30.847656 17.292969 30.546875 17.292969 C 29.8125 17.292969 28.839844 19.144531 28.839844 20.539062 C 28.839844 21.308594 29.203125 21.667969 29.96875 21.667969 C 30.953125 21.667969 31.003906 21.535156 30.390625 20.574219 Z M 30.390625 20.574219 "/>
</g>
</svg>
